{"glyphs":{"0":{"ha":1028,"x_min":0,"x_max":0,"o":"m 971 543 b 967 576 971 554 968 565 b 968 610 967 588 969 599 b 960 642 967 621 963 631 b 957 675 958 653 958 664 b 949 707 954 686 951 697 b 939 739 944 718 942 729 b 922 768 935 750 926 758 b 910 799 918 778 915 789 b 892 825 906 808 897 817 b 876 856 885 835 882 846 b 854 881 869 864 861 872 b 835 906 847 889 843 899 b 810 926 828 914 818 919 b 786 949 801 935 794 943 b 758 965 778 956 768 960 b 731 983 749 972 740 978 b 701 994 722 989 711 990 b 672 1008 692 999 682 1004 b 642 1018 663 1011 651 1015 b 610 1021 631 1021 619 1019 b 578 1026 599 1024 589 1025 b 547 1035 568 1028 557 1033 b 515 1032 536 1035 525 1032 b 483 1029 504 1032 493 1031 b 451 1032 472 1029 461 1033 b 419 1024 440 1031 431 1025 b 389 1018 410 1022 399 1021 b 358 1006 378 1015 368 1010 b 328 997 349 1003 338 1001 b 299 983 318 993 308 989 b 271 968 289 979 279 974 b 246 946 261 963 254 953 b 218 928 238 940 226 936 b 194 906 211 921 203 914 b 175 881 188 899 182 889 b 154 854 168 872 161 864 b 136 826 149 846 142 836 b 119 799 131 818 125 808 b 106 768 115 789 111 779 b 94 738 101 758 97 749 b 82 707 90 728 86 718 b 78 674 79 696 79 685 b 69 642 75 664 72 653 b 65 608 68 631 67 619 b 60 576 64 599 61 588 b 60 543 60 565 60 554 b 56 510 58 532 56 521 b 57 476 56 499 57 488 b 58 443 58 465 57 454 b 65 410 60 432 64 421 b 71 378 67 399 69 388 b 78 344 74 367 75 356 b 83 311 81 333 81 322 b 94 281 86 301 90 290 b 106 249 97 269 101 260 b 119 219 110 239 114 229 b 136 190 125 210 131 200 b 153 163 142 182 147 171 b 172 136 160 153 165 144 b 197 114 179 126 190 122 b 218 89 206 107 210 96 b 244 69 226 81 236 75 b 272 53 253 63 263 58 b 300 36 282 47 290 40 b 326 18 308 31 317 22 b 357 8 336 14 347 11 b 389 1 368 4 379 4 b 419 -10 399 -1 408 -8 b 451 -12 429 -12 440 -11 b 483 -17 461 -14 472 -15 b 515 -15 493 -17 504 -15 b 547 -15 525 -15 536 -17 b 578 -12 557 -15 568 -14 b 610 -7 589 -11 600 -10 b 642 -1 621 -6 631 -4 b 671 11 651 1 661 7 b 701 22 682 14 692 18 b 731 36 711 26 721 31 b 758 50 739 42 750 44 b 785 71 768 56 775 64 b 811 89 793 78 803 81 b 836 111 819 96 828 103 b 856 138 843 118 849 129 b 875 164 863 146 868 154 b 893 192 881 172 886 182 b 910 219 899 200 904 210 b 922 250 914 229 918 240 b 936 281 926 260 933 269 b 947 311 940 290 944 301 b 956 344 950 322 953 333 b 958 378 958 354 956 367 b 965 410 960 388 964 399 b 968 443 967 421 967 432 b 971 476 968 454 969 465 b 972 510 971 488 972 499 b 971 543 972 521 971 532 z m 181 482 b 163 474 175 471 168 474 b 160 478 161 475 160 476 b 160 481 160 479 160 479 b 161 486 160 483 161 486 b 179 490 167 488 172 489 b 181 482 182 490 183 485 z m 218 693 b 215 697 217 693 215 694 b 215 699 215 699 215 699 b 217 704 215 701 217 704 b 232 706 222 704 228 706 b 235 701 233 706 235 704 b 232 696 235 699 233 697 b 218 693 228 696 222 694 z m 240 450 b 238 446 240 447 239 446 b 228 447 235 447 231 447 b 225 453 226 447 225 450 b 228 457 225 456 226 457 b 238 456 231 457 235 457 b 240 451 239 456 240 454 b 240 450 240 451 240 450 z m 240 567 b 225 563 236 561 231 560 b 225 572 224 564 222 571 b 240 576 232 578 235 579 b 240 567 242 575 242 569 z m 583 896 l 596 896 b 599 890 597 896 599 893 b 596 886 599 888 599 886 l 583 886 b 581 890 582 886 581 888 b 583 896 581 893 582 896 z m 493 922 b 511 925 499 924 504 924 b 514 919 513 925 514 922 b 511 914 514 917 513 914 b 493 911 506 914 499 913 b 490 915 492 911 490 913 b 490 917 490 917 490 917 b 493 922 490 919 492 922 z m 294 753 l 306 753 b 308 747 307 753 308 750 b 306 743 308 746 307 743 l 294 743 b 293 747 293 743 293 744 b 294 753 293 750 293 753 z m 285 329 b 265 319 278 326 272 324 b 261 325 264 319 263 321 b 264 335 261 329 263 333 b 283 344 271 338 276 342 b 288 339 285 346 286 343 b 285 329 288 335 286 331 z m 307 206 b 289 199 300 204 294 201 b 288 206 286 199 286 203 b 307 213 293 214 299 221 b 307 206 308 211 308 207 z m 326 813 b 344 818 336 819 339 819 b 344 807 347 817 347 810 b 326 801 339 801 333 799 b 326 813 324 803 324 811 z m 581 110 b 578 106 581 107 579 104 b 564 107 572 106 568 107 b 561 113 561 107 560 110 b 561 114 561 114 561 114 b 564 118 561 117 563 119 b 578 118 568 118 574 118 b 581 111 579 117 581 114 b 581 110 581 111 581 111 z m 703 475 b 701 443 703 464 703 453 b 693 411 700 431 694 421 b 689 378 692 400 692 389 b 676 349 686 367 679 358 b 664 318 672 338 668 328 b 647 292 658 308 653 300 b 629 264 640 282 636 271 b 604 244 622 256 613 250 b 578 226 594 239 588 231 b 546 221 568 222 557 224 b 515 217 536 219 525 217 b 483 222 504 217 494 219 b 453 229 474 224 463 225 b 426 246 443 232 435 239 b 401 264 418 251 408 257 b 382 290 394 272 389 281 b 364 317 376 299 368 307 b 353 347 358 326 356 338 b 343 378 349 357 346 368 b 332 410 340 389 333 399 b 328 442 331 419 329 431 b 329 475 326 453 331 464 b 326 508 329 486 326 497 b 325 540 326 519 325 531 b 332 574 325 551 332 563 b 335 606 333 585 332 596 b 343 638 336 617 340 626 b 350 669 346 649 347 660 b 365 697 354 679 361 689 b 382 725 371 707 376 717 b 403 749 389 733 396 742 b 425 772 410 757 417 767 b 454 785 433 779 444 781 b 483 793 464 789 474 792 b 515 799 494 796 504 799 b 546 796 525 799 536 797 b 576 786 557 793 567 790 b 604 771 586 782 594 776 b 628 751 613 765 621 758 b 649 726 636 743 643 735 b 664 697 654 718 658 707 b 681 669 668 689 676 679 b 689 638 683 660 686 649 b 696 606 692 628 694 617 b 700 574 697 596 699 585 b 703 540 700 563 703 551 b 701 508 704 531 701 519 b 703 475 701 497 703 486 z m 760 414 b 735 404 751 400 743 404 b 732 410 733 404 732 407 b 732 413 732 410 732 411 b 735 418 732 415 732 418 b 758 424 742 419 749 422 b 760 414 761 425 763 417 z m 779 315 b 764 314 774 315 769 314 b 761 317 763 314 761 315 b 763 321 761 318 763 319 b 779 324 768 322 774 322 b 782 321 781 324 781 324 b 782 319 782 321 782 321 b 779 315 782 318 781 317 z m 792 586 b 772 586 785 579 782 579 b 774 594 771 588 771 594 l 790 594 b 792 586 793 594 793 589 z m 824 443 b 822 443 824 443 824 443 b 813 443 819 442 815 442 b 797 447 808 443 803 444 b 797 458 794 449 794 457 b 800 460 799 460 800 460 b 811 461 804 463 808 463 b 825 454 817 461 821 458 b 824 443 828 451 828 443 z m 842 625 b 826 614 836 621 832 618 b 824 617 825 614 824 615 b 824 619 824 618 824 618 b 825 625 824 621 824 624 b 839 633 829 628 835 631 b 843 631 840 635 842 633 b 842 625 843 628 842 625 z "},"1":{"ha":518,"x_min":0,"x_max":0,"o":"m 458 113 b 458 147 458 129 458 129 b 460 181 458 164 460 164 b 460 215 460 199 460 199 b 458 250 460 233 458 233 b 461 285 458 267 461 267 b 461 319 461 301 461 301 b 458 353 461 336 458 336 b 458 388 458 371 458 371 b 458 422 458 406 458 406 b 461 457 458 439 461 439 b 463 492 461 474 463 474 b 460 525 463 508 460 508 b 458 560 460 543 458 543 b 458 594 458 576 458 576 b 457 629 458 611 457 611 b 460 663 457 646 460 646 b 460 697 460 681 460 681 b 458 732 460 715 458 715 b 458 767 458 749 458 749 b 458 801 458 783 458 783 b 460 835 458 818 460 818 b 461 869 460 853 461 853 b 458 904 461 888 458 888 b 458 939 458 921 458 921 b 458 972 458 956 458 956 b 463 1007 458 990 463 990 b 447 1018 463 1015 454 1018 b 415 1019 431 1018 431 1019 b 383 1018 400 1019 400 1018 b 353 1021 368 1018 368 1021 b 321 1022 336 1021 336 1022 b 289 1022 306 1022 306 1022 b 258 1024 274 1022 274 1024 b 226 1021 242 1024 242 1021 b 196 1019 211 1021 211 1019 b 164 1022 179 1019 179 1022 b 132 1024 149 1022 149 1024 b 101 1022 117 1024 117 1022 b 69 1024 85 1022 85 1024 b 58 1007 63 1024 58 1015 b 58 974 58 990 58 990 b 56 939 58 957 56 957 b 58 906 56 922 58 922 b 58 872 58 889 58 889 b 56 838 58 854 56 854 b 57 804 56 821 57 821 b 69 788 57 796 63 788 b 97 790 83 788 83 790 b 126 788 113 790 113 788 b 156 792 140 788 140 792 b 183 793 169 792 169 793 b 196 776 190 793 196 785 b 196 743 196 760 196 760 b 199 710 196 726 199 726 b 197 676 199 693 197 693 b 196 643 197 660 196 660 b 196 610 196 626 196 626 b 197 576 196 593 197 593 b 197 543 197 560 197 560 b 196 510 197 526 196 526 b 197 476 196 493 197 493 b 194 443 197 460 194 460 b 194 410 194 426 194 426 b 196 376 194 393 196 393 b 196 343 196 360 196 360 b 197 310 196 326 197 326 b 197 276 197 293 197 293 b 199 243 197 260 199 260 b 200 210 199 226 200 226 b 196 176 200 193 196 193 b 196 143 196 160 196 160 b 193 110 196 126 193 126 b 197 76 193 93 197 93 b 196 43 197 60 196 60 b 194 10 196 26 194 26 b 210 -6 194 1 203 -6 b 243 -3 226 -6 226 -3 b 278 -3 261 -3 261 -3 b 311 -3 294 -3 294 -3 b 346 -4 328 -3 328 -4 b 379 -7 363 -4 363 -7 b 413 -3 396 -7 396 -3 b 447 -4 429 -3 429 -4 b 460 10 454 -4 460 1 b 458 43 460 26 458 26 b 461 78 458 61 461 61 b 458 113 461 94 458 94 z m 279 544 b 261 546 272 540 268 540 b 264 553 258 549 261 553 b 276 551 268 553 272 551 b 279 544 281 551 282 546 z m 290 685 b 269 686 283 679 276 681 b 272 693 267 689 269 693 b 289 692 278 693 283 692 b 290 685 293 692 293 686 z m 301 283 b 300 283 300 283 300 283 b 294 285 299 282 296 283 b 293 285 294 285 294 285 b 294 293 292 288 292 292 b 300 294 297 294 299 294 b 303 292 300 294 301 293 b 301 283 304 289 304 286 z m 272 882 b 296 889 258 899 288 890 b 314 888 301 889 310 890 b 317 881 315 886 317 883 b 313 874 317 878 315 875 b 272 882 303 867 279 874 z m 336 613 b 318 613 331 613 324 613 b 314 617 315 613 314 615 b 317 621 314 619 315 621 b 336 622 324 621 329 622 b 340 619 338 624 340 621 b 340 617 340 618 340 617 b 336 613 340 614 339 613 z m 351 786 b 326 799 339 786 331 788 b 329 804 325 801 326 804 b 354 792 342 806 349 801 b 351 786 356 790 354 786 z m 367 461 b 364 458 365 460 365 460 b 356 464 361 458 354 463 b 357 469 356 465 356 468 b 367 474 358 474 363 475 b 367 461 372 471 372 464 z "},"2":{"ha":878,"x_min":0,"x_max":0,"o":"m 568 278 b 592 303 579 290 581 290 b 617 326 604 315 606 314 b 639 354 629 339 628 342 b 664 378 650 367 653 365 b 686 404 672 386 679 396 b 708 431 694 413 701 422 b 728 460 715 440 721 450 b 750 486 735 469 743 476 b 764 518 757 496 758 508 b 783 547 771 528 778 536 b 799 578 789 557 794 567 b 806 613 803 589 801 601 b 817 646 808 624 815 633 b 822 681 819 657 821 668 b 822 715 824 692 822 703 b 818 747 822 726 819 738 b 819 781 818 758 821 771 b 810 814 817 792 814 803 b 797 843 807 824 801 833 b 785 875 793 854 790 865 b 764 900 781 885 771 890 b 744 926 758 908 753 918 b 724 950 738 933 731 943 b 696 967 715 957 704 961 b 671 989 688 974 681 983 b 642 1001 663 994 651 997 b 614 1017 632 1006 624 1013 b 582 1024 604 1019 593 1021 b 551 1035 572 1026 563 1032 b 519 1036 542 1036 531 1035 b 489 1042 510 1038 499 1042 b 457 1040 478 1043 468 1040 b 424 1042 446 1040 435 1043 b 390 1036 413 1042 401 1038 b 358 1031 379 1035 368 1033 b 325 1025 347 1028 336 1028 b 294 1013 314 1021 304 1017 b 265 996 283 1008 275 1000 b 235 982 256 990 244 988 b 206 964 225 976 215 971 b 181 942 197 957 189 950 b 157 918 172 935 164 926 b 139 889 149 910 146 897 b 121 860 132 879 126 869 b 104 829 115 850 110 840 b 89 799 99 819 93 810 b 76 768 85 789 79 779 b 67 733 72 757 69 746 b 76 718 65 726 69 719 b 106 707 92 714 92 711 b 138 700 121 701 122 704 b 167 690 151 696 151 694 b 196 679 182 685 181 683 b 226 672 211 675 211 676 b 256 661 242 668 242 665 b 286 653 271 656 271 657 b 304 663 293 651 303 656 b 314 693 307 674 310 683 b 326 724 318 704 321 714 b 342 751 331 733 335 743 b 365 772 347 760 357 765 b 388 794 374 779 379 790 b 418 804 397 800 408 803 b 450 810 428 807 439 810 b 479 801 460 810 469 804 b 507 793 489 800 499 797 b 532 775 517 789 524 782 b 550 751 539 768 546 761 b 564 724 556 743 563 735 b 564 692 567 714 564 703 b 561 661 564 682 563 671 b 554 629 558 650 558 640 b 542 600 550 619 547 610 b 526 572 538 590 532 582 b 506 547 519 564 513 557 b 489 521 500 539 496 529 b 467 497 482 513 474 506 b 446 471 456 485 457 483 b 422 447 435 458 433 460 b 399 424 411 435 410 436 b 376 399 388 411 388 411 b 356 372 365 386 367 385 b 333 347 344 360 344 360 b 308 325 322 335 319 338 b 286 300 297 313 297 313 b 268 271 275 288 279 283 b 243 249 256 258 254 261 b 218 225 232 236 229 238 b 197 199 207 213 208 211 b 175 175 186 186 186 188 b 151 150 164 163 163 163 b 132 122 140 138 143 135 b 107 100 121 111 118 113 b 85 76 96 88 96 89 b 68 51 78 68 75 60 b 56 25 61 44 56 36 b 56 24 56 25 56 25 b 63 7 56 18 58 11 b 74 3 65 4 69 3 b 104 4 85 0 93 3 b 144 6 117 6 132 6 b 178 4 161 6 161 4 b 211 6 194 4 194 6 b 243 3 226 6 226 3 b 276 6 260 3 260 6 b 310 0 293 6 293 0 b 343 4 326 0 326 4 b 375 4 358 4 358 4 b 408 1 392 4 392 1 b 442 0 425 1 425 0 b 474 3 458 0 458 3 b 507 3 490 3 490 3 b 540 1 524 3 524 1 b 574 4 557 1 557 4 b 606 1 589 4 589 1 b 639 4 622 1 622 4 b 672 3 656 4 656 3 b 706 4 689 3 689 4 b 738 0 721 4 721 0 b 771 3 754 0 754 3 b 804 4 788 3 788 4 b 817 17 811 4 817 10 b 815 50 817 33 815 33 b 819 82 815 67 819 67 b 819 115 819 99 819 99 b 814 149 819 132 814 132 b 814 181 814 165 814 165 b 818 214 814 197 818 197 b 804 231 818 222 811 231 b 772 226 789 231 789 226 b 742 228 757 226 757 228 b 711 231 726 228 726 231 b 679 231 694 231 694 231 b 649 229 664 231 664 229 b 617 225 633 229 633 225 b 586 225 601 225 601 225 b 556 229 571 225 571 229 b 547 250 543 229 539 242 b 568 278 558 263 556 265 z m 275 157 b 268 156 274 156 271 156 b 264 158 267 156 264 157 b 264 160 264 160 264 160 b 268 164 264 163 265 164 b 275 164 269 164 272 164 b 275 157 279 164 281 157 z m 340 101 b 325 94 339 96 335 92 b 325 100 322 94 322 99 b 338 106 329 101 333 104 b 340 101 340 107 342 104 z m 385 181 b 340 156 382 169 379 168 b 336 160 338 156 335 157 b 381 186 336 183 344 188 b 385 181 383 185 385 183 z m 403 246 b 400 243 403 244 401 243 l 363 243 b 361 249 360 243 358 247 b 401 254 374 257 388 257 b 403 251 403 254 403 253 b 403 246 403 249 403 247 z m 642 90 b 614 90 632 83 625 79 b 615 94 614 92 614 94 l 642 94 b 642 90 643 94 644 90 z m 611 150 b 615 151 613 150 614 150 b 617 143 621 151 622 144 b 613 143 615 143 614 143 b 611 150 607 142 607 150 z m 503 321 b 514 317 507 319 511 318 b 517 314 515 317 517 315 b 515 311 517 313 515 311 b 499 311 510 308 504 308 b 497 311 499 311 499 311 b 503 321 489 318 494 325 z m 444 238 b 476 243 454 242 465 244 b 492 228 485 242 494 235 b 490 225 492 228 492 226 b 454 221 485 219 463 219 b 444 238 442 221 426 226 z m 526 114 b 510 121 522 103 501 108 b 526 114 514 131 529 124 z m 558 174 b 558 169 558 172 560 171 b 556 168 558 168 557 168 b 553 168 554 168 554 168 b 540 168 549 168 544 168 b 521 171 533 168 528 171 b 497 165 513 171 504 168 b 488 160 494 163 492 161 b 461 158 479 156 471 158 b 439 156 454 157 446 154 b 438 157 438 156 438 157 b 436 158 436 157 436 158 b 438 167 436 161 436 164 b 439 169 438 168 439 168 b 468 172 447 175 458 172 b 499 181 478 172 489 176 b 513 185 503 182 507 185 b 539 183 521 188 531 185 b 558 174 546 182 553 181 z m 546 383 b 544 383 546 383 544 383 b 539 385 543 382 540 383 b 540 393 536 388 538 392 b 544 394 542 393 543 394 b 547 392 546 394 546 393 b 546 383 549 389 549 385 z "},"3":{"ha":932,"x_min":0,"x_max":0,"o":"m 874 381 b 871 413 874 392 872 403 b 861 444 869 425 864 435 b 854 476 860 456 857 467 b 843 508 850 488 847 499 b 825 535 838 518 831 526 b 807 563 818 544 814 554 b 786 589 800 571 794 581 b 763 610 779 596 771 604 b 733 626 754 617 743 619 b 706 640 725 632 715 635 b 676 653 696 644 686 649 b 646 661 665 656 656 658 b 639 685 636 664 633 676 b 657 714 649 699 647 700 b 676 740 667 728 667 726 b 694 769 686 754 685 756 b 715 796 704 782 706 782 b 735 824 725 808 725 810 b 757 849 744 836 747 835 b 774 878 767 861 764 864 b 793 906 783 890 782 892 b 813 932 803 918 803 918 b 832 958 822 946 822 946 b 851 986 842 972 842 972 b 874 1011 861 1000 864 997 b 868 1025 881 1018 875 1025 b 836 1026 851 1025 851 1026 b 803 1026 819 1026 819 1026 b 771 1022 788 1026 788 1022 b 739 1024 754 1022 754 1024 b 707 1025 722 1024 722 1025 b 674 1028 690 1025 690 1028 b 642 1026 658 1028 658 1026 b 610 1022 625 1026 625 1022 b 576 1024 593 1022 593 1024 b 544 1024 561 1024 561 1024 b 513 1025 528 1024 528 1025 b 479 1025 496 1025 496 1025 b 447 1024 464 1025 464 1024 b 415 1025 432 1024 432 1025 b 383 1025 399 1025 399 1025 b 350 1025 367 1025 367 1025 b 318 1022 335 1025 335 1022 b 286 1022 301 1022 301 1022 b 253 1025 269 1022 269 1025 b 221 1026 238 1025 238 1026 b 189 1022 204 1026 204 1022 b 157 1022 172 1022 172 1022 b 142 1011 149 1022 142 1018 b 144 976 142 993 144 993 b 142 943 144 960 142 960 b 143 908 142 926 143 926 b 146 875 143 892 146 892 b 146 842 146 858 146 858 b 144 807 146 824 144 824 b 157 792 144 800 149 792 b 190 793 174 792 174 793 b 225 796 207 793 207 796 b 258 794 242 796 242 794 b 293 792 276 794 276 792 b 328 796 310 792 310 796 b 361 796 344 796 344 796 b 396 790 379 796 379 790 b 431 790 413 790 413 790 b 464 794 447 790 447 794 b 474 776 472 794 478 783 b 454 749 464 763 464 763 b 435 719 444 735 444 735 b 415 692 425 706 425 706 b 394 664 406 678 404 678 b 372 638 385 649 382 651 b 351 610 363 622 361 624 b 338 578 342 594 347 592 b 315 550 326 563 325 565 b 294 524 306 536 304 538 b 278 493 285 508 288 507 b 293 476 269 479 279 472 b 319 488 301 479 310 485 b 349 497 329 490 339 496 b 378 499 357 499 368 497 b 407 503 388 500 397 501 b 438 504 417 503 426 504 b 468 501 447 504 458 503 b 499 494 479 500 489 496 b 529 486 510 492 519 490 b 557 472 539 482 549 479 b 582 451 567 467 575 460 b 594 422 589 443 590 432 b 606 392 599 413 603 403 b 610 360 607 381 610 371 b 608 324 610 347 610 335 b 597 289 606 311 601 299 b 576 260 592 278 583 268 b 547 240 568 251 557 247 b 515 228 538 235 526 232 b 482 218 506 224 494 219 b 449 214 472 217 460 214 b 418 219 438 214 428 218 b 386 222 407 221 396 219 b 360 238 376 225 368 233 b 333 254 350 243 340 247 b 311 276 325 261 318 268 b 290 300 304 285 296 292 b 275 328 285 308 281 318 b 257 331 272 335 263 335 b 226 321 243 324 240 328 b 201 301 214 314 215 308 b 174 289 188 294 188 296 b 146 274 160 282 160 282 b 117 261 132 267 131 269 b 90 244 104 254 104 253 b 64 228 78 238 78 236 b 57 210 58 225 54 217 b 74 181 63 200 68 190 b 93 154 79 172 86 163 b 114 128 99 144 107 136 b 139 107 121 119 131 114 b 164 86 147 99 156 93 b 188 63 172 79 179 68 b 217 47 197 56 207 53 b 244 29 226 42 235 35 b 275 17 254 25 265 21 b 307 10 285 13 296 13 b 338 -1 317 6 326 1 b 369 -7 349 -3 358 -6 b 401 -14 379 -8 390 -12 b 433 -18 411 -15 422 -18 b 465 -15 444 -19 454 -15 b 497 -14 476 -15 488 -15 b 529 -11 508 -14 519 -12 b 561 -11 540 -10 551 -14 b 592 0 572 -10 582 -1 b 624 4 601 3 614 1 b 651 19 633 7 642 15 b 683 26 663 24 674 22 b 711 43 693 32 703 38 b 738 61 721 49 729 56 b 764 81 747 68 756 74 b 783 107 772 89 776 100 b 807 131 792 115 800 122 b 825 158 814 139 819 149 b 842 186 831 167 836 176 b 856 217 846 196 851 206 b 865 247 860 226 863 238 b 872 281 868 258 871 269 b 874 314 875 292 874 303 b 872 347 875 325 872 336 b 874 381 872 358 875 369 z m 358 907 b 354 907 357 907 356 907 b 349 913 351 906 347 910 b 350 917 349 914 349 915 b 358 922 350 921 354 924 l 360 922 b 358 907 368 921 368 908 z m 514 922 b 524 926 514 928 519 929 b 525 926 524 926 525 926 b 526 917 528 925 528 921 b 522 913 525 915 524 914 b 514 918 521 913 515 915 b 514 922 514 919 514 921 z m 508 565 b 488 564 501 565 496 564 b 483 574 482 563 479 571 b 511 576 493 581 501 583 b 508 565 517 574 514 567 z m 531 664 b 529 664 531 664 529 664 b 524 665 528 663 525 663 b 525 674 521 668 521 671 b 529 674 526 674 528 675 b 532 672 531 674 531 674 b 531 664 533 669 533 665 z m 529 828 b 496 833 518 828 503 828 b 499 840 493 836 494 840 b 535 840 511 840 524 840 b 536 839 536 840 536 839 b 529 828 538 833 535 828 z m 503 113 b 489 104 499 110 494 106 b 482 113 488 104 482 110 b 483 121 482 115 483 118 b 496 124 486 126 492 128 b 503 113 500 117 503 114 z m 596 154 b 583 153 592 154 588 153 b 581 163 579 153 576 160 b 597 164 588 168 592 168 b 596 154 603 161 600 154 z m 557 586 b 558 592 558 588 558 589 b 569 594 560 596 565 597 b 569 582 575 592 574 585 b 567 581 568 582 567 581 b 557 586 564 581 557 585 z m 604 533 b 571 517 596 521 586 515 b 565 525 567 517 564 521 b 600 543 572 540 583 543 b 604 533 604 543 607 538 z m 626 882 b 606 885 619 883 613 883 b 603 896 600 885 599 892 b 632 893 614 904 618 904 b 626 882 636 889 633 881 z "},"4":{"ha":981,"x_min":0,"x_max":0,"o":"m 924 221 b 921 251 924 236 921 236 b 925 283 921 268 925 268 b 921 315 925 300 921 300 b 925 347 921 331 925 331 b 921 378 925 363 921 363 b 910 393 921 386 917 393 b 881 393 896 393 896 393 b 853 390 867 393 867 390 b 824 390 838 390 838 390 b 811 406 817 390 811 399 b 810 439 811 422 810 422 b 813 472 810 456 813 456 b 811 507 813 490 811 490 b 813 540 811 524 813 524 b 811 574 813 557 811 557 b 810 607 811 590 810 590 b 813 640 810 624 813 624 b 813 674 813 657 813 657 b 810 707 813 690 810 690 b 808 740 810 724 808 724 b 810 775 808 758 810 758 b 811 808 810 792 811 792 b 808 842 811 825 808 825 b 808 875 808 858 808 858 b 810 908 808 892 810 892 b 808 942 810 925 808 925 b 808 975 808 958 808 958 b 810 1008 808 992 810 992 b 797 1025 810 1017 804 1025 b 765 1021 781 1025 781 1021 b 735 1025 750 1021 750 1025 b 703 1022 718 1025 718 1022 b 671 1022 688 1022 688 1022 b 640 1024 656 1022 656 1024 b 608 1019 625 1024 625 1019 b 578 1021 593 1019 593 1021 b 546 1024 561 1021 561 1024 b 538 1017 542 1024 540 1019 b 518 990 528 1003 528 1003 b 494 967 507 976 504 979 b 476 939 483 953 486 951 b 457 913 467 925 467 925 b 439 885 447 899 449 897 b 417 860 429 871 426 874 b 397 833 407 847 407 847 b 378 807 386 821 388 819 b 360 779 368 793 369 792 b 338 754 350 767 347 768 b 318 728 328 742 328 740 b 299 701 308 714 308 714 b 279 675 289 688 289 689 b 258 650 268 663 268 663 b 238 624 249 636 247 638 b 217 599 228 611 226 613 b 197 572 207 586 208 585 b 182 543 188 558 192 556 b 160 518 171 529 169 531 b 142 490 150 504 151 504 b 119 467 132 478 129 479 b 99 440 110 453 108 454 b 78 415 88 428 88 428 b 63 385 68 401 72 399 b 60 378 61 383 60 382 b 57 347 60 363 57 363 b 56 315 57 331 56 331 b 60 283 56 300 60 300 b 60 251 60 268 60 268 b 58 221 60 236 58 236 b 60 189 58 204 60 204 b 71 174 60 181 64 174 b 103 176 86 174 86 176 b 135 172 118 176 118 172 b 165 178 150 172 150 178 b 197 174 182 178 182 174 b 229 174 213 174 213 174 b 261 175 244 174 244 175 b 292 172 276 175 276 172 b 324 172 308 172 308 172 b 356 178 340 172 340 178 b 388 172 371 178 371 172 b 418 172 403 172 403 172 b 450 178 435 172 435 178 b 482 176 467 178 467 176 b 514 174 497 176 497 174 b 544 174 529 174 529 174 b 558 161 553 174 558 169 b 561 124 558 143 561 143 b 561 86 561 104 561 104 b 561 49 561 67 561 67 b 560 11 561 29 560 29 b 571 -3 560 3 564 -3 b 604 -1 588 -3 588 -1 b 636 -1 619 -1 619 -1 b 668 -4 651 -1 651 -4 b 700 -1 685 -4 685 -1 b 732 -4 717 -1 717 -4 b 765 -4 749 -4 749 -4 b 797 -6 781 -4 781 -6 b 813 11 804 -6 813 3 b 808 49 813 29 808 29 b 810 86 808 67 810 67 b 811 124 810 104 811 104 b 813 161 811 143 813 143 b 824 174 813 169 817 174 b 853 176 838 174 838 176 b 881 174 867 176 867 174 b 910 178 896 174 896 178 b 925 189 917 178 925 181 b 924 221 925 204 924 204 z m 281 351 b 260 340 276 343 269 340 b 257 346 258 342 257 343 b 278 357 261 356 268 357 b 281 351 281 356 282 353 z m 411 263 b 401 268 407 261 403 264 b 411 278 400 274 406 279 b 413 278 413 278 413 278 b 411 263 421 275 419 263 z m 519 325 b 507 319 515 321 511 321 b 499 317 504 318 501 318 b 492 315 497 315 493 313 b 493 328 489 318 492 325 b 499 331 494 331 497 331 b 513 331 504 331 508 331 b 521 332 515 331 518 332 b 519 325 525 331 521 326 z m 556 406 b 544 394 556 399 553 394 b 513 390 529 394 529 390 b 481 392 497 390 497 392 b 449 393 464 392 464 393 b 415 394 432 393 432 394 b 383 392 400 394 400 392 b 351 389 367 392 367 389 b 339 415 340 389 332 407 b 358 442 349 429 349 429 b 378 467 368 454 368 454 b 399 492 388 479 389 479 b 417 518 408 504 407 506 b 436 544 426 531 426 532 b 457 568 446 557 447 556 b 475 596 467 582 465 583 b 497 619 485 608 488 607 b 515 646 507 632 506 632 b 536 669 525 658 526 657 b 556 663 544 681 556 676 b 561 631 556 647 561 647 b 558 599 561 615 558 615 b 557 567 558 583 557 583 b 558 535 557 550 558 550 b 556 503 558 518 556 518 b 557 471 556 486 557 486 b 561 438 557 454 561 454 b 556 406 561 422 556 422 z m 594 267 b 569 253 593 260 590 260 b 567 256 568 253 567 253 b 592 269 567 268 571 271 b 594 267 593 269 594 268 z m 708 574 b 715 574 710 574 713 574 b 715 567 721 572 721 567 b 708 565 714 565 711 565 b 704 568 707 565 704 567 b 704 569 704 569 704 569 b 708 574 704 572 706 574 z m 722 460 b 722 454 724 460 724 454 b 674 439 706 449 690 444 b 668 447 671 438 667 442 b 682 463 669 460 675 463 b 722 460 693 463 710 461 z m 665 828 b 669 828 667 828 668 828 b 671 821 675 829 675 821 b 665 819 669 821 668 819 b 665 828 661 819 660 826 z m 650 661 b 660 668 651 665 656 668 b 681 668 667 669 674 671 b 678 656 685 664 683 656 b 657 653 671 654 664 653 b 650 661 653 651 649 657 z m 632 519 b 664 525 643 525 653 531 b 664 515 668 522 667 515 b 632 515 656 513 640 514 b 632 519 631 515 631 519 z m 618 324 b 608 328 614 324 610 325 b 608 331 608 329 608 331 b 608 343 607 335 607 339 b 650 367 614 356 638 363 b 674 372 657 369 665 372 b 721 363 692 378 706 369 b 726 358 724 361 725 360 b 726 353 728 357 728 356 b 724 343 726 350 726 346 b 710 342 721 339 714 340 b 657 335 692 346 674 342 b 618 324 644 329 632 321 z m 700 174 b 676 164 690 164 683 161 b 676 171 675 165 675 169 b 699 179 681 174 690 178 b 700 174 700 181 701 175 z m 710 228 b 700 225 707 226 703 225 b 640 239 681 222 654 228 b 658 247 624 251 650 249 b 707 246 674 246 690 249 b 719 236 713 246 719 242 b 710 228 718 232 714 229 z m 744 292 b 735 289 743 288 739 288 b 693 274 719 290 707 278 b 647 283 682 271 649 264 b 651 296 646 288 649 292 b 738 304 669 317 715 315 b 742 303 739 304 740 303 b 744 300 743 301 743 300 b 744 292 746 297 747 294 z "},"5":{"ha":908,"x_min":0,"x_max":0,"o":"m 847 375 b 847 410 846 386 849 399 b 839 443 846 422 842 432 b 829 476 836 456 833 467 b 814 508 825 488 819 499 b 796 538 808 518 801 528 b 775 564 789 546 783 556 b 750 588 768 572 758 579 b 724 608 742 594 733 601 b 697 629 715 614 707 624 b 667 644 688 635 678 640 b 635 654 657 649 646 651 b 603 661 625 658 614 660 b 569 667 592 664 581 665 b 538 671 560 668 549 671 b 504 676 526 672 515 676 b 471 674 493 678 482 674 b 439 679 460 674 449 679 b 407 671 426 678 417 672 b 376 667 394 669 385 669 b 361 681 368 664 361 671 b 360 713 361 696 360 696 b 363 744 360 728 363 728 b 357 776 363 760 357 760 b 372 790 357 783 365 790 b 404 793 388 790 388 793 b 435 788 419 793 419 788 b 467 793 451 788 451 793 b 499 792 482 793 482 792 b 529 786 514 792 514 786 b 561 793 546 786 546 793 b 593 790 576 793 576 790 b 624 786 608 790 608 786 b 656 790 640 786 640 790 b 688 792 671 790 671 792 b 718 790 703 792 703 790 b 750 788 735 790 735 788 b 765 804 757 788 765 796 b 760 838 765 821 760 821 b 765 871 760 854 765 854 b 760 906 765 889 760 889 b 761 939 760 922 761 922 b 764 974 761 956 764 956 b 763 1007 764 990 763 990 b 750 1024 763 1014 757 1024 b 717 1024 733 1024 733 1024 b 683 1018 700 1024 700 1018 b 651 1022 668 1018 668 1022 b 618 1019 635 1022 635 1019 b 585 1021 601 1019 601 1021 b 553 1019 568 1021 568 1019 b 519 1024 536 1019 536 1024 b 486 1022 503 1024 503 1022 b 453 1021 469 1022 469 1021 b 421 1022 438 1021 438 1022 b 388 1024 404 1022 404 1024 b 354 1022 371 1024 371 1022 b 322 1024 338 1022 338 1024 b 289 1022 306 1024 306 1022 b 256 1018 272 1022 272 1018 b 222 1022 239 1018 239 1022 b 190 1024 207 1022 207 1024 b 157 1019 174 1024 174 1019 b 146 1007 150 1019 146 1014 b 147 974 146 990 147 990 b 144 939 147 957 144 957 b 142 906 144 922 142 922 b 142 872 142 889 142 889 b 144 839 142 856 144 856 b 142 804 144 822 142 822 b 140 771 142 788 140 788 b 142 738 140 754 142 754 b 146 704 142 721 146 721 b 144 669 146 688 144 688 b 140 636 144 653 140 653 b 143 603 140 619 143 619 b 140 569 143 586 140 586 b 144 536 140 553 144 553 b 146 501 144 518 146 518 b 144 468 146 485 144 485 b 142 435 144 451 142 451 b 143 401 142 418 143 418 b 164 396 143 388 149 385 b 192 413 172 401 182 407 b 222 425 200 418 211 419 b 250 440 231 429 239 436 b 282 447 260 444 271 444 b 313 454 292 450 301 451 b 343 464 322 457 332 463 b 375 467 354 465 364 467 b 407 467 386 468 396 467 b 438 467 418 467 428 468 b 468 467 449 467 458 468 b 497 456 479 465 488 458 b 525 444 508 453 517 449 b 551 428 535 439 544 435 b 571 401 558 419 567 413 b 578 371 575 393 576 382 b 583 339 581 361 583 350 b 579 307 583 328 582 317 b 565 278 576 296 569 288 b 547 254 560 268 554 261 b 524 235 540 246 532 239 b 496 221 515 229 506 225 b 465 218 486 218 475 219 b 435 214 456 217 446 214 b 401 215 424 214 413 214 b 369 225 390 218 379 221 b 340 240 360 229 350 235 b 314 261 331 246 322 254 b 290 285 306 268 297 276 b 272 313 283 293 276 303 b 254 314 268 318 260 317 b 225 301 240 306 238 310 b 199 286 211 294 211 293 b 171 271 185 278 185 278 b 143 256 157 263 157 264 b 119 236 131 247 132 243 b 92 219 106 228 106 228 b 64 207 79 213 78 215 b 57 188 57 203 54 193 b 75 158 63 178 68 168 b 96 132 81 149 89 142 b 117 106 103 124 108 114 b 139 82 124 97 131 89 b 165 63 147 75 157 68 b 194 44 175 56 185 50 b 221 26 203 39 211 31 b 253 15 231 21 242 19 b 282 1 263 11 272 6 b 314 -7 293 -1 303 -4 b 346 -11 324 -10 335 -10 b 379 -15 357 -12 368 -14 b 411 -17 389 -17 400 -17 b 443 -22 421 -18 432 -22 b 476 -17 454 -22 465 -18 b 510 -17 488 -17 499 -17 b 543 -14 521 -15 532 -15 b 575 -6 554 -11 565 -7 b 608 4 586 -3 597 1 b 640 14 618 8 629 10 b 671 29 650 18 661 24 b 700 46 681 35 690 39 b 726 67 710 51 718 60 b 753 89 735 74 744 81 b 775 115 761 96 768 106 b 794 143 782 124 788 133 b 810 174 800 153 804 164 b 828 204 815 183 824 193 b 836 238 832 214 833 226 b 844 271 839 249 842 260 b 849 306 846 282 847 294 b 853 340 850 317 853 329 b 847 375 853 353 847 364 z m 296 703 b 297 694 299 703 300 696 b 278 694 289 688 285 688 b 279 703 276 697 276 703 z m 271 825 b 276 826 274 825 275 826 b 279 824 276 825 278 825 b 278 815 281 821 281 817 b 276 815 276 815 276 815 b 271 817 275 814 272 814 b 271 825 268 819 268 822 z m 228 739 b 231 742 228 742 229 743 b 244 733 235 739 240 736 b 246 728 246 732 247 729 b 246 725 246 726 246 726 b 243 722 246 724 244 722 b 229 733 238 726 233 729 b 228 739 228 733 226 736 z m 272 556 b 257 551 268 553 263 551 b 247 551 254 550 250 550 b 246 551 247 551 246 551 b 244 563 243 551 242 560 b 258 569 249 567 253 569 b 269 569 263 571 265 571 b 272 567 269 568 271 568 b 272 556 275 565 275 557 z m 303 619 b 294 618 300 619 297 619 b 254 625 283 613 267 615 b 239 624 249 628 243 628 b 218 622 232 617 225 617 b 219 633 215 624 217 632 b 285 636 240 644 263 635 b 304 631 292 638 299 636 b 303 619 307 628 306 618 z m 631 238 b 628 233 629 235 628 233 b 624 239 626 235 625 238 b 625 243 624 240 624 243 b 628 244 626 244 626 244 b 629 244 628 246 629 244 b 632 242 631 243 631 242 b 631 238 632 240 632 239 z m 701 497 b 726 506 710 510 718 507 b 729 501 728 506 729 504 b 729 499 729 500 729 500 b 728 492 731 496 729 492 b 704 486 719 490 713 489 b 701 497 700 486 699 493 z m 640 533 b 644 539 640 538 642 539 b 658 538 649 539 653 538 b 661 531 660 536 661 533 b 657 525 661 528 660 525 b 643 526 653 526 649 526 b 640 533 642 526 640 529 z m 674 288 l 653 288 b 651 297 650 288 649 294 b 675 297 660 304 664 304 b 674 288 679 296 678 288 z m 703 375 b 692 382 697 372 686 375 b 707 382 696 389 704 386 b 703 375 708 379 707 376 z m 742 301 b 725 297 733 296 731 294 b 724 307 722 297 722 304 b 742 313 731 314 736 315 b 742 301 744 311 744 303 z "},"6":{"ha":925,"x_min":0,"x_max":0,"o":"m 868 360 b 868 394 868 371 868 382 b 863 429 867 406 865 417 b 851 461 861 440 856 450 b 842 494 849 472 846 483 b 829 526 836 504 835 517 b 811 556 824 536 817 546 b 792 583 804 565 799 575 b 767 607 785 593 775 599 b 742 629 758 615 750 622 b 715 651 732 636 725 646 b 686 668 707 658 697 664 b 656 681 676 674 667 676 b 625 696 646 685 636 692 b 593 703 615 699 604 700 b 560 708 582 704 571 707 b 526 710 549 710 538 708 b 493 714 515 710 504 714 b 482 732 482 713 476 724 b 500 760 492 746 490 746 b 519 785 508 774 510 772 b 536 813 528 799 528 799 b 553 839 546 825 544 826 b 569 867 563 853 561 854 b 588 893 579 881 579 881 b 606 921 597 907 597 907 b 625 946 614 933 617 932 b 644 971 633 960 636 958 b 660 1000 654 985 650 988 b 651 1022 665 1010 661 1022 b 617 1018 633 1022 633 1018 b 582 1021 600 1018 600 1021 b 549 1024 565 1021 565 1024 b 514 1022 531 1024 531 1022 b 479 1022 497 1022 497 1022 b 446 1022 463 1022 463 1022 b 411 1019 428 1022 428 1019 b 400 1015 407 1019 403 1018 b 381 989 390 1001 389 1003 b 364 961 371 975 372 975 b 349 932 354 947 357 944 b 326 907 339 918 336 921 b 311 879 318 893 319 892 b 290 853 301 865 300 867 b 274 826 282 840 282 839 b 257 797 264 813 267 811 b 239 771 249 783 249 783 b 219 744 231 757 228 758 b 200 719 210 732 208 732 b 185 689 190 706 194 703 b 164 664 176 676 174 678 b 144 639 156 651 154 651 b 129 608 139 629 135 618 b 115 578 122 600 119 588 b 99 550 110 568 103 560 b 83 519 93 539 88 529 b 76 486 79 508 79 497 b 68 454 72 475 69 465 b 57 421 65 443 60 432 b 57 388 56 410 58 399 b 56 353 56 376 56 365 b 57 321 56 342 57 332 b 60 288 58 310 58 299 b 67 254 63 276 64 265 b 81 225 69 244 78 236 b 94 196 85 215 89 206 b 108 167 99 186 103 175 b 124 138 114 157 118 146 b 147 114 131 129 140 122 b 171 92 154 107 163 100 b 193 68 178 85 185 75 b 219 51 201 63 211 57 b 247 35 228 46 238 39 b 275 19 256 29 265 24 b 304 7 285 15 294 11 b 333 -6 314 3 324 -3 b 365 -10 343 -8 354 -8 b 396 -17 375 -12 385 -15 b 428 -21 407 -18 417 -21 b 460 -19 438 -22 449 -19 b 492 -19 469 -19 481 -19 b 524 -18 503 -18 514 -19 b 556 -11 535 -17 544 -12 b 588 -6 565 -8 576 -8 b 618 6 597 -3 607 3 b 647 19 628 10 638 14 b 675 35 657 24 667 31 b 704 49 685 40 696 43 b 732 68 714 56 724 61 b 754 93 740 75 746 85 b 779 114 761 100 772 106 b 796 142 786 122 790 133 b 818 167 803 151 813 157 b 833 197 825 176 829 186 b 847 228 839 207 843 217 b 854 261 851 238 851 250 b 864 293 857 271 863 282 b 869 325 865 303 869 314 b 868 360 871 336 868 349 z m 228 507 b 232 497 231 510 235 503 b 228 507 225 486 217 497 z m 235 332 b 232 329 235 331 233 329 b 222 331 229 329 225 329 b 221 333 221 331 221 332 b 221 335 221 335 221 335 b 222 338 221 336 222 338 b 232 336 226 338 229 336 b 235 332 233 336 235 335 z m 593 529 b 604 533 594 533 600 535 b 604 521 608 531 608 524 b 600 519 603 519 601 519 b 592 524 599 518 592 522 b 593 529 592 526 593 528 z m 538 610 b 542 599 540 608 543 603 b 533 593 540 593 536 592 b 538 610 529 596 533 611 z m 419 822 b 419 824 419 822 419 824 b 424 826 421 825 422 828 b 438 821 429 825 433 824 b 438 817 439 821 439 818 b 433 813 436 814 435 813 b 419 818 429 814 424 815 b 419 822 418 818 418 821 z m 385 617 b 400 625 390 621 394 625 b 421 618 406 625 415 622 b 418 604 425 614 424 604 b 386 607 407 604 396 606 b 385 617 382 607 381 615 z m 367 708 b 381 706 375 710 378 710 b 376 696 382 703 379 697 b 361 700 369 693 365 694 b 367 708 360 701 364 708 z m 339 639 b 358 643 344 640 351 642 b 361 632 363 644 365 635 b 339 626 354 625 346 626 b 336 632 338 626 336 629 b 339 639 335 636 336 639 z m 329 576 b 333 579 331 579 332 581 b 342 574 336 578 339 575 b 342 568 343 572 343 571 b 342 567 342 568 342 568 b 338 565 340 565 338 564 b 329 571 335 567 332 569 b 329 576 328 572 328 575 z m 261 561 b 258 563 260 560 258 561 b 253 572 257 565 254 569 b 254 578 253 574 253 576 b 258 583 256 579 257 581 b 261 582 260 583 261 583 b 267 572 264 579 267 575 b 261 561 265 568 264 565 z m 263 654 b 263 658 263 654 263 657 b 264 661 264 660 264 660 b 268 664 265 663 267 664 b 286 660 274 663 279 661 b 283 651 288 658 286 653 b 263 654 272 644 268 650 z m 306 475 b 306 474 306 475 306 475 b 299 467 304 471 301 467 b 278 468 292 468 285 468 b 276 475 275 469 275 472 b 283 482 278 479 281 482 b 304 482 290 482 297 482 b 306 475 307 482 307 479 z m 606 324 b 594 290 603 313 599 301 b 576 260 590 279 583 269 b 553 235 569 251 561 242 b 522 219 544 228 533 224 b 492 206 513 214 503 207 b 458 203 481 203 469 203 b 425 208 446 203 435 206 b 392 215 413 210 401 211 b 364 236 382 221 372 228 b 342 263 354 243 349 253 b 322 292 335 271 328 281 b 314 325 318 301 317 314 b 310 360 311 336 310 347 b 311 394 310 371 310 383 b 321 429 314 407 315 418 b 340 458 325 440 333 449 b 364 483 347 468 356 476 b 390 506 372 490 381 500 b 425 513 401 510 413 510 b 458 521 435 514 446 521 b 492 513 469 521 481 514 b 524 503 503 510 514 507 b 551 483 533 497 543 490 b 578 460 561 476 571 469 b 593 428 585 451 588 439 b 601 394 597 418 599 406 b 608 360 603 383 608 371 b 606 324 608 347 607 336 z "},"7":{"ha":915,"x_min":0,"x_max":0,"o":"m 854 1025 b 822 1025 838 1025 838 1025 b 789 1021 806 1025 806 1021 b 757 1024 772 1021 772 1024 b 724 1026 740 1024 740 1026 b 692 1024 707 1026 707 1024 b 658 1021 675 1024 675 1021 b 626 1021 642 1021 642 1021 b 593 1024 610 1021 610 1024 b 561 1025 578 1024 578 1025 b 528 1022 544 1025 544 1022 b 496 1022 513 1022 513 1022 b 463 1024 479 1022 479 1024 b 431 1019 447 1024 447 1019 b 397 1022 414 1019 414 1022 b 365 1024 382 1022 382 1024 b 332 1025 349 1024 349 1025 b 300 1024 317 1025 317 1024 b 267 1024 283 1024 283 1024 b 235 1021 251 1024 251 1021 b 201 1025 218 1021 218 1025 b 169 1021 186 1025 186 1021 b 138 1022 153 1021 153 1022 b 104 1025 121 1022 121 1025 b 72 1024 88 1025 88 1024 b 56 1010 64 1024 56 1017 b 60 975 56 992 60 992 b 57 942 60 958 57 958 b 60 908 57 925 60 925 b 56 874 60 890 56 890 b 60 840 56 857 60 857 b 60 806 60 824 60 824 b 72 792 60 799 64 792 b 104 794 89 792 89 794 b 138 794 121 794 121 794 b 171 793 154 794 154 793 b 204 793 188 793 188 793 b 238 793 221 793 221 793 b 271 792 254 793 254 792 b 304 792 288 792 288 792 b 336 794 319 792 319 794 b 369 792 353 794 353 792 b 403 790 386 792 386 790 b 436 792 419 790 419 792 b 469 792 453 792 453 792 b 482 772 479 792 486 782 b 468 743 475 757 475 757 b 453 713 461 728 460 728 b 442 682 446 697 449 697 b 428 651 435 667 435 667 b 414 622 422 636 419 638 b 399 592 407 607 406 607 b 386 561 393 576 393 576 b 372 532 379 546 378 547 b 363 500 365 517 369 514 b 349 469 356 485 354 485 b 331 442 342 454 338 457 b 318 411 324 426 325 426 b 307 379 311 396 314 394 b 294 349 300 364 301 364 b 281 319 288 333 286 335 b 267 289 274 304 274 304 b 251 260 260 274 258 274 b 238 229 244 244 244 244 b 224 200 231 214 231 215 b 211 168 217 185 218 183 b 200 138 204 154 207 153 b 186 107 193 122 193 122 b 169 78 181 92 176 93 b 161 46 163 64 168 61 b 147 15 154 31 154 31 b 157 -3 143 7 147 -3 b 189 -6 172 -3 172 -6 b 219 0 204 -6 204 0 b 250 -1 235 0 235 -1 b 282 -6 267 -1 267 -6 b 313 -6 297 -6 297 -6 b 344 -1 328 -6 328 -1 b 375 -1 360 -1 360 -1 b 406 -6 390 -1 390 -6 b 415 7 411 -6 414 1 b 433 35 422 21 426 19 b 444 67 440 50 438 51 b 456 97 451 82 450 82 b 474 125 463 113 467 110 b 482 158 481 140 475 143 b 497 188 489 174 490 172 b 511 218 504 203 504 203 b 525 249 517 233 518 233 b 538 279 532 264 531 264 b 551 308 544 294 546 293 b 563 340 558 324 557 325 b 578 369 569 356 571 354 b 593 400 583 385 586 385 b 607 429 599 414 600 414 b 618 461 614 444 611 446 b 631 492 625 476 624 476 b 642 522 638 507 636 507 b 656 553 649 538 649 538 b 669 583 663 568 663 568 b 685 613 676 599 679 597 b 700 642 692 628 693 626 b 713 672 707 657 706 657 b 728 701 719 688 721 688 b 740 732 735 717 733 718 b 751 764 747 747 744 749 b 764 794 758 779 757 779 b 778 825 771 810 772 810 b 794 854 785 840 788 839 b 806 885 801 869 800 869 b 819 915 813 900 813 900 b 835 944 826 931 828 929 b 847 975 842 960 840 960 b 857 1007 854 990 850 992 b 854 1025 863 1021 861 1025 z m 378 858 b 371 858 375 857 374 856 b 367 861 369 858 368 860 b 368 868 365 864 365 867 b 374 869 371 869 372 869 b 379 865 376 869 378 868 b 378 858 382 864 381 860 z m 499 558 b 503 554 500 558 503 557 b 499 549 503 551 501 549 b 499 558 499 549 492 556 z m 503 494 b 500 492 503 493 501 492 b 496 493 499 490 497 492 b 496 497 496 494 494 496 b 497 499 496 497 497 499 b 500 500 499 500 499 500 b 503 499 501 499 501 499 b 503 494 504 497 504 496 z m 521 915 b 500 914 517 901 508 907 b 500 918 499 915 500 918 b 519 922 500 918 513 921 b 521 915 521 922 522 918 z m 635 860 b 638 864 635 863 636 864 b 646 851 643 863 646 860 b 639 843 646 849 640 843 b 635 860 633 846 633 853 z m 565 910 b 581 904 569 918 583 913 b 565 910 576 893 557 897 z m 553 588 b 553 586 553 586 553 586 b 550 588 551 586 550 586 b 549 589 549 588 549 588 b 549 593 547 590 547 593 b 550 594 550 594 550 594 b 553 593 551 594 553 593 b 553 588 554 592 554 588 z m 535 811 b 535 822 532 814 532 821 b 553 824 540 826 547 824 b 574 833 560 825 567 822 b 593 832 578 842 586 843 b 592 822 594 828 593 822 b 535 811 557 804 546 801 z m 590 682 l 572 682 b 571 692 568 682 568 689 b 589 697 576 697 581 699 b 593 690 590 696 592 694 b 590 682 594 688 593 682 z m 601 558 b 597 558 600 558 599 558 b 597 561 597 558 597 560 b 600 565 597 564 599 565 b 601 565 600 565 601 565 b 604 561 603 565 604 564 b 601 558 604 560 603 558 z m 671 769 b 600 763 646 744 622 761 b 597 767 599 763 597 764 b 600 774 597 769 597 772 b 608 774 603 774 606 774 b 624 774 614 774 621 769 b 669 779 639 793 653 783 b 671 769 672 778 672 771 z "},"8":{"ha":893,"x_min":0,"x_max":0,"o":"m 838 347 b 828 382 836 360 831 371 b 818 414 825 393 821 404 b 808 449 814 425 813 438 b 789 476 803 458 796 468 b 768 504 782 486 776 496 b 746 531 761 514 754 522 b 718 551 738 538 728 544 b 690 571 708 557 700 565 b 688 590 682 575 681 583 b 713 614 696 597 706 606 b 732 643 719 622 726 633 b 750 672 739 653 744 663 b 761 706 754 683 758 694 b 768 740 764 717 767 729 b 771 775 769 751 771 764 b 769 810 771 788 771 799 b 761 843 768 821 764 832 b 753 876 758 854 757 865 b 736 906 749 886 743 897 b 713 931 731 915 719 921 b 692 956 706 939 700 949 b 665 976 683 964 675 971 b 639 996 657 983 649 990 b 608 1010 629 1001 618 1004 b 578 1022 599 1014 589 1019 b 546 1028 568 1026 556 1025 b 514 1035 535 1031 524 1033 b 481 1036 503 1036 492 1035 b 449 1038 469 1036 460 1038 b 415 1038 438 1038 426 1038 b 382 1035 404 1036 393 1036 b 350 1031 371 1033 361 1032 b 318 1021 339 1028 328 1025 b 286 1011 307 1018 297 1015 b 258 994 276 1007 268 1000 b 231 976 249 989 239 983 b 203 957 221 969 211 964 b 182 931 194 949 190 939 b 163 903 175 921 168 913 b 142 876 157 894 147 886 b 132 843 138 865 135 854 b 126 810 129 832 128 821 b 125 775 124 799 125 788 b 129 740 125 764 128 753 b 132 706 131 729 129 717 b 144 672 135 694 139 683 b 163 643 149 663 157 653 b 185 617 169 633 178 626 b 208 593 192 608 200 600 b 206 568 215 586 213 572 b 175 551 194 561 183 558 b 149 531 165 544 157 538 b 126 503 140 522 133 513 b 104 476 118 494 111 486 b 83 449 97 468 89 460 b 72 415 79 439 76 426 b 65 382 68 406 68 393 b 60 347 63 371 61 360 b 58 313 58 336 58 325 b 56 278 58 301 56 289 b 61 243 57 267 58 254 b 75 213 64 232 71 222 b 83 179 78 201 79 189 b 103 150 89 168 96 160 b 122 122 108 140 115 132 b 146 99 129 114 138 107 b 167 72 153 90 158 79 b 196 54 175 65 186 60 b 224 38 204 49 214 43 b 254 22 233 32 243 26 b 286 13 264 18 275 17 b 317 0 296 10 306 3 b 349 -7 326 -3 338 -6 b 382 -12 360 -10 371 -11 b 415 -14 393 -14 404 -14 b 449 -11 425 -15 436 -11 b 481 -12 460 -11 471 -14 b 514 -12 492 -12 503 -14 b 547 -7 525 -11 536 -8 b 578 4 557 -4 568 1 b 611 10 589 6 600 7 b 642 21 621 14 632 17 b 672 35 653 25 663 29 b 701 51 682 40 692 46 b 728 72 710 58 719 65 b 751 97 736 79 743 89 b 771 124 758 106 764 115 b 793 150 778 132 788 140 b 810 179 799 160 806 168 b 822 211 815 189 818 200 b 832 244 826 222 829 233 b 833 278 835 256 832 267 b 835 313 835 290 835 301 b 838 347 835 325 839 336 z m 164 303 b 164 313 164 303 156 310 b 168 308 165 314 167 311 b 164 303 168 306 167 303 z m 206 385 b 189 392 200 385 190 386 b 189 394 189 393 189 393 b 190 396 189 394 189 394 b 192 396 190 396 190 396 b 206 396 196 397 201 396 b 218 396 210 394 214 396 b 222 396 219 397 221 397 b 206 385 231 390 208 383 z m 258 282 b 243 289 256 271 235 276 b 258 282 247 297 263 292 z m 265 492 b 264 490 265 492 264 490 b 257 476 257 488 253 483 b 249 464 258 469 254 465 b 243 467 246 464 244 464 b 235 482 240 471 238 476 b 235 488 233 483 233 486 b 260 500 242 494 250 499 b 265 492 265 501 268 496 z m 585 551 b 528 539 594 553 564 515 b 529 544 525 540 526 544 b 553 542 535 543 544 542 b 585 551 564 540 574 549 z m 582 496 b 578 496 581 494 579 494 b 578 497 578 496 578 497 b 578 503 576 499 576 501 b 579 503 579 503 579 503 b 582 501 581 503 581 501 b 582 496 583 500 583 497 z m 353 778 b 369 804 357 788 364 796 b 392 825 376 813 383 819 b 418 840 400 831 407 838 b 449 843 426 843 438 843 b 476 835 458 843 468 838 b 504 825 486 832 496 831 b 528 806 513 819 522 814 b 540 778 533 797 538 788 b 546 747 543 768 546 757 b 536 717 546 736 539 726 b 525 689 533 707 531 697 b 504 668 519 681 513 674 b 478 654 496 663 488 657 b 449 647 468 651 458 647 b 418 656 438 647 428 653 b 392 668 408 658 400 663 b 368 688 383 675 374 679 b 351 715 361 696 356 706 b 347 747 349 725 347 736 b 353 778 347 757 350 768 z m 517 633 b 517 629 517 632 517 631 b 511 625 515 626 514 624 b 499 631 507 628 503 628 b 497 639 497 631 496 635 b 499 640 497 639 499 640 l 513 640 b 517 633 515 640 517 638 z m 442 544 b 439 542 442 543 440 542 b 422 547 435 542 428 544 b 421 558 419 549 418 554 b 439 551 426 554 433 554 b 442 544 442 551 443 547 z m 364 496 b 357 489 364 492 363 489 b 349 492 353 489 350 489 b 353 501 346 496 349 500 l 360 501 b 364 496 363 500 364 497 z m 326 574 b 350 572 335 578 344 575 b 350 568 353 571 351 568 b 328 568 343 567 336 568 b 326 574 325 568 324 572 z m 299 633 b 303 642 299 636 300 640 l 306 642 b 321 633 313 647 321 642 b 318 626 321 631 319 628 b 310 624 315 624 313 624 b 299 633 303 624 299 628 z m 586 304 b 576 274 583 293 581 283 b 560 247 572 264 565 256 b 538 224 553 239 546 229 b 510 208 529 217 519 211 b 479 200 500 204 490 203 b 449 194 469 199 460 194 b 417 197 438 194 426 196 b 386 211 406 199 396 207 b 358 224 376 215 367 218 b 333 244 349 231 340 236 b 315 272 326 253 321 263 b 304 303 311 282 306 292 b 306 336 301 314 306 325 b 308 368 306 347 306 358 b 317 400 311 379 311 390 b 333 428 321 410 326 419 b 357 449 340 436 349 443 b 386 463 365 456 376 458 b 417 468 396 467 407 467 b 449 471 426 469 438 471 b 479 472 458 471 469 474 b 510 463 490 471 500 465 b 535 444 519 458 526 450 b 560 425 543 439 553 433 b 579 400 565 417 575 410 b 589 369 583 390 586 379 b 593 336 590 358 593 347 b 586 304 593 325 588 314 z m 631 467 b 626 468 629 467 628 467 b 626 471 626 468 626 469 b 628 474 626 472 628 474 b 631 474 629 474 629 474 b 633 471 632 474 633 472 b 631 467 633 468 632 467 z m 638 607 b 635 604 638 604 636 604 b 626 606 632 604 629 604 b 625 608 625 606 624 607 b 626 611 625 611 625 613 b 635 610 629 611 632 611 b 638 607 636 610 638 608 z m 669 688 b 639 675 657 683 649 679 b 636 679 638 675 636 678 b 669 694 642 699 644 700 b 669 688 671 693 672 689 z "},"9":{"ha":928,"x_min":0,"x_max":0,"o":"m 871 703 b 864 735 869 714 865 724 b 857 767 861 746 860 757 b 846 797 854 778 849 788 b 835 829 842 808 840 819 b 819 858 831 839 825 849 b 800 883 814 868 806 875 b 781 910 793 892 788 901 b 758 933 774 918 765 925 b 735 956 750 940 743 949 b 708 975 726 963 718 969 b 679 988 700 982 689 982 b 653 1006 669 993 663 1001 b 622 1017 643 1010 632 1013 b 592 1026 613 1021 603 1024 b 561 1033 582 1029 572 1032 b 531 1039 551 1036 540 1038 b 499 1044 519 1040 510 1043 b 467 1046 488 1044 478 1046 b 435 1040 456 1046 446 1040 b 403 1042 424 1039 413 1043 b 371 1033 392 1040 382 1036 b 339 1028 360 1031 350 1031 b 308 1018 329 1025 318 1021 b 279 1004 299 1014 289 1008 b 249 992 269 999 258 996 b 222 971 239 986 232 978 b 196 953 214 965 204 960 b 172 931 188 946 179 939 b 149 908 164 924 156 917 b 129 881 142 900 136 890 b 111 853 124 872 117 863 b 94 825 106 844 100 835 b 79 796 90 815 83 806 b 71 763 75 785 74 774 b 65 731 68 751 67 742 b 56 697 63 719 57 708 b 56 664 56 686 56 675 b 61 631 56 653 60 642 b 63 596 63 619 60 607 b 72 564 64 585 68 575 b 82 532 75 553 78 542 b 97 501 86 521 92 511 b 114 474 101 492 108 483 b 131 444 121 464 124 453 b 154 421 138 436 146 428 b 176 396 161 413 168 404 b 201 375 185 389 193 382 b 231 360 211 368 221 365 b 258 342 239 354 249 346 b 289 329 268 338 278 333 b 319 321 299 326 308 324 b 351 311 331 318 340 314 b 383 308 361 310 372 310 b 415 307 393 308 404 307 b 428 283 426 306 433 293 b 406 261 418 271 414 274 b 386 235 396 247 396 247 b 371 206 376 221 379 219 b 349 182 361 193 358 194 b 333 154 340 168 343 167 b 314 128 324 140 322 142 b 294 103 304 115 304 115 b 276 76 285 89 285 89 b 256 50 267 63 265 64 b 236 25 247 38 246 39 b 247 0 229 17 236 0 b 282 3 264 0 264 3 b 315 1 299 3 299 1 b 350 1 333 1 333 1 b 383 1 367 1 367 1 b 418 1 401 1 401 1 b 453 4 435 1 435 4 b 486 6 469 4 469 6 b 499 7 490 6 496 3 b 517 35 508 21 507 22 b 533 64 526 49 524 50 b 556 89 543 78 546 75 b 576 115 565 101 567 101 b 593 143 586 128 583 131 b 614 169 603 157 604 156 b 635 196 624 183 625 182 b 654 222 644 208 644 208 b 669 251 664 236 661 239 b 689 279 679 265 679 265 b 710 304 699 293 700 292 b 729 332 719 318 719 318 b 749 358 739 346 739 344 b 769 385 758 372 760 372 b 786 414 775 394 781 406 b 804 443 792 424 799 433 b 819 474 810 453 814 464 b 835 504 824 483 829 493 b 847 535 839 514 843 525 b 860 567 851 546 857 556 b 864 601 863 578 863 590 b 871 635 865 613 869 624 b 872 669 872 646 872 658 b 871 703 872 681 871 692 z m 332 438 b 322 433 331 433 325 431 b 321 433 322 433 322 433 b 322 446 317 436 317 443 b 325 447 322 446 324 447 b 333 442 328 449 333 443 b 332 438 333 440 333 439 z m 433 413 b 431 424 431 414 429 419 b 439 429 432 428 435 431 b 433 413 442 426 438 410 z m 471 346 b 469 340 471 343 469 340 b 458 342 465 342 461 342 b 456 347 457 342 456 344 b 458 353 457 350 457 353 b 469 350 463 351 465 351 b 471 346 471 350 471 349 z m 517 196 b 511 192 515 193 513 192 b 497 197 507 194 503 196 b 497 203 497 199 497 200 b 503 206 499 204 501 207 b 517 201 507 204 511 203 b 517 196 518 201 518 199 z m 551 408 b 536 400 546 404 542 400 b 515 408 531 400 521 403 b 518 421 511 411 513 421 b 551 418 529 421 540 421 b 551 408 554 418 556 411 z m 556 361 b 575 368 563 372 568 368 b 576 364 575 368 576 367 b 576 363 576 364 576 363 b 575 357 578 360 576 357 b 557 353 569 356 564 354 b 556 361 556 351 554 357 z m 581 311 b 567 314 572 310 569 310 b 571 324 565 317 568 322 b 586 319 578 325 582 325 b 581 311 588 318 583 311 z m 589 563 b 564 538 582 553 572 544 b 535 518 556 531 546 524 b 503 508 525 514 514 511 b 468 503 492 506 481 503 b 433 506 457 503 444 504 b 401 518 422 508 411 514 b 375 539 390 524 383 532 b 349 563 365 547 356 554 b 331 593 342 572 336 583 b 325 629 326 604 328 617 b 321 664 322 640 321 651 b 325 699 321 675 322 686 b 331 733 328 710 326 722 b 351 761 335 744 344 753 b 374 788 358 771 365 781 b 403 806 382 794 392 801 b 435 818 413 811 424 815 b 468 821 444 819 457 821 b 501 815 481 821 490 818 b 533 804 513 813 524 808 b 564 789 543 799 556 797 b 583 760 574 782 576 769 b 604 732 590 751 599 743 b 613 699 608 722 611 710 b 617 664 615 688 617 675 b 614 628 617 651 617 639 b 603 594 613 617 607 606 b 589 563 597 585 594 572 z m 610 493 b 608 500 607 493 607 496 b 615 507 610 504 613 507 b 636 506 622 507 629 507 b 638 499 639 506 639 503 b 631 492 636 496 633 492 b 610 493 624 493 617 493 z m 644 408 b 640 406 643 406 642 406 b 632 411 638 408 635 410 b 632 417 631 413 631 415 b 633 418 632 418 632 418 b 638 421 635 419 636 421 b 646 414 640 418 643 417 b 644 408 646 413 646 411 z m 675 375 b 674 372 674 374 674 374 b 669 369 672 371 671 369 b 651 374 664 371 658 372 b 654 382 650 375 651 381 b 675 379 665 389 669 383 b 675 375 675 379 675 376 z m 692 639 b 693 642 692 640 692 642 b 703 640 696 642 700 640 b 704 636 704 640 704 639 b 703 633 704 635 704 633 b 693 633 700 633 696 633 b 692 638 692 635 690 636 b 692 639 692 638 692 639 z m 704 469 b 699 464 701 468 700 465 b 696 465 697 464 696 464 b 690 475 693 468 690 472 b 696 486 692 479 694 482 b 699 485 697 486 699 486 b 704 475 701 482 703 478 b 704 469 706 474 706 471 z m 740 540 b 736 549 736 536 733 544 b 740 540 743 561 751 549 z "}," ":{"ha":347,"x_min":0,"x_max":0,"o":""},"A":{"ha":1074,"x_min":0,"x_max":0,"o":"m 997 114 b 979 142 990 129 986 126 b 967 172 974 157 974 157 b 957 204 960 188 963 189 b 943 235 950 219 950 219 b 929 264 936 250 936 249 b 917 296 922 279 924 281 b 904 325 911 310 911 310 b 888 354 897 340 893 339 b 872 383 881 369 879 368 b 864 415 865 399 871 401 b 846 444 857 431 853 429 b 835 475 839 460 842 460 b 819 504 829 490 825 489 b 810 536 813 519 817 521 b 793 565 803 551 799 550 b 781 596 786 581 786 581 b 769 626 774 611 776 611 b 757 657 763 642 764 642 b 739 686 750 672 746 671 b 728 717 732 700 735 701 b 715 753 724 729 721 742 b 686 801 704 768 693 783 b 672 840 681 814 678 828 b 651 875 667 853 658 864 b 635 906 644 885 640 896 b 594 996 619 938 606 963 b 569 1035 589 1011 583 1028 b 481 949 521 1061 494 978 b 408 806 458 899 432 857 b 393 776 403 790 400 792 b 381 746 386 761 388 761 b 368 715 374 731 374 731 b 351 686 361 700 358 701 b 338 656 344 671 344 671 b 325 626 332 642 332 640 b 308 597 318 611 315 613 b 299 565 301 582 306 581 b 282 536 292 550 289 551 b 269 506 275 521 276 521 b 257 475 263 490 264 490 b 240 447 250 460 246 463 b 228 417 233 432 235 431 b 215 386 221 401 221 400 b 201 356 208 371 207 371 b 188 325 194 340 194 340 b 176 294 181 310 182 310 b 158 267 169 279 165 281 b 150 233 151 251 156 249 b 135 204 143 219 142 219 b 118 175 128 189 125 190 b 108 144 111 160 115 158 b 92 115 101 129 99 131 b 79 85 85 100 86 100 b 67 54 72 69 74 69 b 50 25 60 39 57 40 b 65 3 46 13 53 3 b 101 4 83 3 83 4 b 138 4 119 4 119 4 b 174 1 156 4 156 1 b 210 7 192 1 192 7 b 246 4 228 7 228 4 b 282 1 264 4 264 1 b 313 25 296 1 307 13 b 325 51 318 39 319 39 b 335 79 331 65 329 65 b 347 106 340 93 342 92 b 379 126 353 118 365 126 b 413 126 396 126 396 126 b 447 125 431 126 431 125 b 482 131 465 125 465 131 b 517 128 500 131 500 128 b 551 128 533 128 533 128 b 586 128 568 128 568 128 b 619 125 603 128 603 125 b 654 129 638 125 638 129 b 689 128 672 129 672 128 b 719 106 703 128 714 118 b 733 79 726 93 728 93 b 742 51 740 67 736 64 b 756 24 749 38 750 38 b 788 3 761 11 774 3 b 821 1 804 3 804 1 b 854 4 838 1 838 4 b 888 4 871 4 871 4 b 921 1 904 4 904 1 b 954 7 938 1 938 7 b 1008 6 972 7 989 6 b 1024 11 1014 7 1019 7 b 1025 18 1025 14 1025 17 b 997 114 1031 46 1008 89 z m 296 200 b 290 192 296 196 293 193 b 279 192 286 190 283 190 b 260 197 272 192 265 194 b 254 201 257 197 256 199 b 258 207 254 203 256 206 b 281 211 265 211 274 213 b 292 208 285 211 288 211 b 296 200 294 207 297 203 z m 328 372 b 310 369 322 369 315 368 b 306 372 308 369 306 371 b 331 378 307 381 325 378 b 328 372 331 376 329 374 z m 675 508 b 678 508 675 508 676 508 b 681 507 679 508 679 508 b 679 500 682 504 682 501 b 674 501 676 499 675 500 b 675 508 671 503 672 507 z m 649 629 b 663 633 653 633 657 635 b 665 632 664 633 664 633 b 667 631 665 632 665 632 b 669 617 671 625 675 622 b 657 615 665 614 661 614 b 649 621 653 615 650 618 b 649 629 647 622 647 626 z m 635 536 b 632 531 635 533 633 531 b 614 528 625 529 619 529 b 610 533 613 528 610 531 b 614 539 610 536 611 539 b 631 540 619 540 625 540 b 635 536 633 542 635 539 z m 571 724 b 579 731 572 726 576 729 b 589 732 582 732 585 732 b 614 725 596 732 606 729 b 614 717 617 725 617 717 b 596 711 608 714 603 713 b 578 714 590 711 585 713 b 574 715 576 714 575 714 b 571 721 572 717 572 718 b 571 724 571 721 571 722 z m 571 685 b 586 675 576 682 581 678 b 604 672 592 672 599 674 b 617 660 610 669 617 665 b 617 657 617 658 617 658 b 614 657 615 657 615 657 b 593 653 607 654 600 653 b 571 665 583 654 576 660 b 561 674 567 668 564 671 b 551 683 557 676 553 679 b 550 686 550 685 550 686 b 560 690 551 690 557 690 b 571 685 564 689 567 688 z m 558 767 b 558 764 558 767 560 764 b 540 757 553 754 547 750 b 539 760 539 757 539 758 b 558 767 544 769 550 769 z m 526 829 b 533 829 529 831 531 829 b 540 829 536 829 538 829 b 544 829 542 829 543 829 b 544 828 544 829 544 829 b 546 825 546 828 546 826 b 544 821 546 824 544 822 b 540 821 543 821 542 821 b 528 824 536 822 532 824 b 526 825 528 824 528 825 b 525 826 526 825 525 826 b 525 828 525 826 525 828 b 526 829 525 828 526 829 z m 494 700 b 496 703 494 701 496 703 b 521 711 504 704 513 708 b 533 714 525 713 529 714 b 546 714 538 714 542 714 b 549 711 547 713 549 713 b 547 707 550 710 549 708 b 542 706 546 707 543 707 b 531 697 538 704 535 699 b 526 696 529 696 528 696 b 496 697 517 693 506 696 b 494 700 496 697 494 699 z m 482 646 b 557 653 504 664 533 667 b 575 638 563 649 568 642 b 590 622 581 635 586 632 b 590 613 592 619 593 615 b 588 611 590 611 589 611 b 569 615 582 611 575 611 b 560 625 565 618 563 622 b 529 631 550 633 539 631 b 494 632 518 632 506 632 b 482 633 490 632 486 631 b 482 646 479 635 479 643 z m 390 356 b 388 351 389 354 388 353 b 385 349 386 350 386 349 b 378 349 383 347 381 347 b 372 353 375 349 372 350 b 375 360 371 357 372 358 b 379 361 376 360 378 361 b 390 356 383 361 394 363 z m 382 265 b 378 261 382 263 381 261 b 371 268 374 260 369 264 b 379 274 372 271 376 274 b 382 274 381 274 382 274 b 382 265 385 274 385 268 z m 361 422 b 383 428 368 424 376 425 b 385 428 383 428 383 428 b 390 425 386 428 390 428 b 390 424 390 425 390 424 b 383 418 389 421 386 418 b 374 415 381 417 376 417 b 358 413 368 415 364 413 b 361 422 350 414 357 421 z m 399 225 b 394 222 397 224 396 224 b 365 226 385 222 375 222 b 363 233 361 228 357 231 b 376 232 365 236 372 233 b 382 231 378 232 379 231 b 389 232 385 231 386 232 b 397 232 392 232 394 232 b 399 225 399 231 400 226 z m 413 561 b 408 560 411 560 410 560 b 399 564 404 560 400 561 b 399 572 397 567 397 569 b 406 575 400 574 403 575 l 404 575 b 410 574 406 576 408 575 b 413 569 411 574 411 571 b 415 564 414 568 415 567 b 413 561 415 563 414 561 z m 461 179 b 457 178 460 178 458 178 b 453 178 456 178 454 178 b 453 183 453 179 453 182 b 457 186 454 185 456 185 l 456 186 b 461 185 457 186 460 186 b 461 179 463 183 463 181 z m 469 274 b 453 268 464 272 458 269 b 444 268 450 267 446 267 b 444 279 440 269 442 276 b 457 282 449 282 453 282 b 472 279 463 282 469 282 b 474 278 472 279 472 278 b 469 274 474 275 471 274 z m 575 218 b 576 217 575 218 576 217 b 564 219 574 215 565 215 b 574 222 561 229 569 226 b 575 218 578 221 579 217 z m 579 324 b 547 324 564 324 564 324 b 517 326 532 324 532 326 b 485 324 501 326 501 324 b 447 325 469 324 463 325 b 446 354 429 325 443 347 b 457 397 450 368 450 383 b 467 413 460 401 464 407 b 472 440 471 421 472 431 b 483 485 474 456 478 471 b 499 521 488 497 494 508 b 519 581 506 542 507 564 b 539 590 524 588 532 593 b 553 564 550 588 551 574 b 561 524 554 550 556 538 b 572 500 565 517 569 508 b 575 482 574 494 574 488 b 588 439 578 467 583 453 b 610 381 594 419 603 400 b 624 349 614 369 618 358 b 628 338 625 344 628 342 b 579 324 629 318 590 324 z m 626 235 b 626 238 625 235 625 238 b 668 244 638 239 658 238 b 675 249 671 246 672 247 b 683 243 678 250 683 247 b 685 242 685 242 685 242 b 626 235 683 226 635 233 z m 718 390 b 746 390 728 390 736 390 b 747 386 749 390 749 386 b 719 379 740 383 728 381 b 714 382 717 379 715 381 b 714 385 714 383 714 385 b 718 390 714 388 715 390 z m 726 217 b 697 210 715 208 707 207 b 696 214 696 210 696 211 b 699 218 694 215 697 218 b 725 219 707 218 714 218 b 726 217 728 219 728 218 z m 772 236 b 753 233 765 236 758 235 b 750 236 751 233 750 235 b 751 239 750 238 751 239 b 771 247 758 242 764 244 b 775 242 772 247 775 246 b 772 236 775 239 774 236 z m 782 285 b 776 281 779 282 778 281 b 764 276 772 279 768 275 b 714 281 747 283 731 276 b 713 283 713 281 713 282 b 719 289 715 286 717 289 b 768 301 735 294 751 297 b 782 286 775 303 781 299 b 782 285 782 285 782 285 z m 871 207 b 864 201 868 204 867 203 b 842 207 856 200 849 201 b 843 213 839 208 840 213 l 868 213 b 871 207 871 213 872 208 z "},"B":{"ha":936,"x_min":0,"x_max":0,"o":"m 876 326 b 874 360 875 338 875 349 b 864 390 871 371 867 381 b 847 419 860 401 853 410 b 829 446 842 429 835 438 b 811 474 822 454 818 467 b 783 492 803 481 792 485 b 726 536 765 504 733 513 b 725 547 725 539 725 543 b 731 556 726 550 729 553 b 750 569 736 561 743 564 b 776 593 760 576 768 583 b 799 619 785 601 793 610 b 815 650 806 629 811 639 b 825 685 819 661 822 672 b 833 719 828 696 832 707 b 833 754 835 731 833 742 b 831 789 833 767 832 778 b 826 822 829 800 829 813 b 817 856 824 835 821 846 b 800 886 813 867 806 875 b 782 914 794 896 789 906 b 756 938 775 924 764 929 b 729 958 747 944 739 951 b 700 976 719 964 711 971 b 669 992 690 981 681 988 b 638 1004 660 996 649 1001 b 603 1008 626 1007 615 1006 b 569 1017 592 1010 582 1015 b 536 1021 558 1018 547 1019 b 501 1017 525 1021 513 1017 b 467 1018 483 1017 483 1018 b 433 1018 450 1018 450 1018 b 399 1021 415 1018 415 1021 b 365 1017 382 1021 382 1017 b 331 1018 347 1017 347 1018 b 297 1019 314 1018 314 1019 b 263 1021 279 1019 279 1021 b 229 1017 246 1021 246 1017 b 194 1017 211 1017 211 1017 b 161 1017 178 1017 178 1017 b 126 1018 143 1017 143 1018 b 93 1019 110 1018 110 1019 b 67 1011 83 1019 72 1017 b 58 985 60 1004 58 994 b 56 951 58 968 56 968 b 57 919 56 935 57 935 b 58 886 57 903 58 903 b 57 853 58 869 57 869 b 58 821 57 836 58 836 b 60 788 58 804 60 804 b 56 754 60 771 56 771 b 61 722 56 739 61 739 b 60 689 61 706 60 706 b 57 656 60 672 57 672 b 61 624 57 640 61 640 b 57 590 61 607 57 607 b 58 558 57 574 58 574 b 60 525 58 542 60 542 b 58 492 60 508 58 508 b 57 460 58 475 57 475 b 58 426 57 443 58 443 b 58 393 58 410 58 410 b 57 361 58 378 57 378 b 61 328 57 344 61 344 b 60 294 61 311 60 311 b 56 263 60 279 56 279 b 60 229 56 246 60 246 b 58 197 60 213 58 213 b 58 164 58 181 58 181 b 57 131 58 147 57 147 b 57 99 57 114 57 114 b 58 65 57 82 58 82 b 57 32 58 49 57 49 b 71 10 57 24 64 17 b 93 -1 76 4 83 -1 b 125 -1 110 -1 110 -1 b 158 -1 142 -1 142 -1 b 192 -4 175 -1 175 -4 b 224 0 208 -4 208 0 b 257 -1 240 0 240 -1 b 290 -4 274 -1 274 -4 b 324 1 307 -4 307 1 b 356 -1 339 1 339 -1 b 389 1 372 -1 372 1 b 422 -4 406 1 406 -4 b 454 0 438 -4 438 0 b 488 0 471 0 471 0 b 519 1 499 0 510 1 b 553 3 531 1 542 3 b 585 7 564 4 575 6 b 617 13 596 8 607 10 b 649 18 628 14 639 15 b 679 28 660 21 669 25 b 711 36 690 32 701 32 b 740 50 722 40 732 46 b 767 69 750 56 758 64 b 792 92 776 76 783 83 b 817 113 800 99 810 104 b 833 140 824 121 828 131 b 854 167 839 149 849 156 b 861 199 858 176 857 188 b 871 229 864 208 868 218 b 878 261 872 240 876 250 b 881 294 879 272 881 283 b 876 326 881 306 876 317 z m 283 731 b 281 722 283 728 282 725 b 254 717 278 721 256 708 b 251 725 253 719 253 722 b 283 731 251 725 281 739 z m 271 503 b 256 503 265 503 261 503 b 253 510 251 501 250 507 b 272 511 261 517 265 517 b 271 503 276 510 275 504 z m 178 592 b 194 589 185 594 188 590 b 186 579 196 583 190 581 b 174 585 182 579 178 582 b 178 592 168 588 175 590 z m 188 74 b 188 74 189 74 189 74 z m 196 244 b 183 249 193 243 186 246 b 199 251 179 256 194 257 b 196 244 200 247 199 246 z m 197 701 b 190 697 196 699 193 697 b 183 699 189 697 186 697 b 181 701 182 700 181 700 b 178 706 179 703 178 704 b 181 710 178 707 179 708 b 196 713 183 713 192 717 b 197 701 200 710 200 704 z m 232 468 b 226 464 232 465 229 464 b 206 467 219 465 213 465 b 201 471 203 467 201 468 b 206 475 201 474 203 475 b 228 476 213 475 219 476 b 232 471 229 476 232 474 b 232 468 232 469 232 469 z m 235 865 b 251 861 243 869 247 869 b 257 857 253 858 254 857 b 267 854 260 856 263 856 b 269 842 272 853 274 846 b 249 843 257 831 253 828 b 244 849 249 846 246 847 l 235 851 b 235 865 229 854 229 863 z m 242 411 b 265 414 249 418 256 421 b 264 406 269 411 268 406 b 244 404 257 406 251 404 b 242 411 240 403 238 408 z m 286 149 b 247 161 271 147 258 156 b 249 165 244 163 246 165 b 289 153 263 168 278 168 b 286 149 290 151 289 149 z m 669 782 b 675 783 671 783 672 783 b 693 782 681 783 688 782 b 713 782 700 783 707 785 b 717 778 715 782 717 779 b 713 775 717 776 714 775 b 690 772 706 774 697 772 b 669 776 683 772 675 772 b 668 778 668 776 668 776 b 669 782 667 779 668 781 z m 689 719 b 700 718 694 719 699 719 b 694 699 718 713 708 700 b 654 713 679 696 661 701 b 689 719 647 722 672 721 z m 689 615 b 688 615 688 615 688 615 b 686 624 686 618 686 621 b 686 625 685 624 686 625 b 688 625 686 625 688 625 b 689 615 693 626 696 617 z m 674 396 b 672 396 674 396 674 396 b 672 394 672 394 672 394 b 664 394 669 393 667 393 b 661 397 663 394 661 396 b 664 400 663 400 663 401 b 671 400 667 400 669 400 b 674 396 674 400 674 399 z m 597 597 b 601 596 599 597 600 597 b 600 581 606 592 606 583 b 597 581 599 581 599 581 b 589 590 594 582 590 586 b 597 597 588 592 594 599 z m 325 731 b 325 769 325 750 325 750 b 332 794 325 779 325 789 b 357 804 338 801 347 804 b 393 804 375 804 375 804 b 431 803 411 804 411 803 b 467 806 449 803 449 806 b 499 801 478 806 489 803 b 528 792 510 800 519 796 b 550 769 538 786 544 778 b 565 743 556 763 563 754 b 569 711 568 733 569 722 b 565 679 569 700 568 689 b 550 650 563 668 557 658 b 525 632 544 643 535 638 b 494 625 517 628 507 626 b 464 619 485 624 475 619 b 428 617 446 619 446 617 b 392 617 410 617 410 617 b 357 618 375 617 375 618 b 333 629 347 618 339 624 b 325 654 326 636 325 644 b 321 693 325 674 321 674 b 325 731 321 713 325 713 z m 492 469 b 492 467 492 468 492 468 b 490 464 492 465 490 464 b 474 463 485 464 479 467 b 471 461 472 463 472 461 b 468 463 469 461 469 461 b 467 468 467 463 467 465 b 471 474 467 471 469 474 b 476 474 474 475 475 474 b 482 475 478 474 481 475 b 488 476 483 476 486 476 b 492 469 490 476 492 474 z m 447 489 b 419 476 446 475 429 475 b 414 479 418 476 415 478 b 413 482 414 479 413 481 b 415 489 411 485 413 488 b 422 490 418 490 421 490 b 431 493 425 492 428 492 b 440 494 433 493 438 494 b 447 489 443 494 447 492 z m 563 88 l 553 88 b 549 92 550 88 549 89 b 551 96 549 94 550 96 b 563 97 556 96 558 97 b 565 93 564 97 565 94 b 565 92 565 92 565 92 b 563 88 565 89 564 88 z m 604 289 b 594 258 601 278 599 268 b 574 236 589 250 582 243 b 546 222 567 231 557 226 b 517 218 538 219 528 219 b 486 214 507 217 497 214 b 454 213 469 214 469 213 b 421 214 438 213 438 214 b 389 211 406 214 406 211 b 357 213 372 211 372 213 b 331 221 347 213 336 215 b 319 247 325 228 319 238 b 321 283 319 265 321 265 b 322 318 321 301 322 301 b 325 354 322 336 325 336 b 321 390 325 372 321 372 b 333 413 321 400 328 407 b 357 422 340 419 347 422 b 389 426 372 422 372 426 b 421 425 406 426 406 425 b 454 425 438 425 438 425 b 486 422 469 425 469 422 b 522 424 500 422 513 425 b 557 411 536 421 547 415 b 585 389 569 406 578 397 b 599 356 592 379 596 368 b 606 319 601 344 606 332 b 604 289 606 308 606 299 z m 607 815 b 608 824 603 817 604 824 b 646 819 622 824 635 826 b 643 813 651 818 649 810 b 628 817 638 814 633 815 b 607 815 622 819 615 813 z m 639 208 b 640 217 638 211 638 217 l 664 217 b 665 208 667 217 668 211 b 639 208 656 200 647 201 z m 681 171 b 653 157 672 156 663 157 b 651 160 651 157 651 158 b 651 163 651 161 651 161 b 653 167 650 164 651 165 b 679 176 660 169 668 172 b 681 171 681 178 682 174 z m 676 300 b 676 308 674 301 674 307 b 743 313 696 317 724 319 b 744 306 746 313 746 308 b 676 300 724 286 700 293 z m 753 218 b 751 213 753 217 751 214 b 747 207 751 210 749 207 b 740 208 744 207 742 208 b 736 215 738 208 736 213 b 740 222 736 219 738 222 b 750 222 743 222 747 222 b 753 218 751 222 753 221 z "},"C":{"ha":1078,"x_min":0,"x_max":0,"o":"m 1021 226 b 1008 250 1018 235 1015 244 b 976 267 993 260 992 257 b 946 286 961 276 961 276 b 915 307 931 296 931 297 b 886 328 900 317 901 318 b 854 344 871 338 869 335 b 829 351 846 350 838 353 b 810 335 821 349 815 342 b 790 308 804 325 797 317 b 768 285 783 300 775 292 b 740 265 760 276 750 272 b 711 251 732 260 721 256 b 682 236 701 247 693 239 b 650 232 672 233 661 233 b 618 228 639 229 629 229 b 585 222 607 226 596 222 b 553 225 574 222 563 224 b 519 231 542 226 531 229 b 490 244 510 233 500 240 b 458 256 479 249 468 250 b 433 276 449 261 442 269 b 410 299 424 283 417 290 b 390 325 401 307 396 317 b 369 351 383 335 375 342 b 356 382 365 361 360 371 b 344 413 351 392 347 401 b 339 444 342 424 342 435 b 338 478 338 456 338 467 b 338 511 336 489 338 500 b 336 543 338 521 336 532 b 338 575 338 554 336 565 b 349 606 340 586 346 596 b 356 638 351 617 351 628 b 368 667 360 647 364 657 b 386 694 374 676 379 685 b 403 722 392 703 396 714 b 429 742 410 731 421 735 b 454 761 436 749 444 756 b 482 778 464 767 471 774 b 513 786 492 782 503 783 b 544 792 524 789 533 790 b 576 796 554 793 565 796 b 611 793 589 796 600 794 b 646 790 622 793 635 793 b 679 781 657 788 668 785 b 708 764 690 778 699 769 b 739 747 719 758 729 753 b 765 725 747 740 757 733 b 789 700 774 717 782 708 b 810 686 794 693 801 688 b 835 692 818 685 828 688 b 865 713 850 703 850 703 b 894 733 879 722 879 724 b 922 756 908 744 908 744 b 951 776 938 765 938 767 b 985 792 967 786 971 782 b 997 817 993 797 996 808 b 990 843 999 826 996 835 b 968 868 983 851 975 860 b 944 892 960 876 951 885 b 921 918 936 900 929 911 b 894 939 913 925 903 932 b 865 956 885 946 875 950 b 838 976 856 963 847 972 b 806 990 828 982 817 986 b 772 1000 796 994 783 996 b 740 1010 763 1004 751 1007 b 707 1017 729 1013 718 1015 b 674 1028 696 1019 686 1026 b 640 1029 663 1029 651 1028 b 606 1035 629 1031 618 1033 b 572 1036 594 1035 583 1036 b 539 1031 561 1036 550 1032 b 507 1029 528 1031 517 1031 b 474 1025 496 1028 485 1026 b 443 1015 463 1022 453 1018 b 411 1008 432 1013 421 1013 b 381 994 400 1006 390 999 b 350 982 371 990 360 988 b 319 969 340 978 329 975 b 293 950 311 965 303 957 b 265 935 285 944 274 942 b 240 913 256 928 249 919 b 217 890 232 906 225 897 b 192 869 210 882 199 878 b 172 843 183 861 179 851 b 153 817 165 835 158 825 b 133 790 146 808 139 800 b 117 763 128 781 122 772 b 104 732 111 753 108 742 b 90 703 99 722 94 713 b 76 672 86 692 81 683 b 69 640 74 663 72 651 b 64 608 67 629 65 619 b 57 576 61 597 58 588 b 58 543 56 565 60 554 b 58 511 58 532 58 522 b 56 478 58 500 56 489 b 58 444 56 467 57 456 b 63 411 60 433 61 422 b 74 379 65 400 71 390 b 82 347 76 368 79 358 b 89 314 85 336 85 325 b 106 286 93 304 101 296 b 121 256 110 275 115 265 b 138 228 126 246 132 238 b 154 199 144 218 147 207 b 178 175 161 189 171 183 b 199 149 185 167 192 157 b 224 126 207 142 215 135 b 249 106 232 119 239 111 b 272 82 257 99 264 89 b 303 68 282 75 294 74 b 331 50 313 63 321 56 b 361 38 340 44 351 42 b 390 21 372 32 381 25 b 424 13 401 17 413 15 b 456 6 433 10 444 8 b 488 -3 467 3 476 0 b 521 -8 499 -4 510 -7 b 553 -14 532 -10 542 -14 b 586 -14 564 -15 575 -14 b 621 -14 599 -14 610 -14 b 654 -14 632 -14 643 -14 b 688 -7 665 -12 676 -8 b 721 -3 699 -4 710 -6 b 753 4 732 -1 743 1 b 785 18 764 7 774 14 b 815 31 794 21 806 26 b 847 40 825 35 838 35 b 875 61 858 46 865 54 b 903 79 885 67 894 72 b 931 97 911 86 922 90 b 951 125 939 104 944 117 b 975 149 960 132 967 140 b 997 174 982 157 990 164 b 1017 200 1003 182 1011 192 b 1021 226 1022 208 1022 218 z m 554 936 b 586 950 558 954 561 956 b 586 944 589 950 589 944 b 556 932 575 939 565 935 b 554 936 554 931 553 933 z m 529 886 b 531 889 529 889 531 889 b 540 888 535 889 538 889 b 542 885 542 888 542 886 b 539 882 542 882 540 882 b 531 883 536 882 533 882 b 529 886 529 883 529 885 z m 401 917 b 403 918 401 917 403 918 l 417 918 b 421 911 419 918 422 915 b 421 907 421 910 421 908 b 415 903 421 904 418 901 b 404 907 411 906 408 906 b 401 917 401 908 400 913 z m 157 510 b 142 518 151 510 143 513 b 142 519 142 518 142 519 b 142 521 142 521 142 521 b 143 522 142 522 143 522 b 157 521 147 524 153 522 b 171 522 161 521 167 522 b 175 522 172 522 174 522 b 157 510 183 515 161 510 z m 197 686 b 201 694 197 689 199 692 l 204 694 b 219 686 211 699 219 694 b 217 678 219 683 218 681 b 208 675 215 676 213 675 b 197 686 201 675 197 681 z m 225 394 b 208 400 221 382 200 388 b 225 394 213 408 228 403 z m 221 564 b 217 565 219 563 217 564 b 207 581 213 571 211 575 b 208 588 206 583 206 586 b 233 600 215 593 222 597 b 238 592 238 600 242 596 b 236 590 238 590 238 590 b 229 575 231 588 226 582 b 221 564 232 568 228 564 z m 242 294 b 235 293 239 293 236 292 b 229 296 233 293 231 294 b 232 304 228 299 229 303 b 238 306 233 304 236 306 b 243 301 239 306 242 303 b 242 294 244 299 244 296 z m 274 714 b 299 714 282 719 293 717 b 297 708 300 713 300 710 b 275 710 290 708 283 708 b 274 714 272 710 272 713 z m 300 633 b 290 635 296 633 293 633 b 296 646 289 639 290 643 l 303 646 b 307 639 304 643 307 642 b 300 633 307 635 304 633 z m 326 825 b 325 835 324 826 322 832 b 325 836 325 836 325 836 b 343 829 331 832 338 832 b 346 822 346 829 347 825 b 344 819 346 821 346 819 b 326 825 339 819 332 822 z m 365 200 b 351 199 363 196 354 199 b 347 206 350 201 349 203 b 361 211 350 210 356 211 b 365 200 361 211 365 201 z m 472 154 b 471 154 472 154 471 153 b 463 163 468 154 461 158 b 475 164 463 165 472 165 b 476 161 475 163 476 163 b 472 154 476 158 474 156 z "},"D":{"ha":1025,"x_min":0,"x_max":0,"o":"m 969 546 b 965 579 968 557 967 568 b 961 613 964 590 964 601 b 953 646 960 624 956 635 b 943 678 950 657 947 668 b 933 711 940 689 938 700 b 922 743 929 721 928 733 b 906 772 918 753 911 763 b 889 801 900 782 894 792 b 872 832 882 811 879 822 b 847 856 865 840 856 847 b 828 883 840 864 836 875 b 800 903 819 892 808 896 b 775 926 792 911 783 919 b 744 943 765 933 754 936 b 717 961 735 949 726 956 b 686 976 706 967 696 972 b 654 988 675 981 664 983 b 621 997 643 992 632 994 b 588 1006 610 1000 600 1003 b 554 1011 578 1008 567 1010 b 521 1018 543 1013 533 1017 b 488 1021 510 1019 499 1019 b 454 1021 476 1021 465 1021 b 421 1021 438 1021 438 1021 b 388 1025 404 1021 404 1025 b 356 1022 372 1025 372 1022 b 322 1025 339 1022 339 1025 b 290 1025 306 1025 306 1025 b 257 1021 274 1025 274 1021 b 224 1024 240 1021 240 1024 b 192 1024 208 1024 208 1024 b 158 1019 175 1024 175 1019 b 126 1024 142 1019 142 1024 b 93 1021 110 1024 110 1021 b 69 1011 83 1021 76 1017 b 61 988 64 1004 61 997 b 60 954 61 971 61 971 b 58 922 60 938 58 938 b 58 889 58 906 58 906 b 60 856 58 872 60 872 b 60 824 60 840 60 840 b 57 790 60 807 57 807 b 58 757 57 774 58 774 b 58 725 58 742 58 742 b 57 692 58 708 57 708 b 61 660 57 675 61 675 b 61 626 61 643 61 643 b 58 593 61 610 58 610 b 57 561 58 576 57 576 b 57 528 57 544 57 544 b 61 494 57 511 61 511 b 61 463 61 479 61 479 b 56 429 61 446 56 446 b 60 396 56 413 60 413 b 60 364 60 381 60 381 b 60 331 60 347 60 347 b 57 299 60 314 57 314 b 61 265 57 282 61 282 b 60 232 61 249 60 249 b 61 200 60 215 61 215 b 60 167 61 183 60 183 b 57 133 60 150 57 150 b 61 101 57 118 61 118 b 60 68 61 85 60 85 b 61 35 60 51 61 51 b 68 10 61 26 61 17 b 93 3 74 4 83 3 b 126 4 110 3 110 4 b 158 3 142 4 142 3 b 192 3 175 3 175 3 b 224 0 208 3 208 0 b 257 1 240 0 240 1 b 290 0 274 1 274 0 b 322 1 306 0 306 1 b 356 -1 339 1 339 -1 b 388 1 372 -1 372 1 b 421 3 404 1 404 3 b 454 0 438 3 438 0 b 488 1 465 0 476 1 b 521 6 499 1 510 6 b 556 10 533 7 544 8 b 589 15 567 11 578 13 b 621 25 600 18 611 22 b 654 33 632 28 643 29 b 685 49 665 38 675 44 b 715 64 696 53 706 58 b 746 78 725 69 738 71 b 774 99 756 83 764 92 b 800 119 782 106 792 113 b 825 143 808 126 817 135 b 849 167 833 150 842 158 b 872 190 856 175 865 182 b 890 221 879 200 883 211 b 907 250 896 231 903 239 b 925 279 913 260 919 268 b 935 313 929 289 931 301 b 944 344 939 322 942 333 b 958 376 947 356 956 365 b 963 410 961 386 961 399 b 964 443 964 421 963 432 b 968 478 965 456 968 465 b 968 511 969 489 968 500 b 969 546 968 522 969 535 z m 417 889 b 436 897 424 892 431 894 b 440 892 439 899 442 896 b 417 881 438 882 432 876 b 417 889 414 881 413 886 z m 313 911 b 342 917 321 922 331 921 b 342 911 344 915 344 911 b 317 901 333 908 325 904 b 314 903 315 901 314 901 b 313 910 313 906 313 907 b 313 911 311 910 313 911 z m 260 879 b 265 888 260 883 263 886 b 268 888 267 888 268 888 b 281 875 274 888 282 881 b 274 869 279 872 276 871 b 268 867 272 868 269 868 b 265 867 268 867 267 867 b 260 879 260 868 260 875 z m 213 740 b 217 743 214 742 215 743 b 250 742 228 743 239 744 b 260 733 253 742 257 738 b 258 726 261 732 261 728 b 250 722 256 724 253 721 b 215 735 238 725 226 729 b 213 740 213 735 213 738 z m 260 626 b 233 626 247 619 242 619 b 236 636 229 631 231 636 l 257 636 b 260 626 263 636 264 629 z m 219 406 b 222 403 221 406 222 404 b 221 399 222 401 221 400 b 219 396 221 397 221 396 l 182 396 b 182 400 181 396 179 399 b 219 406 194 408 207 408 z m 174 489 b 189 482 178 497 193 492 b 174 489 186 471 165 475 z m 172 878 b 179 875 175 878 178 878 b 182 872 181 875 181 874 b 201 861 188 867 203 872 b 178 854 200 851 185 850 b 172 878 171 858 151 881 z m 189 182 b 160 189 176 172 175 174 b 161 192 158 190 160 193 b 188 186 171 189 179 188 b 189 182 189 186 190 183 z m 247 189 b 232 189 243 186 238 186 b 232 190 232 189 232 190 b 236 199 222 196 228 203 b 247 194 240 197 243 196 b 250 193 249 194 250 193 b 247 189 250 190 249 190 z m 267 263 b 249 265 261 264 254 265 b 226 260 240 265 233 264 b 217 256 224 258 221 257 b 192 254 210 253 200 254 b 169 251 185 253 178 250 b 168 253 169 251 169 253 b 168 254 168 253 168 254 b 169 263 167 257 167 260 b 171 264 169 263 169 264 b 197 268 178 269 189 268 b 228 275 208 268 218 271 b 240 279 232 276 236 279 b 265 278 249 282 257 279 b 283 268 272 276 279 275 b 285 265 285 268 285 267 b 282 264 285 264 283 264 b 279 263 281 263 279 263 b 267 263 275 263 271 263 z m 332 147 b 331 146 331 147 331 146 b 296 140 325 139 303 140 b 286 156 283 140 268 147 b 317 161 294 161 306 163 b 332 147 325 160 335 154 z m 382 107 b 356 107 372 100 365 96 b 357 110 354 108 356 110 l 382 110 b 382 107 383 110 383 107 z m 361 193 b 375 199 367 194 371 197 b 378 194 376 200 379 197 b 363 186 376 188 372 183 b 361 193 360 188 360 192 z m 690 478 b 682 444 689 467 685 456 b 676 413 681 433 681 422 b 664 382 674 401 668 392 b 649 351 660 371 654 361 b 632 322 643 342 639 331 b 608 299 625 314 617 307 b 582 279 600 292 590 286 b 554 258 572 272 565 264 b 522 249 544 253 533 253 b 490 238 513 246 501 240 b 457 232 479 236 468 233 b 424 231 446 232 435 231 b 394 232 410 231 410 231 b 367 235 381 232 381 235 b 342 242 357 235 347 236 b 332 267 335 249 332 257 b 333 299 332 283 333 283 b 331 332 333 315 331 315 b 329 364 331 349 329 349 b 335 397 329 381 335 381 b 333 429 335 414 333 414 b 331 463 333 446 331 446 b 332 494 331 479 332 479 b 331 528 332 511 331 511 b 332 560 331 544 332 544 b 331 593 332 576 331 576 b 332 625 331 610 332 610 b 329 658 332 642 329 642 b 329 692 329 675 329 675 b 329 724 329 707 329 707 b 332 757 329 740 332 740 b 340 782 332 765 335 776 b 367 793 346 789 357 793 b 394 789 381 793 381 789 b 424 793 410 789 410 793 b 457 786 435 793 446 788 b 490 785 468 785 479 788 b 522 774 501 783 513 778 b 554 764 533 771 544 769 b 582 746 564 758 574 751 b 608 724 592 739 600 732 b 632 700 617 717 625 710 b 653 674 639 692 646 683 b 668 643 658 664 663 654 b 679 611 672 633 676 622 b 685 578 683 601 682 589 b 690 544 686 568 689 557 b 692 511 690 535 692 522 b 690 478 692 500 692 489 z m 829 731 b 854 733 836 738 844 738 b 854 729 856 732 856 731 b 833 724 847 728 840 725 b 831 724 832 722 831 724 b 829 729 831 725 829 726 b 829 731 829 729 829 729 z m 833 549 l 832 546 b 833 550 833 547 833 549 b 843 553 836 550 839 553 b 850 549 846 554 850 553 b 847 544 850 547 849 546 b 838 542 844 543 842 540 b 832 546 835 542 833 543 b 832 543 832 544 832 544 l 832 546 b 833 549 832 547 832 549 z m 763 631 b 801 639 778 633 790 636 b 804 638 803 639 804 639 b 804 635 804 636 804 635 b 804 632 806 633 804 632 b 763 628 792 625 779 625 b 763 631 761 628 761 631 z m 772 538 b 754 547 767 538 750 538 b 783 546 757 557 783 554 b 782 543 783 546 783 544 b 772 538 781 540 776 539 z m 807 300 b 786 300 799 297 793 297 b 788 304 785 300 785 304 l 806 304 b 807 300 808 304 808 300 z m 810 364 b 775 353 796 354 792 353 b 774 357 774 353 772 356 b 808 368 781 364 785 365 b 810 364 810 368 811 365 z m 854 446 b 839 440 850 443 844 440 b 822 451 831 438 815 440 b 824 453 822 451 824 453 b 849 458 829 458 842 460 b 854 446 858 457 865 453 z "},"E":{"ha":850,"x_min":0,"x_max":0,"o":"m 793 131 b 794 163 793 146 794 146 b 794 194 794 178 794 178 b 786 219 794 204 793 214 b 761 232 781 226 771 232 b 728 232 744 232 744 232 b 694 229 711 232 711 229 b 663 228 679 229 679 228 b 629 231 646 228 646 231 b 596 226 613 231 613 226 b 564 231 579 226 579 231 b 531 226 547 231 547 226 b 497 226 514 226 514 226 b 464 226 481 226 481 226 b 432 228 449 226 449 228 b 399 231 415 228 415 231 b 365 228 382 231 382 228 b 340 238 357 228 347 232 b 331 263 335 244 331 253 b 335 299 331 281 335 281 b 333 335 335 317 333 317 b 332 369 333 353 332 353 b 342 393 332 379 336 388 b 365 404 349 400 357 404 b 399 403 382 404 382 403 b 432 404 415 403 415 404 b 467 403 449 404 449 403 b 500 401 483 403 483 401 b 533 403 517 401 517 403 b 567 404 550 403 550 404 b 600 404 583 404 583 404 b 633 403 617 404 617 403 b 667 403 650 403 650 403 b 689 415 676 403 683 410 b 703 439 696 422 703 429 b 701 476 703 457 701 457 b 703 513 701 494 703 494 b 699 550 703 532 699 532 b 700 588 699 569 700 569 b 690 611 700 597 697 606 b 667 621 685 618 676 621 b 633 621 650 621 650 621 b 600 624 617 621 617 624 b 567 621 583 624 583 621 b 533 619 550 621 550 619 b 500 621 517 619 517 621 b 465 624 483 621 483 624 b 432 619 449 624 449 619 b 399 624 415 619 415 624 b 365 619 382 624 382 619 b 343 633 357 619 349 628 b 332 656 338 639 332 647 b 331 689 332 672 331 672 b 329 722 331 706 329 706 b 331 756 329 739 331 739 b 340 782 331 765 333 775 b 365 793 346 788 357 793 b 400 788 383 793 383 788 b 433 792 417 788 417 792 b 468 793 451 792 451 793 b 501 790 485 793 485 790 b 536 789 519 790 519 789 b 569 788 553 789 553 788 b 604 788 588 788 588 788 b 638 792 621 788 621 792 b 672 788 656 792 656 788 b 706 789 689 788 689 789 b 740 788 724 789 724 788 b 763 801 750 788 757 796 b 771 824 769 808 771 815 b 776 857 771 840 776 840 b 771 889 776 872 771 872 b 778 921 771 904 778 904 b 776 953 778 938 776 938 b 775 985 776 969 775 969 b 764 1008 775 994 769 1003 b 740 1022 757 1015 750 1022 b 706 1019 724 1022 724 1019 b 672 1018 689 1019 689 1018 b 638 1021 654 1018 654 1021 b 604 1021 621 1021 621 1021 b 569 1018 586 1021 586 1018 b 536 1018 553 1018 553 1018 b 501 1019 518 1018 518 1019 b 468 1018 485 1019 485 1018 b 433 1022 450 1018 450 1022 b 399 1022 417 1022 417 1022 b 365 1021 382 1022 382 1021 b 331 1021 349 1021 349 1021 b 297 1022 314 1021 314 1022 b 263 1019 281 1022 281 1019 b 229 1021 246 1019 246 1021 b 194 1021 213 1021 213 1021 b 161 1019 178 1021 178 1019 b 126 1021 143 1019 143 1021 b 93 1019 110 1021 110 1019 b 68 1010 83 1019 74 1017 b 60 985 61 1004 60 994 b 61 953 60 969 61 969 b 57 919 61 936 57 936 b 60 886 57 903 60 903 b 60 854 60 871 60 871 b 60 821 60 838 60 838 b 60 789 60 804 60 804 b 56 756 60 772 56 772 b 60 722 56 739 60 739 b 58 690 60 706 58 706 b 57 657 58 674 57 674 b 60 624 57 640 60 640 b 61 592 60 608 61 608 b 56 558 61 575 56 575 b 57 525 56 542 57 542 b 61 493 57 510 61 510 b 58 460 61 476 58 476 b 60 428 58 443 60 443 b 58 394 60 411 58 411 b 60 361 58 378 60 378 b 58 329 60 344 58 344 b 61 296 58 313 61 313 b 61 263 61 279 61 279 b 61 231 61 247 61 247 b 58 197 61 214 58 214 b 61 164 58 181 61 181 b 61 132 61 149 61 149 b 57 99 61 115 57 115 b 61 67 57 82 61 82 b 56 33 61 50 56 50 b 69 10 56 24 63 17 b 93 -1 75 4 83 -1 b 126 0 110 -1 110 0 b 160 -1 143 0 143 -1 b 193 -3 176 -1 176 -3 b 226 0 210 -3 210 0 b 260 0 243 0 243 0 b 293 1 276 0 276 1 b 326 1 310 1 310 1 b 360 -1 343 1 343 -1 b 393 0 376 -1 376 0 b 426 0 410 0 410 0 b 460 0 443 0 443 0 b 493 -4 476 0 476 -4 b 526 -1 510 -4 510 -1 b 561 -4 544 -1 544 -4 b 594 -4 578 -4 578 -4 b 628 0 611 -4 611 0 b 661 -3 644 0 644 -3 b 694 -3 678 -3 678 -3 b 728 1 711 -3 711 1 b 761 -3 744 1 744 -3 b 785 10 771 -3 778 3 b 794 33 790 15 794 24 b 793 65 794 50 793 50 b 793 97 793 82 793 82 b 793 131 793 114 793 114 z m 425 513 b 436 517 431 514 433 515 b 438 515 438 517 438 515 b 439 513 439 514 439 514 b 439 511 439 513 439 511 b 425 510 435 507 432 507 b 425 513 424 511 424 513 z m 390 497 b 390 493 392 497 392 494 b 375 490 386 489 381 488 b 375 493 374 490 374 492 b 390 497 379 499 383 499 z m 374 539 b 382 532 381 540 382 539 b 379 529 382 529 381 528 b 372 535 376 531 375 533 b 374 539 371 536 372 539 z m 301 840 b 307 838 304 839 306 839 b 308 832 308 838 310 835 b 304 831 308 831 306 829 b 300 833 303 832 301 832 b 301 840 299 835 301 840 z m 265 764 b 282 769 271 765 278 768 b 288 767 285 771 288 769 b 283 760 288 763 286 760 b 265 760 279 760 272 760 b 265 764 263 758 263 763 z m 229 665 b 246 667 235 667 240 667 b 249 660 249 667 250 661 b 224 657 242 654 231 653 b 222 658 224 658 222 658 b 222 660 222 660 222 660 b 229 665 217 665 226 665 z m 203 886 b 206 885 204 886 204 885 b 204 872 210 881 208 875 b 201 872 203 872 203 872 b 199 874 200 872 200 874 b 203 886 194 878 197 886 z m 189 833 b 224 835 200 833 211 835 b 226 828 226 835 228 832 b 188 825 219 813 214 813 b 189 833 183 826 185 833 z m 194 306 b 194 304 194 306 194 306 b 189 306 193 304 190 304 b 189 307 189 306 189 307 b 189 313 186 308 188 311 b 190 314 190 314 190 314 b 194 311 192 314 193 313 b 194 306 196 310 196 307 z m 199 629 b 210 646 200 643 204 651 b 247 639 222 633 235 638 b 250 629 249 639 250 633 b 243 622 249 625 246 622 b 204 626 229 626 217 619 b 201 626 203 628 201 626 b 199 629 200 625 199 626 z m 240 486 b 236 483 239 485 238 482 b 219 486 231 483 219 486 b 224 490 219 489 221 490 b 236 492 228 490 232 490 b 240 486 238 492 240 489 z m 213 576 b 210 572 211 575 210 574 b 207 572 208 572 207 572 b 203 576 204 575 203 575 b 206 583 203 579 206 583 b 211 579 208 582 210 581 b 213 576 213 579 213 578 z m 203 394 b 239 401 214 397 226 400 b 249 403 242 403 246 403 b 251 396 253 403 254 399 b 233 388 246 390 239 389 b 207 383 225 383 215 385 b 203 394 200 382 199 393 z m 218 250 b 208 260 210 250 210 251 b 207 263 207 261 207 263 b 210 265 208 264 208 264 b 229 265 217 267 224 267 b 232 264 231 265 231 265 b 232 263 232 264 232 264 b 235 258 232 261 233 258 b 238 256 235 257 236 257 b 239 256 238 256 239 256 b 239 253 239 254 239 254 b 218 250 239 250 221 250 z m 253 154 b 253 153 253 153 253 153 b 250 153 251 151 250 153 b 240 156 247 156 243 156 b 236 156 239 156 238 154 b 233 157 235 156 233 156 b 251 164 222 167 244 171 b 253 154 254 161 256 158 z m 256 453 b 271 453 263 458 264 458 b 269 449 272 451 271 449 b 257 447 265 449 261 449 b 256 453 256 447 254 450 z m 285 219 b 283 217 285 219 283 218 b 258 215 276 213 265 214 b 258 218 257 215 257 218 b 274 225 265 219 268 222 b 285 219 279 229 288 225 z m 297 569 b 267 558 286 567 276 563 b 263 561 265 558 264 558 b 261 568 263 563 261 565 b 261 571 261 568 261 569 b 297 575 271 583 283 582 b 297 569 299 575 299 571 z m 297 889 b 285 883 294 883 290 882 b 282 886 283 883 282 885 b 285 892 282 889 283 890 b 293 896 288 893 290 894 b 297 889 297 897 300 892 z m 317 179 b 315 178 315 179 315 178 b 313 178 315 178 314 176 b 304 185 310 179 307 182 b 303 189 303 185 301 188 b 306 189 304 189 306 190 b 315 182 310 188 313 185 b 317 179 317 182 317 179 z m 322 504 b 300 508 311 500 308 500 b 300 511 299 510 299 511 b 340 514 314 513 326 513 b 342 511 342 514 343 513 b 333 507 340 508 338 507 b 322 504 329 507 325 507 z m 358 164 b 336 156 350 156 347 154 b 335 158 335 156 333 157 b 357 167 339 163 342 164 b 358 164 360 167 360 164 z "},"F":{"ha":810,"x_min":0,"x_max":0,"o":"m 754 860 b 750 893 754 876 750 876 b 753 925 750 908 753 908 b 753 957 753 940 753 940 b 753 989 753 972 753 972 b 742 1013 753 999 749 1007 b 718 1024 736 1019 728 1024 b 685 1022 701 1024 701 1022 b 653 1021 668 1022 668 1021 b 619 1026 636 1021 636 1026 b 586 1025 603 1026 603 1025 b 554 1021 569 1025 569 1021 b 521 1021 538 1021 538 1021 b 488 1025 504 1021 504 1025 b 456 1021 471 1025 471 1021 b 422 1024 439 1021 439 1024 b 389 1024 406 1024 406 1024 b 357 1022 372 1024 372 1022 b 324 1021 340 1022 340 1021 b 290 1022 307 1021 307 1022 b 258 1024 274 1022 274 1024 b 225 1025 242 1024 242 1025 b 192 1021 208 1025 208 1021 b 158 1025 175 1021 175 1025 b 126 1025 143 1025 143 1025 b 93 1024 110 1025 110 1024 b 71 1013 83 1024 76 1018 b 57 989 64 1006 57 999 b 58 956 57 972 58 972 b 61 924 58 940 61 940 b 61 890 61 907 61 907 b 60 858 61 874 60 874 b 61 825 60 842 61 842 b 61 792 61 808 61 808 b 56 760 61 775 56 775 b 60 726 56 743 60 743 b 63 693 60 710 63 710 b 60 661 63 678 60 678 b 58 628 60 644 58 644 b 57 594 58 611 57 611 b 57 563 57 579 57 579 b 61 529 57 546 61 546 b 57 497 61 513 57 513 b 58 464 57 481 58 481 b 57 431 58 447 57 447 b 61 399 57 414 61 414 b 63 365 61 382 63 382 b 57 332 63 349 57 349 b 63 300 57 317 63 317 b 56 267 63 283 56 283 b 57 233 56 250 57 250 b 58 201 57 218 58 218 b 60 168 58 185 60 185 b 57 136 60 151 57 151 b 58 103 57 119 58 119 b 61 69 58 86 61 86 b 58 38 61 53 58 53 b 68 13 58 28 63 18 b 93 4 75 6 83 4 b 128 4 110 4 110 4 b 161 3 144 4 144 3 b 196 4 179 3 179 4 b 229 1 213 4 213 1 b 264 0 247 1 247 0 b 297 1 281 0 281 1 b 322 13 307 1 317 6 b 335 38 329 18 335 28 b 332 69 335 53 332 53 b 333 100 332 85 333 85 b 333 132 333 117 333 117 b 332 164 333 149 332 149 b 333 196 332 181 333 181 b 332 228 333 211 332 211 b 329 260 332 243 329 243 b 332 290 329 275 332 275 b 335 322 332 307 335 307 b 343 346 335 332 336 340 b 367 356 349 353 357 356 b 400 358 383 356 383 358 b 433 357 417 358 417 357 b 467 357 450 357 450 357 b 501 358 483 357 483 358 b 535 356 518 358 518 356 b 568 356 551 356 551 356 b 601 357 585 356 585 357 b 635 358 618 357 618 358 b 668 356 651 358 651 356 b 693 367 678 356 688 360 b 703 392 700 372 703 382 b 700 424 703 407 700 407 b 700 456 700 439 700 439 b 701 488 700 472 701 472 b 703 519 701 504 703 504 b 706 553 703 536 706 536 b 693 576 706 561 700 571 b 668 588 688 583 678 588 b 635 589 651 588 651 589 b 601 585 618 589 618 585 b 568 586 585 585 585 586 b 535 589 551 586 551 589 b 500 583 518 589 518 583 b 467 586 483 583 483 586 b 433 585 450 586 450 585 b 400 588 417 585 417 588 b 367 586 383 588 383 586 b 344 599 357 586 350 593 b 331 621 338 604 331 611 b 332 656 331 638 332 638 b 335 690 332 672 335 672 b 333 725 335 707 333 707 b 333 760 333 742 333 742 b 342 785 333 769 335 778 b 367 793 347 790 357 793 b 399 796 382 793 382 796 b 431 792 414 796 414 792 b 463 792 446 792 446 792 b 494 790 478 792 478 790 b 526 796 510 790 510 796 b 558 794 542 796 542 794 b 590 796 574 794 574 796 b 622 796 606 796 606 796 b 654 792 638 796 638 792 b 686 793 671 792 671 793 b 718 792 703 793 703 792 b 743 803 728 792 738 796 b 750 828 750 808 750 818 b 754 860 750 844 754 844 z m 282 564 b 276 554 283 558 281 554 b 250 558 268 553 256 554 b 253 565 249 561 250 565 b 281 565 263 565 271 565 b 282 564 281 565 281 564 z m 256 432 b 249 431 253 431 251 431 b 244 435 247 431 244 432 b 249 439 244 438 247 439 b 251 439 250 439 251 439 b 256 435 254 439 256 438 b 256 432 256 433 256 432 z m 224 815 b 246 815 232 818 239 818 b 264 807 250 814 263 811 b 263 803 264 806 264 804 b 251 793 261 797 256 794 b 233 792 244 793 239 786 b 224 813 226 796 225 806 b 224 815 222 814 224 815 z m 194 894 b 210 899 199 896 204 899 b 213 897 211 899 211 899 b 214 896 213 897 213 897 b 207 882 215 893 211 883 b 193 892 203 881 196 889 b 194 894 192 892 193 894 z m 200 460 b 197 451 203 457 201 451 b 185 453 193 453 189 453 b 183 461 181 454 181 460 b 200 460 190 467 193 465 z m 172 779 b 189 771 176 776 183 774 b 188 765 192 769 190 765 b 171 775 181 767 174 771 b 172 779 169 778 171 779 z m 176 156 b 174 151 176 153 175 151 b 165 153 171 151 168 153 b 165 154 165 153 165 154 b 168 158 164 157 165 158 b 174 158 169 158 171 158 b 176 156 175 158 176 157 z m 183 269 b 181 276 181 269 179 274 b 213 288 189 289 201 289 b 214 281 215 288 217 283 b 183 269 204 275 194 269 z m 222 156 b 210 161 218 156 213 157 b 213 171 208 164 210 169 b 231 165 221 174 228 175 b 222 156 232 160 228 154 z m 229 649 b 213 654 224 651 218 650 b 199 671 208 658 203 660 b 200 675 199 672 199 675 b 208 674 203 675 206 674 b 232 664 217 671 224 667 b 236 661 233 663 235 661 b 236 653 238 660 238 654 b 229 649 233 650 231 649 z m 256 247 b 246 246 253 246 249 246 b 242 250 243 246 242 247 b 246 253 243 251 244 253 b 253 253 249 253 251 253 b 256 249 256 253 257 250 b 256 247 256 247 256 247 z m 279 342 b 238 338 261 336 247 336 b 238 343 235 338 235 343 b 258 349 244 346 253 347 b 281 349 265 350 272 354 b 279 342 283 347 282 343 z m 353 469 b 371 464 361 472 369 474 b 363 453 372 458 368 453 b 349 460 357 453 351 454 b 353 469 347 463 349 468 z m 339 400 b 336 397 339 399 338 397 b 326 399 333 397 331 397 b 326 400 326 399 326 399 b 329 404 326 403 328 404 b 336 404 332 404 333 404 b 339 400 338 404 339 403 z m 332 511 b 336 506 335 511 336 508 b 336 503 336 504 336 503 b 322 501 331 503 326 503 b 317 507 319 501 317 504 l 317 508 b 322 513 318 510 319 513 b 332 511 325 513 329 511 z "},"G":{"ha":1110,"x_min":0,"x_max":0,"o":"m 1054 308 b 1051 340 1054 325 1051 325 b 1054 374 1051 357 1054 357 b 1050 406 1054 389 1050 389 b 1050 439 1050 422 1050 422 b 1049 471 1050 454 1049 454 b 1050 503 1049 488 1050 488 b 1050 536 1050 519 1050 519 b 1040 560 1050 546 1047 553 b 1017 569 1035 565 1026 569 b 982 568 1000 569 1000 568 b 949 567 965 568 965 567 b 914 568 931 567 931 568 b 879 569 897 568 897 569 b 846 568 863 569 863 568 b 811 568 828 568 828 568 b 776 569 794 568 794 569 b 743 569 760 569 760 569 b 708 569 725 569 725 569 b 674 572 692 569 692 572 b 640 571 657 572 657 571 b 614 563 631 571 619 568 b 608 536 607 556 608 546 b 604 500 608 518 604 518 b 607 465 604 483 607 483 b 608 429 607 447 608 447 b 606 394 608 413 606 413 b 615 371 606 385 610 376 b 640 360 622 364 631 360 b 674 363 657 360 657 363 b 707 363 690 363 690 363 b 740 363 724 363 724 363 b 774 358 757 363 757 358 b 797 350 783 358 792 356 b 806 326 804 343 806 335 b 811 281 806 303 811 303 b 788 249 811 267 800 254 b 753 235 776 244 765 239 b 718 229 743 232 731 232 b 682 221 707 226 694 224 b 646 221 671 219 658 222 b 610 217 635 221 622 217 b 578 218 599 217 588 218 b 546 226 567 219 557 225 b 515 233 535 229 525 231 b 485 244 504 238 494 240 b 456 258 475 250 464 253 b 432 281 446 264 439 274 b 406 300 424 288 414 293 b 390 329 399 308 396 319 b 374 357 383 338 379 347 b 361 386 369 367 365 376 b 347 415 357 396 350 404 b 340 447 344 425 343 436 b 335 479 339 457 336 468 b 335 511 335 490 335 501 b 340 544 335 522 339 533 b 343 578 340 556 342 567 b 353 610 344 589 349 599 b 361 642 356 621 357 632 b 372 674 365 651 367 664 b 393 699 376 683 388 690 b 413 728 400 708 404 719 b 439 747 419 735 431 740 b 467 765 449 754 457 760 b 497 779 476 771 486 775 b 529 790 507 783 518 788 b 561 794 539 792 550 793 b 594 799 572 796 583 799 b 628 797 606 799 617 799 b 658 788 639 796 649 790 b 690 781 669 785 681 783 b 722 772 701 776 713 776 b 750 756 732 767 742 761 b 774 733 760 750 767 740 b 800 714 782 726 793 722 b 822 701 807 707 814 701 b 846 710 831 701 839 704 b 869 731 858 719 857 719 b 890 753 881 740 879 742 b 915 771 901 763 904 760 b 939 790 926 781 928 779 b 963 810 950 800 951 799 b 983 832 974 819 972 822 b 999 854 990 839 999 844 b 989 881 999 863 996 874 b 965 904 982 889 974 896 b 939 922 957 911 947 915 b 915 946 929 929 924 940 b 886 964 906 953 896 958 b 856 978 878 969 867 972 b 826 992 846 982 836 988 b 796 1004 817 996 807 1001 b 764 1014 786 1008 775 1010 b 732 1018 754 1017 743 1017 b 700 1026 721 1021 711 1025 b 667 1032 689 1028 678 1031 b 633 1036 656 1033 644 1035 b 601 1033 624 1036 613 1033 b 568 1031 589 1033 579 1031 b 535 1028 556 1029 544 1029 b 500 1026 522 1026 511 1028 b 468 1019 489 1024 478 1021 b 436 1007 457 1017 447 1011 b 404 999 425 1004 414 1001 b 372 988 393 994 382 992 b 342 971 361 983 353 976 b 310 960 332 967 319 965 b 285 938 301 954 294 944 b 256 921 275 932 264 928 b 231 897 247 914 239 904 b 207 874 222 890 215 882 b 181 853 200 865 188 861 b 163 824 174 844 169 833 b 142 797 156 815 147 807 b 122 769 135 789 128 779 b 107 740 117 760 113 750 b 97 708 103 729 101 718 b 82 678 93 697 86 688 b 74 644 79 667 76 656 b 68 611 71 635 71 622 b 63 579 67 600 64 590 b 56 546 61 568 57 557 b 57 511 56 535 57 524 b 57 478 57 500 56 489 b 61 444 57 467 60 456 b 65 411 63 433 64 421 b 75 378 68 399 72 389 b 85 346 78 367 81 356 b 97 314 88 335 93 324 b 107 282 101 303 103 292 b 124 251 113 271 118 261 b 144 225 129 242 138 233 b 165 199 150 215 158 207 b 182 168 172 189 175 176 b 207 144 190 160 199 153 b 232 122 214 136 224 129 b 260 103 240 115 251 110 b 285 79 269 96 275 86 b 315 64 294 74 306 69 b 344 46 325 58 333 50 b 375 32 354 40 365 36 b 407 21 386 28 397 25 b 440 14 418 17 429 17 b 472 3 451 11 461 4 b 506 -3 483 0 494 0 b 539 -10 517 -4 528 -8 b 574 -8 550 -11 561 -8 b 607 -11 585 -10 596 -11 b 640 -14 618 -11 629 -15 b 672 -12 651 -14 663 -12 b 706 -7 683 -12 694 -8 b 738 -1 717 -6 726 -3 b 769 3 749 0 760 0 b 803 6 781 4 793 4 b 835 14 814 8 825 11 b 865 25 846 17 856 21 b 896 38 876 28 886 33 b 925 51 907 42 915 47 b 956 64 936 56 946 60 b 985 81 965 69 975 74 b 1014 96 994 86 1004 90 b 1040 117 1022 103 1032 110 b 1051 146 1049 122 1051 135 b 1054 178 1051 161 1054 161 b 1050 210 1054 194 1050 194 b 1049 243 1050 226 1049 226 b 1053 275 1049 260 1053 260 b 1054 308 1053 292 1054 292 z m 492 897 b 515 904 499 900 508 903 b 524 900 519 906 522 903 b 518 893 524 896 522 893 b 494 889 510 892 503 890 b 492 897 490 889 488 894 z m 421 831 b 438 836 426 832 432 835 b 449 832 442 839 446 836 b 443 821 450 828 447 822 b 419 813 436 818 428 815 b 417 819 419 813 418 815 b 421 831 415 824 417 829 z m 185 375 b 178 374 182 374 179 372 b 172 378 175 374 174 375 b 175 385 171 379 172 383 b 181 386 176 385 179 386 b 186 382 182 386 183 383 b 185 375 188 379 188 376 z m 203 653 b 194 657 199 651 196 654 b 194 664 194 660 194 661 b 197 669 193 667 194 669 b 232 678 210 672 221 675 b 236 668 239 681 242 671 b 203 653 225 663 213 657 z m 246 461 b 210 472 232 458 221 465 b 207 479 207 474 206 476 b 207 481 207 479 207 481 b 215 483 208 483 211 485 b 247 474 225 481 236 478 b 246 461 253 472 253 463 z m 357 849 b 360 854 357 851 358 853 b 361 856 360 856 361 856 b 367 857 363 857 365 857 b 371 857 368 857 369 857 b 375 854 372 857 375 857 b 376 851 376 853 376 851 b 376 843 376 849 376 846 b 374 840 375 842 374 840 b 361 839 369 838 364 836 b 358 842 360 839 358 840 b 357 849 357 843 357 846 z m 261 576 b 264 588 256 581 258 589 b 276 586 268 588 272 588 b 282 579 281 586 283 583 b 281 575 282 578 282 576 b 274 571 281 572 276 569 b 261 576 269 572 265 575 z m 281 319 b 276 319 279 319 278 319 b 269 325 272 319 269 322 b 271 329 271 326 271 328 b 279 335 272 333 275 336 l 281 335 b 281 319 289 333 289 321 z m 306 751 b 299 754 303 751 301 753 b 297 768 294 757 293 764 b 301 769 299 769 300 771 b 310 761 304 767 307 764 b 313 761 311 761 313 761 b 332 772 319 765 325 771 b 354 767 340 772 347 771 b 354 758 358 765 358 760 b 306 751 339 750 322 753 z m 364 233 b 358 231 361 232 360 232 b 351 238 357 231 351 236 b 357 243 353 239 354 242 b 364 243 358 244 361 244 b 364 233 367 240 367 236 z m 800 93 b 786 93 794 93 790 93 b 783 103 782 94 781 100 b 803 101 792 107 794 107 b 800 93 807 99 804 92 z m 818 411 b 829 410 822 411 826 410 b 860 397 839 406 850 401 b 864 394 861 397 863 396 b 864 386 867 393 867 388 b 856 382 863 383 858 381 b 835 388 849 385 840 382 b 817 406 829 392 822 393 b 818 411 815 408 817 411 z m 874 172 b 825 172 856 168 840 167 b 825 181 821 174 821 179 b 836 181 829 181 832 181 b 868 182 846 181 857 176 b 874 179 869 182 872 182 b 874 172 878 178 876 174 z m 939 206 b 921 199 935 196 928 196 b 919 206 917 199 917 204 b 935 211 924 207 929 208 b 939 206 938 211 940 208 z m 936 272 b 904 278 926 272 911 274 b 907 286 901 281 903 286 b 943 285 919 286 931 286 b 944 283 943 285 943 285 b 936 272 946 279 942 274 z m 943 329 b 933 333 938 328 936 331 b 933 339 932 335 932 338 b 939 340 935 340 936 342 b 944 338 940 339 942 339 b 943 329 947 336 947 331 z "},"H":{"ha":1018,"x_min":0,"x_max":0,"o":"m 961 399 b 958 432 961 415 958 415 b 958 464 958 447 958 447 b 960 497 958 481 960 481 b 960 529 960 514 960 514 b 960 563 960 546 960 546 b 958 596 960 579 958 579 b 963 628 958 613 963 613 b 960 661 963 644 960 644 b 957 694 960 678 957 678 b 957 726 957 710 957 710 b 957 760 957 743 957 743 b 958 793 957 776 958 776 b 958 825 958 808 958 808 b 963 858 958 842 963 842 b 960 890 963 875 960 875 b 958 924 960 907 958 907 b 960 957 958 940 960 940 b 961 989 960 972 961 972 b 949 1013 961 999 956 1007 b 925 1022 943 1019 935 1022 b 890 1025 908 1022 908 1025 b 857 1025 874 1025 874 1025 b 822 1025 840 1025 840 1025 b 789 1022 806 1025 806 1022 b 754 1021 771 1022 771 1021 b 721 1024 738 1021 738 1024 b 694 1015 711 1024 701 1021 b 685 989 689 1008 685 999 b 689 957 685 974 689 974 b 686 925 689 940 686 940 b 688 892 686 908 688 908 b 685 860 688 876 685 876 b 689 828 685 844 689 844 b 688 796 689 811 688 811 b 683 763 688 779 683 779 b 683 731 683 747 683 747 b 686 699 683 715 686 715 b 689 667 686 682 689 682 b 676 640 689 657 683 647 b 651 633 671 635 661 633 b 619 633 636 633 636 633 b 589 632 604 633 604 632 b 557 631 572 632 572 631 b 525 629 540 631 540 629 b 493 632 508 629 508 632 b 461 632 478 632 478 632 b 429 635 446 632 446 635 b 397 635 414 635 414 635 b 367 632 382 635 382 632 b 343 643 357 632 350 638 b 331 667 338 650 331 657 b 329 699 331 682 329 682 b 333 731 329 715 333 715 b 335 763 333 747 335 747 b 332 796 335 779 332 779 b 335 828 332 811 335 811 b 331 860 335 844 331 844 b 331 893 331 876 331 876 b 329 925 331 908 329 908 b 331 957 329 940 331 940 b 331 989 331 974 331 974 b 321 1013 331 999 328 1007 b 297 1024 315 1019 307 1024 b 264 1022 281 1024 281 1022 b 229 1021 246 1022 246 1021 b 196 1022 213 1021 213 1022 b 161 1024 178 1022 178 1024 b 126 1021 144 1024 144 1021 b 93 1022 110 1021 110 1022 b 69 1014 83 1022 75 1019 b 58 989 63 1007 58 999 b 58 957 58 972 58 972 b 57 924 58 940 57 940 b 58 890 57 907 58 907 b 56 858 58 875 56 875 b 61 825 56 842 61 842 b 57 792 61 808 57 808 b 60 760 57 776 60 776 b 61 726 60 743 61 743 b 60 694 61 710 60 710 b 58 661 60 678 58 678 b 58 628 58 644 58 644 b 61 596 58 611 61 611 b 61 563 61 579 61 579 b 61 529 61 546 61 546 b 57 497 61 514 57 514 b 60 464 57 481 60 481 b 56 431 60 447 56 447 b 60 399 56 415 60 415 b 60 365 60 382 60 382 b 60 333 60 349 60 349 b 57 300 60 317 57 317 b 57 267 57 283 57 283 b 60 235 57 250 60 250 b 58 201 60 218 58 218 b 57 168 58 185 57 185 b 60 136 57 153 60 153 b 57 103 60 119 57 119 b 57 69 57 86 57 86 b 58 38 57 54 58 54 b 68 13 58 28 63 19 b 93 4 75 7 83 4 b 126 4 110 4 110 4 b 161 1 144 4 144 1 b 196 3 178 1 178 3 b 229 3 213 3 213 3 b 264 6 246 3 246 6 b 297 4 281 6 281 4 b 324 11 307 4 317 6 b 331 38 329 18 331 28 b 329 71 331 54 329 54 b 329 103 329 88 329 88 b 333 136 329 119 333 119 b 331 169 333 153 331 153 b 333 203 331 186 333 186 b 329 236 333 219 329 219 b 332 269 329 253 332 253 b 333 301 332 285 333 285 b 329 335 333 318 329 318 b 331 368 329 351 331 351 b 340 393 331 378 335 388 b 367 401 347 400 357 401 b 397 403 382 401 382 403 b 429 403 414 403 414 403 b 461 400 446 403 446 400 b 493 404 478 400 478 404 b 525 403 508 404 508 403 b 557 404 540 403 540 404 b 589 401 572 404 572 401 b 619 404 604 401 604 404 b 651 404 636 404 636 404 b 674 390 661 404 668 397 b 688 368 681 385 688 378 b 683 335 688 351 683 351 b 688 301 683 318 688 318 b 688 269 688 285 688 285 b 688 236 688 253 688 253 b 683 203 688 219 683 219 b 689 169 683 186 689 186 b 686 136 689 153 686 153 b 683 103 686 119 683 119 b 683 71 683 88 683 88 b 685 38 683 54 685 54 b 697 14 685 28 690 21 b 721 1 703 8 711 1 b 754 1 738 1 738 1 b 789 6 771 1 771 6 b 822 0 806 6 806 0 b 857 1 840 0 840 1 b 890 3 874 1 874 3 b 925 4 908 3 908 4 b 949 14 935 4 943 7 b 957 38 956 19 957 28 b 957 71 957 54 957 54 b 958 103 957 86 958 86 b 958 136 958 119 958 119 b 958 168 958 153 958 153 b 957 201 958 185 957 185 b 958 235 957 218 958 218 b 958 267 958 251 958 251 b 960 300 958 283 960 283 b 958 333 960 317 958 317 b 958 365 958 349 958 349 b 961 399 958 382 961 382 z m 250 561 b 251 561 250 561 251 561 b 249 546 258 558 257 547 b 240 551 246 546 242 547 b 250 561 239 557 244 563 z m 219 697 b 240 708 224 707 231 708 b 243 704 243 708 244 706 b 222 693 238 696 232 692 b 219 697 221 693 219 696 z m 200 765 b 218 767 206 771 211 772 b 217 761 221 765 219 761 b 203 760 211 761 207 761 b 200 765 200 760 197 764 z m 182 597 b 193 600 186 599 190 600 b 221 599 201 599 211 599 b 224 597 222 599 222 599 b 226 592 224 596 225 593 b 229 589 226 590 228 589 l 242 592 b 243 585 244 592 246 586 b 231 581 239 582 235 582 b 218 581 228 579 219 579 b 182 589 207 588 194 589 b 182 597 179 590 179 596 z m 226 504 b 196 486 225 496 222 494 b 193 489 194 486 193 488 b 224 507 194 506 199 508 b 226 504 225 507 226 506 z m 144 814 b 158 815 150 818 153 818 b 157 810 161 814 160 810 b 147 808 154 808 150 808 b 144 814 143 808 142 813 z m 160 356 b 156 354 158 356 157 354 b 156 361 151 354 150 361 b 158 363 156 363 157 363 b 160 356 164 363 164 356 z m 190 228 b 183 228 188 228 185 228 b 179 231 181 228 179 229 b 179 232 179 232 179 232 b 182 236 179 235 181 236 b 190 236 185 236 188 236 b 190 228 194 235 194 229 z m 231 353 b 200 340 226 336 208 347 b 196 340 200 339 197 339 b 189 349 193 343 192 346 b 192 354 188 351 189 353 b 226 357 203 354 214 356 b 231 353 229 357 231 356 z m 261 408 b 258 407 261 408 260 407 b 215 400 246 404 231 403 b 211 401 214 400 213 400 b 211 403 211 401 211 403 b 213 407 211 404 211 406 b 222 414 215 410 218 414 b 260 413 235 415 247 414 b 263 411 261 413 263 413 b 261 408 263 411 263 410 z m 276 244 b 274 242 275 243 275 243 b 271 243 274 242 272 243 b 271 246 271 244 269 246 b 272 249 271 247 272 249 b 275 247 274 249 274 249 b 276 244 276 247 276 246 z m 299 483 b 294 481 297 482 296 482 b 290 486 294 481 290 485 b 294 490 290 488 292 489 b 299 490 296 490 297 490 b 299 483 301 488 301 485 z m 844 672 b 793 665 826 669 810 668 b 789 671 790 665 788 668 b 797 678 792 674 794 678 b 846 679 813 685 828 685 b 844 672 849 678 849 672 z m 825 600 b 803 589 819 592 814 588 b 800 594 801 589 800 592 b 822 606 804 604 813 606 b 825 600 825 606 826 603 z m 821 844 b 836 844 826 849 831 849 b 835 839 839 843 838 839 b 824 838 831 838 826 838 b 821 844 819 838 818 842 z m 778 751 b 781 754 778 753 779 754 b 796 754 786 754 792 754 b 800 751 799 754 800 753 b 800 749 800 750 800 750 b 796 746 800 747 799 746 b 781 747 792 747 786 747 b 778 751 779 747 778 749 z m 757 547 b 806 551 772 549 788 550 b 811 546 810 553 813 550 b 769 528 807 522 779 538 b 763 528 767 525 764 526 b 753 540 758 532 756 536 b 757 547 751 543 753 547 z m 708 454 b 704 453 707 454 706 453 b 700 457 704 451 700 456 b 704 461 700 458 701 460 b 708 461 706 463 707 463 b 708 454 711 460 711 456 z m 711 589 b 715 589 713 589 714 589 b 717 582 719 590 721 582 b 711 581 714 582 713 581 b 711 589 706 581 706 588 z m 724 418 b 715 418 721 418 718 418 b 711 421 714 418 711 419 b 711 422 711 422 711 422 b 715 426 711 425 713 426 b 724 426 718 426 721 426 b 724 418 728 426 728 419 z m 742 456 b 738 458 740 456 738 457 b 738 460 738 458 738 458 b 738 464 736 461 736 463 b 750 475 742 469 746 474 b 800 474 767 475 783 474 b 804 471 801 472 803 472 b 803 468 804 471 803 469 b 799 465 801 467 800 465 b 742 456 781 463 761 458 z m 793 244 b 788 244 792 244 790 244 b 788 251 783 243 782 251 b 792 253 789 251 790 251 b 793 244 796 253 797 246 z m 838 311 b 803 294 833 290 811 303 b 797 296 801 293 799 293 b 789 306 794 299 792 303 b 792 311 788 308 789 311 b 833 315 806 313 818 314 b 838 311 836 315 838 313 z m 840 411 b 797 385 839 399 835 397 b 792 389 794 385 792 386 b 838 415 793 414 801 418 b 840 411 839 415 842 413 z m 844 499 b 828 497 839 499 833 497 b 824 504 824 497 821 501 b 846 506 832 510 838 513 b 844 499 849 504 847 500 z "},"I":{"ha":390,"x_min":0,"x_max":0,"o":"m 332 183 b 333 217 332 200 333 200 b 333 249 333 233 333 233 b 333 282 333 265 333 265 b 331 315 333 299 331 299 b 331 347 331 332 331 332 b 331 381 331 364 331 364 b 333 414 331 397 333 397 b 331 447 333 431 331 431 b 331 479 331 463 331 463 b 332 513 331 496 332 496 b 333 546 332 529 333 529 b 333 578 333 561 333 561 b 333 611 333 594 333 594 b 333 644 333 628 333 628 b 329 676 333 661 329 661 b 331 710 329 693 331 693 b 333 743 331 726 333 726 b 331 775 333 760 331 760 b 333 808 331 792 333 792 b 335 842 333 825 335 825 b 333 875 335 858 333 858 b 329 907 333 890 329 890 b 332 940 329 924 332 924 b 331 974 332 957 331 957 b 315 1007 331 986 325 997 b 282 1021 307 1015 296 1021 b 247 1024 264 1021 264 1024 b 213 1022 229 1024 229 1022 b 178 1021 194 1022 194 1021 b 143 1024 160 1021 160 1024 b 108 1025 125 1024 125 1025 b 72 1008 94 1025 82 1018 b 57 974 64 1000 57 986 b 57 940 57 957 57 957 b 60 907 57 924 60 924 b 56 875 60 890 56 890 b 57 842 56 858 57 858 b 60 808 57 825 60 825 b 61 775 60 792 61 792 b 60 743 61 760 60 760 b 58 710 60 726 58 726 b 58 676 58 693 58 693 b 56 644 58 660 56 660 b 57 611 56 628 57 628 b 58 578 57 594 58 594 b 58 546 58 561 58 561 b 56 513 58 529 56 529 b 58 479 56 496 58 496 b 60 446 58 463 60 463 b 57 414 60 431 57 431 b 57 381 57 397 57 397 b 56 347 57 364 56 364 b 60 315 56 332 60 332 b 61 282 60 299 61 299 b 58 249 61 265 58 265 b 57 217 58 232 57 232 b 57 183 57 200 57 200 b 57 150 57 167 57 167 b 58 118 57 133 58 133 b 56 85 58 101 56 101 b 60 51 56 68 60 68 b 72 17 60 38 63 25 b 108 0 81 7 94 0 b 143 3 125 0 125 3 b 178 4 160 3 160 4 b 213 0 194 4 194 0 b 247 1 229 0 229 1 b 282 1 264 1 264 1 b 318 17 296 1 308 7 b 332 51 326 25 332 38 b 333 85 332 68 333 68 b 333 118 333 101 333 101 b 331 150 333 133 331 133 b 332 183 331 167 332 167 z m 193 756 b 235 764 201 765 225 772 b 239 758 236 763 238 761 b 236 751 239 756 238 753 b 218 750 232 749 222 750 b 193 756 210 749 179 740 z m 157 490 b 142 489 151 490 147 490 b 139 496 138 489 135 493 b 160 497 146 501 151 504 b 157 490 163 496 161 492 z m 164 668 b 151 668 160 668 156 668 b 149 675 147 667 146 672 b 165 675 156 679 158 681 b 164 668 168 674 168 669 z m 194 321 b 169 306 193 314 192 313 b 167 308 168 306 167 307 b 193 324 168 322 172 325 b 194 321 194 324 194 322 z m 199 569 b 193 567 197 568 196 565 b 175 568 188 567 182 568 b 172 572 174 568 172 571 b 175 576 172 574 174 576 b 194 576 182 576 188 576 b 199 572 196 576 199 575 b 199 569 199 572 199 571 z m 213 429 b 210 435 210 429 208 432 b 235 449 214 446 222 449 b 238 442 238 449 239 444 b 213 429 232 433 225 428 z m 233 260 b 224 265 229 258 225 261 b 233 275 222 271 228 276 b 236 275 235 275 235 275 b 233 260 243 272 242 260 z "},"J":{"ha":818,"x_min":0,"x_max":0,"o":"m 760 289 b 758 256 760 278 760 267 b 750 225 757 244 751 235 b 744 192 747 214 749 203 b 735 161 742 182 740 171 b 717 133 731 151 722 143 b 699 107 711 125 706 115 b 674 85 692 99 682 93 b 653 60 665 78 661 67 b 624 44 643 54 633 50 b 594 31 614 39 604 35 b 567 14 585 25 576 17 b 535 6 557 10 546 8 b 503 -4 525 3 514 -1 b 471 -8 493 -6 482 -7 b 439 -8 460 -10 450 -8 b 406 -12 428 -10 417 -12 b 374 -10 394 -12 385 -10 b 340 -11 363 -8 351 -12 b 308 -4 329 -8 318 -6 b 276 7 297 -1 288 4 b 247 21 267 11 257 17 b 217 35 236 25 226 29 b 190 53 208 40 199 47 b 165 74 181 60 174 67 b 140 96 157 82 147 88 b 118 121 133 104 125 111 b 104 150 113 129 110 140 b 86 178 99 160 92 168 b 74 208 82 188 78 199 b 65 240 71 219 68 229 b 58 272 63 251 60 261 b 56 306 56 283 57 294 b 67 346 54 321 57 336 b 106 358 75 356 90 358 b 140 360 122 358 122 360 b 175 360 157 360 157 360 b 210 361 193 360 193 361 b 246 358 228 361 228 358 b 281 358 263 358 263 358 b 314 349 293 358 306 357 b 332 318 322 342 331 331 b 336 282 333 306 332 293 b 353 251 340 269 346 260 b 381 226 361 240 369 232 b 415 219 390 222 403 219 b 447 225 428 219 439 221 b 469 247 457 229 464 239 b 481 276 475 256 479 265 b 488 308 483 286 488 296 b 486 342 488 325 486 325 b 483 375 486 358 483 358 b 488 408 483 392 488 392 b 486 442 488 425 486 425 b 485 475 486 458 485 458 b 488 508 485 492 488 492 b 483 540 488 524 483 524 b 483 574 483 557 483 557 b 483 607 483 590 483 590 b 489 640 483 624 489 624 b 486 674 489 657 486 657 b 488 707 486 690 488 690 b 485 740 488 724 485 724 b 485 774 485 757 485 757 b 485 807 485 790 485 790 b 486 840 485 824 486 824 b 488 874 486 857 488 857 b 486 907 488 890 486 890 b 483 940 486 924 483 924 b 485 974 483 957 485 957 b 503 1007 485 986 493 997 b 536 1022 511 1015 522 1022 b 571 1024 553 1022 553 1024 b 606 1021 588 1024 588 1021 b 640 1021 622 1021 622 1021 b 675 1022 657 1021 657 1022 b 710 1022 692 1022 692 1022 b 743 1007 724 1022 735 1015 b 761 974 751 997 761 986 b 763 940 761 957 763 957 b 761 908 763 924 761 924 b 758 875 761 892 758 892 b 761 843 758 858 761 858 b 758 810 761 826 758 826 b 757 778 758 794 757 794 b 761 744 757 761 761 761 b 761 713 761 729 761 729 b 761 679 761 696 761 696 b 763 647 761 664 763 664 b 760 615 763 631 760 631 b 758 582 760 599 758 599 b 758 550 758 565 758 565 b 761 517 758 533 761 533 b 758 485 761 500 758 500 b 758 451 758 468 758 468 b 758 419 758 435 758 435 b 761 386 758 403 761 403 b 761 354 761 371 761 371 b 761 321 761 338 760 338 b 760 289 761 306 760 306 z m 603 297 b 608 289 601 294 604 289 b 642 306 624 288 633 294 b 636 315 644 310 642 315 b 603 297 621 315 610 313 z m 519 196 b 532 197 524 196 528 197 b 533 207 536 197 538 204 b 517 206 528 211 524 210 b 519 196 513 203 514 196 z m 679 706 b 650 707 665 717 660 717 b 653 696 646 703 647 696 b 674 693 660 694 667 694 b 679 706 681 693 683 701 z m 551 729 b 556 732 553 729 554 731 b 554 742 557 736 557 740 b 553 743 554 742 553 743 b 543 738 549 744 543 743 b 543 733 543 736 543 735 b 551 729 544 731 550 728 z m 550 371 b 571 372 557 371 564 372 b 574 383 576 374 578 381 b 546 381 563 390 554 388 b 550 371 542 378 544 369 z m 664 611 b 660 610 663 611 661 611 b 658 601 657 608 657 604 b 665 600 660 600 663 599 b 668 608 668 603 669 606 b 664 611 667 610 665 611 z m 450 158 b 449 150 450 156 449 153 b 456 142 449 147 454 142 b 469 150 461 143 465 146 b 463 160 469 150 467 153 b 450 158 458 164 453 164 z m 582 499 b 571 496 578 501 572 500 b 569 490 571 494 569 492 b 578 485 569 489 576 485 b 582 486 579 486 581 486 b 582 499 586 489 586 496 z "},"K":{"ha":1022,"x_min":0,"x_max":0,"o":"m 963 31 b 944 58 953 44 953 44 b 931 89 935 72 939 75 b 907 114 921 103 917 100 b 893 143 899 128 901 129 b 874 171 883 157 883 157 b 853 197 865 185 863 183 b 838 226 844 211 846 213 b 821 254 828 239 829 240 b 803 283 811 268 813 269 b 785 310 794 296 793 296 b 764 336 775 324 772 322 b 746 364 754 350 754 350 b 729 392 736 378 738 378 b 710 419 719 406 719 406 b 692 447 701 433 700 433 b 672 474 682 460 681 460 b 657 503 663 488 667 489 b 636 529 649 517 646 515 b 621 558 628 543 631 544 b 619 604 613 572 610 590 b 640 629 629 617 631 617 b 658 656 650 642 649 643 b 678 682 668 669 668 669 b 699 707 688 694 689 694 b 719 732 708 721 710 719 b 742 757 729 746 732 744 b 760 783 751 769 750 771 b 782 808 771 796 772 794 b 797 838 792 821 788 824 b 818 863 807 850 808 849 b 840 888 828 875 831 874 b 857 915 850 900 847 901 b 876 940 867 928 867 928 b 897 967 886 954 888 953 b 919 990 907 979 910 978 b 903 1025 929 1004 919 1025 b 868 1022 885 1025 885 1022 b 832 1022 850 1022 850 1022 b 797 1022 815 1022 815 1022 b 763 1026 781 1022 781 1026 b 728 1025 744 1026 744 1025 b 693 1022 710 1025 710 1022 b 657 1024 675 1022 675 1024 b 640 1017 651 1024 643 1022 b 619 990 629 1003 631 1003 b 603 961 610 976 614 974 b 583 933 593 947 593 947 b 564 907 574 921 574 921 b 543 881 554 894 553 894 b 524 854 533 868 533 867 b 500 831 514 840 510 843 b 481 803 490 817 490 815 b 464 774 471 789 474 788 b 443 747 454 761 453 761 b 421 722 433 735 432 736 b 403 694 411 710 413 708 b 375 679 394 685 385 681 b 344 688 364 678 353 681 b 335 718 336 694 335 706 b 332 751 335 735 332 735 b 335 785 332 768 335 768 b 333 818 335 801 333 801 b 335 851 333 835 335 835 b 333 885 335 868 333 868 b 331 918 333 901 331 901 b 333 951 331 935 333 935 b 332 985 333 968 332 968 b 318 1010 332 994 326 1003 b 293 1021 311 1017 304 1021 b 261 1021 276 1021 276 1021 b 228 1021 244 1021 244 1021 b 196 1022 213 1021 213 1022 b 163 1025 179 1022 179 1025 b 131 1025 147 1025 147 1025 b 99 1021 114 1025 114 1021 b 71 1011 88 1021 78 1018 b 63 985 64 1004 63 994 b 60 950 63 967 60 967 b 58 917 60 933 58 933 b 60 883 58 900 60 900 b 58 850 60 867 58 867 b 63 815 58 833 63 833 b 60 782 63 799 60 799 b 57 749 60 765 57 765 b 63 715 57 732 63 732 b 58 681 63 699 58 699 b 60 647 58 664 60 664 b 56 614 60 631 56 631 b 58 581 56 597 58 597 b 63 547 58 564 63 564 b 58 513 63 529 58 529 b 58 479 58 496 58 496 b 61 446 58 463 61 463 b 60 413 61 429 60 429 b 58 378 60 396 58 396 b 58 344 58 361 58 361 b 58 311 58 328 58 328 b 60 278 58 294 60 294 b 57 244 60 261 57 261 b 58 210 57 226 58 226 b 57 176 58 193 57 193 b 60 143 57 160 60 160 b 57 110 60 126 57 126 b 56 75 57 93 56 93 b 57 42 56 58 57 58 b 72 15 57 31 65 22 b 99 1 79 8 88 1 b 131 1 114 1 114 1 b 163 1 147 1 147 1 b 196 1 179 1 179 1 b 228 1 213 1 213 1 b 261 4 244 1 244 4 b 293 1 276 4 276 1 b 322 13 304 1 315 6 b 333 42 329 21 333 31 b 332 78 333 60 332 60 b 331 113 332 94 331 94 b 329 149 331 131 329 131 b 331 183 329 165 331 165 b 335 219 331 201 335 201 b 331 254 335 236 331 236 b 340 281 331 264 335 274 b 363 306 351 293 351 293 b 383 333 374 319 372 319 b 417 344 392 343 404 344 b 449 329 428 344 442 340 b 464 299 457 315 454 314 b 485 272 472 285 475 288 b 501 244 493 258 493 258 b 521 217 511 231 513 231 b 542 190 531 203 532 204 b 558 161 550 176 549 175 b 575 132 568 147 565 146 b 594 104 583 118 585 118 b 611 75 603 90 601 89 b 633 50 619 61 624 64 b 650 21 643 36 642 35 b 682 0 657 10 669 0 b 715 6 699 0 699 6 b 749 6 732 6 732 6 b 782 1 765 6 765 1 b 815 1 799 1 799 1 b 849 0 832 1 832 0 b 882 1 865 0 865 1 b 915 0 899 1 899 0 b 949 0 932 0 932 0 b 963 31 964 0 971 18 z m 532 722 b 538 717 536 718 538 717 b 531 707 536 713 535 708 b 524 711 531 706 525 708 b 524 717 524 713 524 715 b 532 722 524 721 528 724 z m 492 658 b 496 658 493 658 494 658 b 500 656 497 658 499 657 b 499 644 501 651 501 647 b 493 643 496 643 493 642 b 488 649 490 644 489 646 b 492 658 486 653 488 657 z m 417 635 b 419 636 418 636 418 636 b 421 636 419 636 421 636 b 422 631 424 635 424 632 b 418 629 421 629 419 628 b 417 635 415 631 415 633 z m 361 554 b 367 560 363 557 364 558 b 372 563 368 561 371 561 b 375 567 374 564 374 565 b 382 568 376 568 379 568 b 408 569 390 568 400 567 b 456 576 425 572 440 582 b 461 574 458 576 460 575 b 461 568 463 572 463 569 b 458 567 460 568 460 567 b 436 561 451 565 443 563 b 415 550 428 558 422 553 b 382 543 404 547 393 544 b 365 544 376 542 369 542 b 363 550 364 546 363 547 b 361 554 361 551 361 553 z m 343 617 b 350 611 349 613 351 611 b 343 600 349 607 346 603 b 335 604 342 599 336 603 b 333 611 335 607 333 608 b 343 617 333 617 339 619 z m 278 758 b 285 756 279 757 282 757 b 288 750 286 754 288 751 b 286 750 286 750 286 750 b 282 747 286 747 283 746 b 275 751 279 749 276 750 b 278 758 275 751 276 758 z m 240 810 b 246 810 242 811 244 811 b 249 807 247 808 249 808 b 250 801 251 806 251 804 b 249 800 250 801 249 801 b 243 800 247 799 244 799 b 239 806 242 801 239 803 b 240 810 238 806 239 808 z m 192 675 b 235 682 207 678 221 679 b 239 683 236 682 238 682 b 254 688 243 686 249 688 b 264 686 257 688 261 686 b 271 686 267 686 268 688 b 272 685 271 686 272 686 b 272 683 272 683 272 683 b 258 671 274 675 267 667 b 232 663 250 674 242 674 b 192 658 225 654 206 658 b 192 675 183 660 183 674 z m 257 650 b 250 643 254 647 251 643 b 249 644 250 644 249 644 b 250 654 244 647 246 654 b 257 650 253 654 254 651 z m 171 739 b 178 740 174 740 175 740 b 179 738 178 740 178 739 b 178 733 179 736 179 733 b 174 732 176 733 175 732 b 169 733 172 731 171 732 b 169 735 169 733 169 735 b 171 739 168 738 169 739 z m 178 708 b 176 706 178 707 178 707 b 169 707 175 704 169 706 b 169 711 169 708 169 710 b 175 717 169 714 172 717 b 178 708 179 715 181 711 z m 153 514 b 144 514 150 514 147 514 b 142 521 142 514 139 518 b 156 521 149 531 150 529 b 153 514 157 518 156 515 z m 151 583 b 150 588 151 583 150 585 b 151 592 150 589 150 592 b 160 601 154 596 157 603 b 232 589 183 594 208 606 b 232 581 233 588 233 582 b 228 581 231 579 229 579 b 181 579 211 589 196 579 b 151 583 171 579 161 582 z m 172 429 b 172 442 167 432 167 440 b 222 451 186 447 208 454 b 242 439 229 450 236 444 b 238 424 247 433 244 424 b 181 426 218 425 200 425 b 172 429 178 426 175 428 z m 228 317 b 193 317 215 317 204 317 b 192 321 190 317 190 319 b 228 321 204 329 217 326 b 228 317 231 321 229 317 z m 249 231 b 242 229 246 228 244 228 b 242 238 239 231 239 235 b 244 239 242 239 243 239 b 247 239 244 240 246 239 b 249 231 250 236 250 233 z m 271 335 b 268 331 269 333 269 332 b 258 333 267 329 260 332 b 258 339 258 335 258 338 b 265 344 258 343 263 346 b 268 344 267 344 267 344 b 271 335 271 343 274 339 z m 274 360 b 217 346 256 356 236 351 b 213 354 214 346 211 350 b 274 369 222 375 236 379 b 274 360 279 368 279 361 z m 336 407 b 313 408 328 407 321 407 b 311 413 313 408 313 410 b 318 421 311 417 314 421 b 335 424 324 422 329 422 b 342 417 339 424 342 421 b 336 407 343 411 339 407 z m 360 442 b 336 447 351 444 344 446 b 335 460 332 449 331 456 b 367 450 356 478 360 476 b 360 442 368 446 364 440 z m 325 510 b 306 513 318 511 311 513 b 293 507 301 511 297 511 b 292 501 293 506 292 504 b 292 492 293 497 297 494 b 282 490 289 490 285 490 b 268 486 278 489 272 488 b 240 481 258 483 250 479 b 219 488 233 481 226 483 b 203 499 214 490 208 493 b 200 504 201 500 200 501 b 199 514 199 507 199 511 b 200 522 199 517 199 521 b 204 522 201 522 203 522 b 226 515 213 522 221 522 b 229 514 226 515 228 514 b 232 514 231 513 231 514 b 239 515 235 514 238 514 b 256 560 253 522 246 549 b 290 574 263 569 278 571 b 344 569 307 576 326 579 b 346 564 347 568 347 565 b 264 544 319 546 288 565 b 263 539 263 543 263 542 b 294 526 271 524 283 524 b 379 522 324 532 351 528 b 433 536 396 519 415 531 b 479 539 447 540 461 549 b 479 532 482 538 481 533 b 464 526 472 529 468 528 b 408 511 446 522 426 518 b 325 510 381 503 353 503 z m 424 413 b 421 411 422 413 422 411 b 415 413 419 410 415 411 b 415 417 415 414 415 415 b 419 421 415 419 417 421 b 421 419 419 419 421 419 b 424 413 424 419 425 415 z m 499 433 b 458 431 486 426 474 424 b 457 443 453 432 453 440 b 497 446 471 451 483 450 b 499 433 503 444 504 436 z m 486 488 b 410 475 460 488 435 488 b 397 475 406 472 401 472 b 393 486 394 478 390 482 b 400 489 394 489 399 489 b 411 492 404 490 408 490 b 431 496 418 492 425 494 b 453 501 439 497 446 500 b 493 510 465 504 479 507 b 549 510 511 513 531 511 b 553 506 551 510 553 508 b 550 501 553 503 551 501 b 486 488 529 496 507 488 z m 556 372 b 529 374 547 374 539 371 b 529 382 525 375 525 381 b 558 379 546 388 553 388 b 556 372 561 376 558 372 z m 560 424 b 557 413 558 419 558 417 b 550 411 557 408 551 408 b 542 418 549 414 544 417 b 543 426 539 419 539 425 b 554 429 547 428 551 428 b 560 424 558 431 561 426 z "},"L":{"ha":822,"x_min":0,"x_max":0,"o":"m 767 68 b 763 100 767 83 763 83 b 767 133 763 117 767 117 b 765 165 767 149 765 149 b 763 197 765 182 763 182 b 753 219 763 207 760 214 b 731 233 747 225 740 233 b 697 231 714 233 714 231 b 664 232 681 231 681 232 b 631 231 647 232 647 231 b 597 232 614 231 614 232 b 564 231 581 232 581 231 b 531 232 547 231 547 232 b 497 232 514 232 514 232 b 464 235 481 232 481 235 b 431 233 447 235 447 233 b 397 232 414 233 414 232 b 364 231 381 232 381 231 b 339 239 356 231 344 233 b 332 265 333 244 332 256 b 333 297 332 281 333 281 b 333 331 333 314 333 314 b 333 364 333 347 333 347 b 331 396 333 381 331 381 b 333 429 331 413 333 413 b 333 463 333 446 333 446 b 333 494 333 479 333 479 b 333 528 333 511 333 511 b 329 561 333 544 329 544 b 329 594 329 578 329 578 b 328 626 329 610 328 610 b 332 660 328 643 332 643 b 328 693 332 676 328 676 b 333 725 328 708 333 708 b 332 758 333 742 332 742 b 333 792 332 775 333 775 b 335 824 333 808 335 808 b 329 857 335 840 329 840 b 332 890 329 874 332 874 b 331 922 332 907 331 907 b 333 956 331 939 333 939 b 333 989 333 972 333 972 b 322 1013 333 997 328 1007 b 297 1022 315 1019 307 1022 b 263 1021 281 1022 281 1021 b 229 1021 246 1021 246 1021 b 194 1025 211 1021 211 1025 b 160 1021 178 1025 178 1021 b 126 1022 143 1021 143 1022 b 92 1021 108 1022 108 1021 b 69 1011 82 1021 75 1017 b 58 989 64 1004 58 997 b 56 956 58 972 56 972 b 56 922 56 939 56 939 b 56 890 56 907 56 907 b 58 857 56 874 58 874 b 58 824 58 840 58 840 b 57 792 58 808 57 808 b 58 758 57 775 58 775 b 58 725 58 742 58 742 b 60 693 58 710 60 710 b 56 660 60 676 56 676 b 58 626 56 643 58 643 b 56 594 58 611 56 611 b 60 561 56 578 60 578 b 58 528 60 544 58 544 b 60 496 58 513 60 513 b 61 463 60 479 61 479 b 60 429 61 446 60 446 b 58 397 60 413 58 413 b 56 364 58 381 56 381 b 57 331 56 347 57 347 b 56 299 57 314 56 314 b 60 265 56 282 60 282 b 58 232 60 249 58 249 b 57 200 58 215 57 215 b 60 167 57 183 60 183 b 61 133 60 150 61 150 b 60 101 61 117 60 117 b 57 68 60 85 57 85 b 56 35 57 51 56 51 b 68 11 56 26 63 18 b 92 3 74 6 82 3 b 125 3 108 3 108 3 b 158 -1 142 3 142 -1 b 193 0 175 -1 175 0 b 226 3 210 0 210 3 b 260 1 243 3 243 1 b 293 1 276 1 276 1 b 328 0 310 1 310 0 b 361 1 344 0 344 1 b 394 -1 378 1 378 -1 b 428 3 411 -1 411 3 b 463 3 444 3 444 3 b 496 1 479 3 479 1 b 529 0 513 1 513 0 b 563 3 546 0 546 3 b 597 1 579 3 579 1 b 631 4 614 1 614 4 b 664 3 647 4 647 3 b 697 1 681 3 681 1 b 731 0 714 1 714 0 b 756 11 740 0 750 4 b 767 35 763 17 767 26 b 767 68 767 51 767 51 z m 278 304 b 279 293 282 303 282 294 b 256 303 269 289 261 296 b 258 310 254 306 256 311 b 278 304 265 308 272 306 z m 178 726 b 194 733 183 731 189 733 b 215 726 200 735 208 732 b 213 714 219 722 217 714 b 179 715 201 713 190 714 b 178 726 175 717 175 724 z m 164 344 b 136 332 154 335 146 331 b 136 343 132 333 132 342 b 163 351 143 346 153 350 b 164 344 165 353 167 347 z m 181 232 b 171 233 178 226 172 228 b 169 240 169 236 169 238 b 178 249 169 243 175 247 b 185 242 181 249 185 243 b 181 232 183 239 183 236 z m 172 499 b 172 503 169 499 169 503 b 204 507 182 508 193 514 b 203 497 207 506 207 499 b 172 499 194 496 181 497 z m 211 104 b 203 100 210 100 207 97 b 208 117 200 101 204 118 b 211 104 211 115 213 110 z m 214 422 b 207 431 210 421 207 425 b 222 444 208 442 214 444 b 261 442 232 444 250 443 b 261 436 264 442 264 438 b 214 422 246 432 231 426 z m 279 183 b 243 181 267 182 256 182 b 242 188 240 181 239 185 b 281 192 250 200 260 201 b 279 183 283 190 283 183 z "},"M":{"ha":1233,"x_min":0,"x_max":0,"o":"m 1176 603 b 1175 636 1176 619 1175 619 b 1175 668 1175 651 1175 651 b 1174 701 1175 685 1174 685 b 1175 735 1174 718 1175 718 b 1176 768 1175 751 1176 751 b 1178 801 1176 785 1178 785 b 1172 835 1178 818 1172 818 b 1174 867 1172 850 1174 850 b 1175 900 1174 883 1175 883 b 1174 933 1175 917 1174 917 b 1175 967 1174 950 1175 950 b 1172 999 1175 978 1174 988 b 1168 1021 1172 1004 1172 1017 b 1161 1025 1167 1024 1164 1024 b 1151 1024 1158 1025 1154 1025 b 1146 1019 1150 1024 1147 1022 b 1118 983 1135 1010 1128 994 b 1094 958 1107 971 1106 971 b 1075 931 1083 946 1086 943 b 1053 906 1064 918 1064 918 b 1028 883 1042 893 1039 896 b 1004 858 1017 869 1015 871 b 985 831 993 846 996 843 b 960 807 974 817 971 819 b 940 779 949 794 951 792 b 918 754 929 767 929 767 b 892 732 907 742 903 744 b 874 704 881 719 885 717 b 847 682 863 690 858 694 b 828 654 836 669 839 667 b 806 629 817 642 817 642 b 782 604 794 617 793 617 b 763 576 771 592 774 589 b 740 551 751 564 751 564 b 715 528 729 539 726 540 b 693 503 704 515 704 515 b 672 476 682 490 679 490 b 649 443 661 456 660 456 b 629 417 638 431 640 429 b 603 415 622 410 608 408 b 583 443 592 428 594 431 b 560 467 572 456 571 454 b 538 501 549 481 549 488 b 518 528 526 514 529 515 b 496 553 507 542 506 540 b 474 578 485 565 485 565 b 453 604 463 592 464 592 b 432 631 442 617 443 618 b 410 656 421 643 421 643 b 383 678 399 668 394 665 b 363 703 374 690 374 690 b 344 732 351 715 356 719 b 322 757 333 744 333 744 b 301 782 313 769 311 769 b 276 806 290 796 288 793 b 253 831 265 818 264 817 b 233 857 243 843 244 844 b 213 883 222 869 224 869 b 188 906 201 896 199 893 b 167 932 176 918 178 919 b 149 960 156 944 160 947 b 125 985 138 972 136 972 b 78 1025 115 996 96 1024 b 72 1024 76 1025 75 1024 b 64 967 57 1017 64 979 b 67 933 64 950 67 950 b 65 900 67 917 65 917 b 68 867 65 883 68 883 b 65 835 68 850 67 850 b 64 801 65 818 64 818 b 63 768 64 785 63 785 b 63 735 63 751 63 751 b 61 701 63 718 61 718 b 61 668 61 685 63 685 b 65 636 61 653 65 653 b 61 603 65 619 61 619 b 61 569 61 586 61 586 b 64 536 61 553 65 553 b 64 503 64 519 65 519 b 60 469 64 486 60 486 b 63 438 60 454 63 454 b 61 404 61 421 61 421 b 63 371 60 388 63 388 b 60 338 61 354 60 354 b 60 304 60 321 60 321 b 58 272 60 288 60 288 b 58 239 58 256 58 256 b 56 206 58 222 56 222 b 56 172 56 189 56 189 b 57 139 56 156 57 156 b 58 106 57 122 60 122 b 61 74 58 90 61 90 b 56 40 61 57 56 57 b 67 11 56 29 60 18 b 96 -1 74 4 85 -1 b 126 0 111 -1 111 0 b 158 1 143 0 143 1 b 190 -1 175 1 175 -1 b 222 0 207 -1 207 0 b 254 -1 239 0 239 -1 b 286 -1 269 -1 269 -1 b 313 14 296 -1 306 7 b 322 40 318 21 322 29 b 321 74 322 57 321 57 b 325 107 321 90 325 90 b 321 140 325 124 321 124 b 326 175 321 158 326 158 b 325 208 326 192 325 192 b 326 242 325 225 326 225 b 326 276 326 260 326 260 b 321 310 326 293 321 293 b 325 343 321 326 325 326 b 324 378 325 360 307 372 b 342 349 339 383 332 363 b 363 322 353 336 351 335 b 385 296 372 308 374 310 b 406 269 394 283 396 283 b 428 244 417 257 418 258 b 449 218 439 231 439 232 b 467 189 460 204 456 201 b 490 165 476 175 481 178 b 511 138 501 151 500 150 b 532 111 521 124 522 125 b 550 82 543 99 540 96 b 574 57 561 69 563 71 b 585 40 578 51 581 46 b 601 22 590 33 596 28 b 611 15 604 19 607 17 b 625 15 615 14 621 14 b 638 22 629 17 633 19 b 653 40 644 28 649 35 b 667 57 658 46 663 51 b 688 83 678 69 676 69 b 707 110 697 97 697 97 b 728 136 717 124 717 122 b 744 164 738 150 735 151 b 767 189 756 178 757 176 b 785 218 778 203 775 204 b 810 240 794 231 799 228 b 825 271 819 254 815 257 b 846 296 835 285 836 283 b 867 322 856 310 857 308 b 886 350 876 335 876 336 b 907 376 896 363 892 382 b 906 342 922 371 906 358 b 907 308 906 325 907 325 b 908 275 907 292 908 292 b 908 242 908 258 908 258 b 904 207 908 225 904 225 b 910 174 904 190 910 190 b 908 140 910 157 908 157 b 908 107 908 124 908 124 b 908 74 908 90 908 90 b 907 40 908 57 907 57 b 918 13 907 29 911 19 b 944 4 925 6 933 4 b 976 3 960 4 960 3 b 1008 4 993 3 993 4 b 1040 0 1025 4 1025 0 b 1072 0 1057 0 1057 0 b 1106 -1 1089 0 1089 -1 b 1138 0 1121 -1 1121 0 b 1164 13 1147 0 1158 6 b 1178 40 1171 19 1178 29 b 1175 72 1178 56 1175 56 b 1172 106 1175 89 1172 89 b 1174 139 1172 122 1174 122 b 1176 172 1174 156 1176 156 b 1176 206 1176 189 1176 189 b 1176 239 1176 222 1176 222 b 1178 271 1176 254 1178 254 b 1172 304 1178 288 1172 288 b 1174 338 1172 321 1174 321 b 1172 371 1174 354 1172 354 b 1172 404 1172 388 1172 388 b 1175 438 1172 421 1175 421 b 1178 469 1175 453 1178 453 b 1178 503 1178 486 1178 486 b 1172 536 1178 519 1172 519 b 1178 569 1172 553 1178 553 b 1176 603 1178 586 1176 586 z m 429 546 b 431 536 432 546 433 539 b 369 529 415 522 389 526 b 325 538 353 532 336 518 b 326 544 322 539 324 544 b 429 546 361 550 393 554 z m 247 588 b 301 604 250 607 293 607 b 378 614 318 599 354 610 b 382 608 379 614 382 613 b 371 588 381 592 382 590 b 342 594 363 585 351 596 b 313 581 332 593 322 583 b 283 582 300 576 296 582 b 260 568 274 583 268 568 b 247 588 254 568 246 581 z m 229 654 b 242 657 233 660 238 658 b 242 654 243 657 243 654 b 231 650 239 653 235 651 b 229 654 229 650 228 653 z m 169 581 b 189 578 175 588 178 588 b 188 572 190 576 190 572 b 171 575 182 574 176 575 b 169 581 168 576 168 579 z m 179 436 b 179 435 179 435 179 435 b 178 433 179 433 178 433 b 169 446 172 433 167 440 l 169 442 b 176 444 169 444 174 446 b 179 436 179 443 181 439 z m 285 474 b 268 503 275 476 275 493 b 240 514 261 513 250 514 b 183 513 221 514 203 508 b 183 518 182 513 181 518 b 232 535 199 526 217 531 b 268 542 244 539 257 543 b 281 507 297 539 272 528 b 344 499 288 486 335 496 b 392 496 358 500 376 503 b 390 490 393 494 393 490 b 346 478 376 490 354 481 b 285 474 321 468 310 467 z m 357 415 b 351 410 353 411 351 410 b 357 415 351 410 354 414 b 319 422 340 397 333 399 b 319 429 318 425 318 428 b 357 438 332 436 344 436 b 394 453 369 439 383 451 b 436 451 408 454 422 449 b 444 450 438 451 442 453 b 443 442 446 447 444 443 b 357 415 419 431 371 431 z m 460 304 b 436 304 453 300 446 300 b 436 308 435 304 435 308 b 460 308 444 311 454 310 b 460 304 461 308 461 304 z m 464 378 b 388 364 419 358 404 354 b 389 378 383 367 385 376 b 429 382 401 381 417 376 b 465 389 443 389 454 408 b 464 378 468 385 467 379 z m 488 299 b 485 300 486 299 486 299 b 483 306 482 301 482 304 b 489 307 485 307 488 307 b 493 304 490 306 492 304 b 488 299 492 301 489 299 z m 507 372 b 501 372 506 372 503 371 b 497 376 500 372 499 374 b 500 382 496 378 497 381 b 506 383 501 383 504 383 b 510 379 507 383 508 382 b 507 372 511 378 511 374 z m 574 378 b 592 385 581 379 586 383 b 624 388 603 386 613 386 b 642 390 629 389 636 389 b 658 399 647 392 653 396 b 676 400 664 401 671 403 b 679 397 678 399 678 399 b 679 396 679 397 679 396 b 676 383 679 392 679 388 b 671 379 675 382 674 381 b 663 372 668 376 665 375 b 649 365 658 369 653 367 b 615 364 638 361 626 361 b 588 357 606 364 597 360 b 583 356 586 356 585 356 b 581 360 582 356 581 358 b 582 364 581 361 582 363 b 581 365 582 364 581 365 b 568 367 576 367 572 367 b 558 371 564 367 560 367 b 574 378 561 376 568 376 z m 589 289 b 556 296 583 285 567 292 b 554 303 553 297 553 301 b 565 315 558 307 563 311 b 572 313 568 318 572 317 l 572 310 b 576 306 572 308 574 306 b 589 289 586 306 597 296 z m 625 217 b 594 219 615 211 606 207 b 596 225 592 222 593 226 b 624 222 607 225 615 224 b 625 217 626 222 628 218 z m 674 265 b 663 263 669 264 665 263 b 656 268 660 263 658 265 b 657 274 654 269 654 272 b 675 272 663 278 668 279 b 674 265 676 271 676 267 z m 675 256 b 676 256 676 256 676 256 b 675 256 676 256 676 256 z m 688 317 b 679 314 686 314 683 314 b 664 317 674 315 669 315 b 647 313 658 317 653 315 b 636 303 644 310 640 304 b 626 304 633 303 629 303 b 625 306 626 304 625 304 b 625 308 624 306 625 307 b 619 313 625 311 622 313 b 607 318 615 314 611 315 b 611 324 601 319 608 324 b 629 333 618 326 624 331 b 650 331 635 336 644 333 b 660 328 653 329 656 328 b 668 328 663 326 665 326 b 685 326 674 328 679 328 b 688 326 686 326 686 326 b 688 324 688 326 688 325 b 688 317 689 322 689 319 z m 754 350 b 682 342 728 346 703 356 b 676 346 679 340 675 342 b 704 364 678 353 685 363 b 754 357 722 364 739 365 b 754 350 757 356 757 350 z m 781 296 b 779 296 779 296 779 296 b 774 303 776 297 775 300 b 778 307 774 303 778 307 b 781 306 779 307 781 306 b 781 296 783 303 783 299 z m 786 456 b 785 454 786 454 785 454 b 781 456 782 453 781 454 b 782 461 779 458 781 460 b 788 461 783 461 785 461 b 789 460 788 461 788 461 b 786 456 789 458 788 456 z m 824 382 b 813 381 822 375 815 381 b 810 382 813 381 811 382 b 807 390 807 383 807 386 b 808 393 808 392 808 393 b 811 394 810 394 811 394 b 814 393 813 393 813 393 b 815 390 814 392 814 392 b 821 388 817 389 819 389 b 824 386 822 388 822 386 b 824 385 824 385 824 385 b 824 382 824 383 824 383 z m 1069 246 b 1072 250 1069 249 1071 250 b 1074 250 1072 250 1074 250 b 1076 246 1075 250 1076 249 b 1074 243 1076 244 1075 243 b 1069 244 1072 243 1071 243 b 1069 246 1069 244 1069 244 z m 1018 718 l 1017 715 b 1024 719 1018 718 1021 719 b 1025 719 1025 719 1025 719 b 1026 717 1026 719 1026 718 b 1021 711 1026 713 1024 710 b 1017 715 1018 711 1017 714 b 1018 718 1017 717 1017 717 z m 1007 664 b 1008 668 1007 665 1007 667 b 1013 668 1010 669 1011 669 b 1017 667 1014 668 1015 668 b 1018 664 1017 665 1018 665 b 1028 660 1021 661 1025 661 b 1032 658 1029 660 1031 658 b 1032 656 1032 657 1032 656 b 1032 653 1032 654 1032 654 b 1032 651 1032 653 1032 653 b 1015 651 1029 644 1019 650 b 1010 653 1014 651 1013 651 b 1007 664 1006 656 1007 658 z m 1019 542 b 907 535 990 515 939 529 b 906 540 901 536 903 538 b 921 549 911 544 919 549 b 931 554 924 551 928 553 b 965 557 942 558 954 557 b 1019 542 983 554 1004 553 z m 856 447 b 853 444 854 446 854 446 b 847 450 851 444 850 449 b 847 451 847 451 847 451 b 854 457 850 454 851 457 b 856 457 854 457 854 457 b 856 447 858 456 858 450 z m 858 542 b 833 543 850 524 846 524 b 836 549 832 544 833 549 b 857 546 844 547 850 547 b 858 542 858 546 860 543 z m 867 581 b 865 593 863 582 861 590 b 876 597 868 596 872 596 b 875 597 876 597 875 597 b 876 597 875 597 875 597 b 876 597 882 597 879 597 b 915 607 889 597 904 594 b 918 611 917 608 917 610 b 938 621 924 618 931 619 b 950 625 942 624 944 626 b 954 625 951 625 953 625 b 960 621 957 624 958 622 b 969 611 964 618 967 614 b 981 603 972 607 976 604 b 993 599 983 600 989 600 b 992 592 996 597 994 592 b 931 589 971 596 951 599 b 867 581 911 579 888 576 z m 903 460 b 894 458 900 461 897 461 b 889 457 893 457 892 457 b 883 467 886 458 882 460 b 897 476 886 472 892 475 b 904 483 900 479 903 481 b 908 489 906 485 907 488 b 914 489 910 489 913 489 b 938 490 922 490 929 490 b 1006 486 960 489 983 483 b 1026 489 1013 488 1019 489 b 1046 485 1033 489 1040 489 b 1047 483 1046 485 1047 485 b 1047 481 1047 483 1047 482 b 1040 471 1047 476 1043 474 b 1017 463 1033 465 1025 464 b 965 458 1000 460 982 460 b 928 457 953 457 940 456 b 903 460 919 457 911 460 z m 972 233 b 971 243 972 233 964 240 b 975 239 972 243 975 242 b 972 233 975 236 974 233 z m 1025 272 b 1022 272 1024 271 1022 271 b 1021 274 1022 272 1021 272 b 1021 279 1019 275 1021 278 b 1022 279 1022 279 1022 279 b 1025 278 1024 279 1025 278 b 1025 272 1026 276 1026 274 z m 971 315 b 972 319 969 317 969 321 b 996 317 978 319 988 317 b 1028 328 1007 317 1018 325 b 971 315 1038 329 1008 292 z m 1038 390 b 979 379 1018 383 999 375 b 914 399 960 383 935 392 b 914 404 911 400 911 404 b 942 415 922 408 938 415 b 982 410 954 415 969 414 b 1007 394 994 406 992 397 b 1038 399 1013 393 1028 399 b 1038 390 1042 399 1042 392 z m 1049 411 b 1043 413 1046 411 1044 413 b 1032 419 1039 414 1035 417 b 1028 426 1028 422 1028 424 b 1047 432 1028 431 1040 432 b 1060 425 1054 432 1058 433 b 1049 411 1060 419 1054 411 z m 1060 550 b 1050 554 1057 551 1053 553 b 1050 563 1047 556 1046 561 b 1063 557 1056 567 1060 564 b 1060 550 1065 554 1063 550 z m 1082 139 b 1068 142 1076 139 1072 140 b 1064 150 1065 142 1063 146 b 1069 156 1064 154 1067 157 b 1088 144 1075 154 1088 149 b 1082 139 1088 140 1085 138 z "},"N":{"ha":1035,"x_min":0,"x_max":0,"o":"m 979 322 b 979 356 979 339 979 339 b 975 389 979 372 975 372 b 975 422 975 406 975 406 b 976 457 975 440 976 440 b 978 490 976 474 978 474 b 975 524 978 507 975 507 b 975 557 975 540 975 540 b 979 590 975 574 979 574 b 978 624 979 607 978 607 b 979 657 978 640 979 640 b 974 690 979 674 974 674 b 975 725 974 708 975 708 b 979 758 975 742 979 742 b 979 792 979 775 979 775 b 978 825 979 808 978 808 b 979 858 978 842 979 842 b 974 892 979 875 974 875 b 979 925 974 908 979 908 b 976 958 979 942 976 942 b 975 993 976 976 975 976 b 947 1022 975 1010 964 1022 b 914 1025 931 1022 931 1025 b 881 1024 897 1025 897 1024 b 849 1025 865 1024 865 1025 b 815 1024 832 1025 832 1024 b 783 1021 800 1024 800 1021 b 750 1025 767 1021 767 1025 b 722 993 733 1025 722 1010 b 718 958 722 975 718 975 b 722 924 718 942 722 942 b 718 890 722 907 718 907 b 722 856 718 872 722 872 b 718 821 722 839 718 839 b 718 788 718 804 718 804 b 721 753 718 769 721 769 b 724 718 721 736 724 736 b 722 685 724 701 722 701 b 719 650 722 668 719 668 b 718 617 719 633 718 633 b 721 582 718 599 721 599 b 718 547 721 565 718 565 b 693 536 718 533 704 526 b 665 554 681 546 678 543 b 642 576 653 564 654 567 b 614 596 628 588 628 586 b 592 621 601 607 604 610 b 563 638 579 631 575 628 b 538 658 550 649 550 649 b 511 679 525 669 524 669 b 489 703 499 690 501 693 b 460 721 475 714 474 711 b 436 744 447 732 449 735 b 411 765 424 756 424 754 b 386 788 397 776 399 776 b 360 808 374 799 372 797 b 335 829 347 818 347 818 b 310 851 322 840 322 840 b 282 869 297 861 294 858 b 258 893 269 879 271 882 b 231 911 246 903 244 901 b 207 933 218 922 219 922 b 182 956 193 944 194 944 b 157 978 169 967 171 968 b 110 1007 143 990 124 996 b 97 1018 106 1011 103 1015 b 76 1024 92 1022 83 1022 b 65 1022 72 1024 69 1024 b 57 999 58 1018 57 1007 b 57 903 56 967 57 935 b 57 869 57 886 57 886 b 60 835 57 851 60 851 b 57 801 60 818 57 818 b 56 768 57 785 56 785 b 56 735 56 751 56 751 b 61 701 56 718 61 718 b 57 668 61 685 57 685 b 60 635 57 651 60 651 b 56 601 60 618 56 618 b 60 568 56 585 60 585 b 56 535 60 551 56 551 b 61 500 56 518 61 518 b 61 467 61 483 61 483 b 56 433 61 450 56 450 b 56 400 56 417 56 417 b 56 367 56 383 56 383 b 61 333 56 350 61 350 b 57 300 61 317 57 317 b 56 267 57 283 56 283 b 61 233 56 250 61 250 b 56 200 61 217 56 217 b 58 167 56 183 58 183 b 58 132 58 150 58 150 b 57 99 58 115 57 115 b 60 65 57 82 60 82 b 56 32 60 49 56 49 b 89 4 56 15 72 4 b 121 0 104 4 104 0 b 154 0 138 0 138 0 b 186 4 171 0 171 4 b 219 0 203 4 203 0 b 251 3 236 0 236 3 b 285 -1 268 3 268 -1 b 318 32 301 -1 318 15 b 313 67 318 49 313 49 b 317 100 313 83 317 83 b 313 135 317 117 313 117 b 318 168 313 151 318 151 b 317 203 318 185 317 185 b 314 236 317 219 314 219 b 313 271 314 253 313 253 b 314 304 313 288 314 288 b 318 339 314 321 318 321 b 314 372 318 356 314 356 b 314 406 314 389 314 389 b 313 440 314 424 313 424 b 317 474 313 457 317 457 b 343 488 317 489 332 496 b 371 469 356 476 358 479 b 396 447 383 458 383 458 b 419 424 408 438 407 435 b 444 401 432 414 431 413 b 472 385 457 392 460 394 b 496 361 485 374 483 371 b 524 342 508 350 510 353 b 549 321 536 332 536 332 b 571 296 561 310 558 307 b 600 279 583 286 586 290 b 622 254 613 268 610 265 b 650 236 635 244 638 246 b 675 215 663 225 663 225 b 700 193 688 204 688 204 b 728 175 713 183 715 186 b 753 153 740 165 740 164 b 776 131 765 143 764 140 b 801 108 789 119 789 119 b 828 89 814 99 815 100 b 853 68 840 78 840 78 b 881 49 867 57 868 58 b 951 3 901 31 922 7 b 972 10 960 3 968 3 b 976 24 975 14 976 19 b 978 88 976 46 978 67 b 978 121 978 104 978 104 b 979 154 978 138 979 138 b 979 189 979 171 979 171 b 974 222 979 206 974 206 b 974 256 974 239 974 239 b 979 289 974 272 979 272 b 979 322 979 306 979 306 z m 317 706 b 322 706 319 706 321 706 b 339 706 328 706 333 704 b 363 718 347 707 356 715 b 371 715 365 719 369 719 b 361 700 374 706 364 703 b 356 690 358 699 357 694 b 351 678 354 686 353 682 b 347 669 351 674 350 671 b 344 669 347 669 346 669 b 340 669 343 669 342 669 b 331 685 336 672 335 681 b 321 689 328 688 325 688 b 315 697 319 690 317 693 b 317 706 313 701 314 704 z m 243 758 b 275 760 253 767 263 772 b 275 753 278 758 276 754 b 243 751 264 746 253 749 b 243 758 240 751 240 757 z m 218 649 b 239 657 224 656 232 656 b 247 664 242 657 246 658 b 249 667 249 664 249 665 b 250 667 249 667 250 667 b 288 668 263 667 275 665 b 294 668 290 668 292 669 b 300 664 297 668 299 667 b 300 653 301 660 301 656 b 294 651 299 651 296 651 b 285 651 290 651 288 651 b 279 649 283 650 281 650 b 274 640 276 646 276 643 b 264 635 271 636 267 635 b 251 636 260 635 256 636 b 238 635 247 638 242 636 b 224 631 233 633 228 629 b 222 633 224 632 222 632 b 221 635 222 633 222 635 b 217 642 221 638 218 638 b 218 649 217 643 217 647 z m 183 693 b 186 697 183 696 185 697 b 189 697 188 697 188 697 b 190 697 189 697 190 697 b 192 693 192 696 192 694 b 190 692 192 693 190 692 b 183 692 188 690 186 690 b 183 693 183 692 183 693 z m 172 844 b 179 853 174 847 176 851 b 181 851 179 853 181 853 b 182 842 183 850 183 844 b 175 836 179 839 176 838 b 172 844 175 836 171 843 z m 151 628 b 153 632 151 628 151 631 b 171 633 158 632 164 632 b 171 629 172 633 172 631 b 151 628 165 624 163 624 z m 175 296 b 172 293 174 294 172 293 b 168 299 171 294 169 296 b 169 303 168 300 168 303 b 172 304 169 303 171 304 b 174 304 172 304 174 304 b 175 300 174 303 175 301 b 175 296 176 299 176 297 z m 183 443 b 182 451 181 443 179 450 b 206 454 189 458 196 460 b 206 444 208 453 208 446 b 183 443 197 442 189 443 z m 218 347 l 197 347 b 196 357 194 347 193 354 b 219 357 204 364 208 364 b 218 347 222 354 222 347 z m 218 568 b 214 579 215 567 213 574 b 229 590 217 588 224 590 b 293 585 251 590 272 588 b 293 578 296 585 296 579 b 218 568 269 561 244 571 z m 274 451 b 271 450 272 450 272 450 b 269 451 271 450 269 451 b 271 461 267 454 268 461 b 272 460 271 461 272 461 b 274 451 275 458 275 454 z m 329 518 b 315 511 324 517 319 514 b 293 507 308 506 300 504 b 257 517 282 510 269 514 b 249 526 250 518 244 525 b 314 540 271 533 292 538 b 344 535 324 542 335 535 b 363 540 351 535 357 538 b 368 544 365 542 367 543 b 369 544 368 544 369 544 b 399 547 378 551 389 553 b 401 532 401 544 404 532 b 329 518 376 526 353 524 z m 344 578 b 368 585 354 586 358 588 b 368 581 369 585 369 581 b 346 574 361 578 354 575 b 344 578 344 572 343 576 z m 399 485 b 400 494 396 488 397 494 b 399 485 410 497 411 474 z m 408 615 b 390 604 404 603 397 603 b 365 613 382 606 374 611 b 338 610 356 613 346 614 b 310 613 328 607 319 607 b 311 626 306 615 307 626 b 393 632 340 628 367 643 l 401 632 b 401 629 403 632 403 631 b 400 629 401 629 400 629 b 406 625 401 628 404 626 b 408 615 408 624 408 619 z m 442 554 b 421 561 436 556 429 558 b 421 572 418 563 418 569 b 444 576 429 578 436 582 b 449 561 447 574 449 567 b 442 554 449 560 443 554 z m 481 463 b 453 460 471 461 463 460 b 449 465 450 460 449 461 b 453 472 449 469 450 472 b 479 476 461 474 471 475 b 483 471 482 476 483 475 b 483 469 483 471 483 469 b 481 463 485 465 482 463 z m 547 501 b 540 499 546 500 543 499 b 539 508 536 497 535 506 b 544 513 540 510 543 511 b 549 508 546 514 549 511 b 547 501 550 506 549 503 z m 683 468 b 671 467 679 465 675 467 b 668 469 668 467 668 468 b 667 471 667 469 667 469 b 671 475 667 472 668 475 b 682 475 674 475 678 475 b 683 468 686 475 686 469 z m 832 788 b 836 785 833 788 835 786 b 832 781 835 783 833 779 b 826 785 831 781 829 783 b 832 788 829 786 831 788 z m 807 597 b 836 603 817 599 828 601 b 838 596 839 604 840 599 b 822 583 833 592 826 586 b 806 583 817 579 811 581 b 807 597 801 586 803 596 z m 792 663 b 803 665 794 664 799 667 b 804 663 804 664 804 664 b 803 658 804 661 803 660 b 800 657 801 657 801 657 b 792 658 796 657 793 658 b 792 663 789 658 789 663 z m 764 576 b 781 578 765 583 774 581 b 779 569 783 576 783 571 b 771 567 776 568 774 568 b 764 576 765 565 763 569 z m 747 535 b 763 538 751 536 757 538 b 817 543 781 539 799 538 b 839 538 824 544 832 542 b 838 528 843 536 842 528 b 746 532 815 525 774 524 b 747 535 744 532 744 535 z m 725 472 b 803 478 749 494 774 500 b 824 469 808 474 815 472 b 822 463 826 468 826 463 b 813 461 819 461 817 461 b 728 465 785 467 756 471 b 725 472 724 464 722 469 z m 774 314 b 750 311 765 306 763 304 b 750 318 747 313 747 318 b 772 321 757 319 764 319 b 774 314 774 321 775 317 z m 765 408 b 751 397 758 406 751 404 b 740 383 751 389 746 383 b 710 385 740 383 722 383 b 708 393 706 386 706 392 b 719 396 713 394 715 396 b 735 415 726 399 732 407 b 749 428 736 422 743 428 l 806 428 b 807 421 808 428 810 422 b 765 408 794 417 776 411 z m 819 344 b 810 349 817 344 813 347 b 800 351 807 350 804 350 b 800 353 800 353 800 353 b 800 354 800 353 800 353 b 801 361 800 357 800 360 b 814 369 806 365 810 367 b 831 378 819 372 825 375 b 840 381 833 379 838 381 b 847 382 842 382 844 383 b 851 376 850 382 851 379 b 849 371 851 374 850 372 b 835 363 844 367 839 364 b 828 358 832 363 829 361 b 828 353 828 357 828 354 b 819 344 828 349 824 344 z m 838 240 b 831 239 835 240 833 240 b 828 242 829 239 828 240 b 828 244 828 243 828 244 b 836 249 831 246 833 247 b 840 246 838 249 839 247 b 838 240 840 243 839 242 z m 853 167 b 851 178 847 167 847 176 b 857 174 854 178 857 176 b 853 167 857 169 856 167 z "},"O":{"ha":1208,"x_min":0,"x_max":0,"o":"m 1150 542 b 1150 575 1150 553 1151 564 b 1146 608 1149 586 1147 599 b 1135 642 1143 619 1138 631 b 1124 674 1132 653 1128 663 b 1115 706 1121 683 1119 696 b 1097 735 1111 717 1103 725 b 1088 767 1093 744 1093 757 b 1068 794 1082 776 1074 786 b 1047 822 1061 804 1054 814 b 1025 847 1040 831 1033 839 b 1004 874 1018 856 1011 865 b 978 896 996 882 986 888 b 950 914 969 903 958 908 b 924 935 942 921 933 929 b 896 956 914 942 906 950 b 865 969 886 961 875 964 b 835 983 856 975 844 979 b 804 999 825 988 815 994 b 772 1008 794 1003 782 1004 b 739 1017 761 1011 750 1015 b 706 1018 728 1019 717 1017 b 672 1026 694 1021 683 1025 b 639 1032 661 1028 650 1032 b 606 1028 628 1033 617 1028 b 571 1028 593 1028 582 1028 b 538 1025 560 1028 549 1026 b 504 1024 526 1024 515 1025 b 471 1014 493 1022 482 1017 b 439 1004 461 1011 450 1008 b 407 994 428 1001 418 997 b 374 986 397 990 385 990 b 343 972 364 982 353 976 b 314 956 333 967 324 961 b 286 938 304 950 294 943 b 260 915 276 931 268 922 b 235 893 250 908 243 900 b 207 874 225 886 214 882 b 183 849 199 865 192 857 b 165 819 176 840 172 829 b 146 793 158 811 151 801 b 125 765 139 783 131 775 b 108 736 119 756 114 747 b 94 706 103 726 100 717 b 86 674 90 696 89 683 b 76 640 82 663 79 651 b 68 608 74 631 69 619 b 63 575 65 597 64 586 b 56 542 61 564 57 553 b 58 508 56 531 58 519 b 56 474 58 497 56 485 b 64 440 57 463 63 451 b 65 407 65 429 64 418 b 71 374 68 396 68 385 b 86 343 75 363 83 353 b 93 310 90 332 89 319 b 110 279 97 299 104 289 b 126 250 114 269 121 260 b 142 219 132 240 135 229 b 164 194 147 211 157 204 b 183 167 171 186 175 175 b 210 144 190 158 201 153 b 231 118 218 138 222 126 b 257 97 239 111 249 104 b 288 82 267 90 278 88 b 314 60 297 75 304 65 b 344 46 324 54 335 51 b 374 28 354 40 364 33 b 406 17 385 24 394 19 b 439 11 415 13 428 14 b 471 -1 450 7 460 0 b 504 -4 482 -4 493 -3 b 538 -14 515 -7 526 -14 b 571 -17 549 -15 560 -17 b 606 -15 582 -18 593 -15 b 639 -12 617 -15 628 -14 b 672 -11 650 -12 661 -12 b 706 -10 683 -10 696 -11 b 739 0 718 -8 728 -3 b 771 10 750 3 761 6 b 803 21 782 13 792 17 b 836 29 814 25 825 25 b 865 47 846 33 854 42 b 896 60 875 53 886 54 b 924 81 906 65 914 75 b 950 101 932 88 942 94 b 979 118 958 107 971 111 b 1004 142 988 126 996 133 b 1025 168 1013 149 1018 160 b 1049 192 1032 176 1042 183 b 1069 219 1056 201 1064 210 b 1086 249 1076 229 1081 239 b 1103 279 1092 258 1097 268 b 1113 311 1107 289 1108 301 b 1125 342 1117 322 1122 332 b 1139 374 1129 353 1136 363 b 1142 407 1142 385 1140 396 b 1146 440 1144 418 1144 429 b 1150 474 1147 451 1150 463 b 1153 508 1151 485 1153 497 b 1150 542 1153 519 1150 531 z m 214 601 b 215 601 214 601 215 601 b 225 601 219 601 222 601 b 240 597 231 601 236 600 b 240 586 243 594 243 588 b 238 583 239 585 238 583 b 226 582 233 582 231 582 b 213 590 221 583 217 586 b 214 601 210 593 211 601 z m 213 419 b 199 411 208 417 204 414 b 196 414 197 410 196 411 b 197 419 194 415 196 418 b 211 429 201 422 207 426 b 214 426 213 431 214 429 b 215 425 214 426 214 426 b 213 419 215 422 214 421 z m 264 450 l 247 450 b 247 458 246 450 244 456 b 265 458 253 465 257 465 b 264 450 268 457 267 450 z m 272 522 b 253 515 267 517 260 515 b 188 519 231 518 210 508 b 188 531 185 521 185 528 b 207 529 193 535 200 536 b 222 528 213 525 217 525 b 263 535 235 538 253 539 b 271 533 265 533 268 533 b 272 522 274 533 275 525 z m 638 886 b 663 894 646 899 654 896 b 665 890 664 894 665 893 b 665 888 665 889 665 889 b 663 881 665 885 665 882 b 639 875 656 879 649 878 b 638 886 636 875 635 882 z m 576 922 b 579 928 576 926 578 928 b 593 926 585 928 589 926 b 596 919 596 925 597 924 b 593 914 596 917 594 914 b 579 915 589 915 583 915 b 576 922 578 915 576 918 z m 444 825 b 461 828 450 826 456 826 b 463 825 461 828 463 826 b 461 821 463 822 463 821 b 444 817 456 819 450 818 b 443 819 443 817 443 818 b 442 821 443 821 442 821 b 444 825 442 824 443 825 z m 475 114 l 463 114 b 460 119 461 114 460 117 b 463 124 460 122 461 124 l 475 124 b 478 119 476 124 478 122 b 475 114 478 117 476 114 z m 600 108 b 583 106 594 107 589 107 b 581 110 582 106 581 107 b 582 115 579 114 581 115 b 600 119 589 117 594 118 b 603 114 601 119 603 117 b 600 108 603 111 601 108 z m 711 161 b 693 157 701 156 699 154 b 693 167 690 157 690 164 b 710 172 699 174 704 175 b 711 161 713 171 714 163 z m 861 407 b 847 375 858 396 851 386 b 831 346 843 365 836 356 b 815 317 825 336 822 325 b 793 290 808 307 801 297 b 764 271 785 282 774 278 b 738 249 756 264 747 254 b 704 240 728 243 715 244 b 672 229 694 236 683 232 b 639 224 661 228 650 225 b 606 221 628 222 617 221 b 571 225 593 221 582 224 b 538 229 560 226 549 226 b 504 236 526 232 515 232 b 474 251 493 240 483 246 b 446 272 464 257 456 265 b 419 292 438 278 426 283 b 396 317 411 300 403 307 b 379 346 389 325 385 336 b 363 376 374 356 368 365 b 353 408 358 386 356 397 b 339 440 350 418 342 428 b 338 474 338 450 339 463 b 339 508 338 485 339 496 b 335 542 339 519 335 531 b 342 576 336 554 339 565 b 349 608 343 588 346 599 b 364 639 351 619 360 629 b 376 671 368 650 371 661 b 394 700 382 681 388 690 b 418 725 401 708 410 718 b 446 743 425 733 438 738 b 475 761 456 750 465 756 b 506 774 485 767 494 771 b 538 785 517 778 526 782 b 571 792 549 788 560 790 b 606 796 582 793 593 796 b 639 789 617 796 628 790 b 672 785 650 788 661 788 b 706 779 683 782 696 783 b 738 765 717 776 728 771 b 765 746 747 761 756 751 b 790 722 774 739 782 731 b 814 699 799 715 807 707 b 835 671 821 689 829 682 b 850 642 840 661 846 651 b 861 608 854 631 857 619 b 868 575 864 599 867 588 b 869 542 871 565 868 553 b 874 508 871 531 874 519 b 874 474 874 496 875 485 b 868 440 872 463 869 451 b 861 407 865 429 864 418 z m 885 219 l 874 219 b 872 224 874 219 872 221 b 874 228 872 226 874 228 l 885 228 b 888 224 886 228 888 226 b 885 219 888 221 886 219 z m 933 375 b 919 371 926 369 924 368 b 918 381 917 372 917 378 b 933 385 924 386 928 388 b 933 375 936 385 936 376 z m 919 714 b 919 721 918 715 918 719 b 938 726 926 722 932 725 b 939 721 940 728 940 724 b 919 714 933 713 928 706 z m 940 519 b 940 521 940 521 940 521 b 942 525 940 524 940 525 b 953 524 946 525 949 524 b 954 518 954 524 954 521 b 953 514 954 515 954 514 b 942 515 949 514 946 515 b 940 519 940 515 940 518 z m 963 268 b 947 265 957 267 953 267 b 946 269 946 265 946 267 b 947 275 944 272 946 275 b 963 278 953 276 957 276 b 964 274 964 278 964 276 b 964 272 964 274 964 274 b 963 268 965 269 964 268 z m 1004 486 b 986 482 999 485 993 483 b 985 490 985 482 983 488 b 1003 499 992 501 997 499 b 1006 494 1004 499 1006 496 b 1006 492 1006 493 1006 493 b 1004 486 1006 489 1006 486 z m 1008 708 b 989 697 1001 704 994 701 b 985 703 988 697 985 699 b 985 704 985 704 985 704 b 988 714 983 708 985 713 b 1006 722 993 717 1000 719 b 1010 718 1008 724 1010 721 b 1010 717 1010 718 1010 717 b 1008 708 1011 714 1010 710 z "},"P":{"ha":929,"x_min":0,"x_max":0,"o":"m 872 689 b 872 724 872 701 874 713 b 863 757 871 735 865 746 b 853 789 860 768 856 779 b 839 821 849 800 843 810 b 825 851 833 831 832 842 b 803 878 819 861 810 869 b 781 904 796 888 789 896 b 756 926 774 911 764 919 b 732 951 747 933 742 944 b 701 967 722 957 711 961 b 672 985 692 972 682 981 b 639 994 661 989 650 990 b 607 1008 628 997 619 1006 b 574 1013 597 1011 585 1011 b 540 1018 563 1015 551 1017 b 506 1022 529 1019 518 1022 b 472 1025 494 1024 483 1025 b 438 1022 456 1025 456 1022 b 404 1019 421 1022 421 1019 b 371 1024 388 1019 388 1024 b 338 1021 354 1024 354 1021 b 304 1022 321 1021 321 1022 b 271 1021 288 1022 288 1021 b 238 1024 254 1021 254 1024 b 204 1021 221 1024 221 1021 b 171 1022 188 1021 188 1022 b 138 1022 154 1022 154 1022 b 104 1021 121 1022 121 1021 b 72 1008 92 1021 79 1017 b 58 976 64 1001 58 989 b 61 943 58 960 61 960 b 58 910 61 926 58 926 b 61 876 58 893 61 893 b 57 843 61 860 57 860 b 58 811 57 828 58 828 b 57 778 58 794 57 794 b 56 744 57 761 56 761 b 58 711 56 728 58 728 b 61 678 58 694 61 694 b 60 644 61 661 60 661 b 61 611 60 628 61 628 b 60 578 61 594 60 594 b 57 544 60 561 57 561 b 61 511 57 528 61 528 b 57 478 61 494 57 494 b 61 444 57 461 61 461 b 60 411 61 428 60 428 b 58 378 60 394 58 394 b 61 344 58 361 61 361 b 61 313 61 328 61 328 b 56 279 61 296 56 296 b 61 246 56 263 61 263 b 57 213 61 229 57 229 b 58 179 57 196 58 196 b 57 146 58 163 57 163 b 58 113 57 129 58 129 b 58 79 58 96 58 96 b 58 46 58 63 58 63 b 74 15 58 33 65 24 b 104 3 82 7 92 3 b 135 3 119 3 119 3 b 165 1 150 3 150 1 b 196 4 181 1 181 4 b 226 1 211 4 211 1 b 257 0 242 1 242 0 b 288 4 272 0 272 4 b 319 14 300 4 311 6 b 332 46 326 22 332 33 b 335 79 332 63 335 63 b 333 114 335 97 333 97 b 335 147 333 131 335 131 b 329 181 335 164 329 164 b 332 215 329 199 332 199 b 335 249 332 232 335 232 b 343 282 335 261 335 274 b 376 294 351 290 364 294 b 408 296 393 294 393 296 b 440 292 424 296 424 292 b 472 294 456 292 456 294 b 506 296 483 294 494 296 b 539 300 517 297 528 299 b 574 300 550 301 563 299 b 607 307 585 303 596 304 b 640 317 618 310 629 313 b 671 331 650 321 661 325 b 701 347 682 335 690 342 b 729 365 711 353 719 360 b 758 383 739 372 750 375 b 783 407 767 390 775 399 b 801 435 790 415 794 426 b 821 463 808 444 815 453 b 840 490 826 472 835 481 b 854 522 844 501 850 511 b 864 554 858 532 861 543 b 868 588 867 565 867 576 b 872 622 869 599 871 610 b 874 656 872 633 874 644 b 872 689 874 667 874 678 z m 532 925 b 535 911 538 928 540 915 b 533 911 535 911 535 911 b 529 911 532 910 531 910 b 532 925 524 917 525 922 z m 271 521 b 274 528 268 524 269 529 b 271 521 282 525 281 513 z m 219 819 b 263 819 235 832 240 832 b 261 813 265 818 264 813 l 221 813 b 219 819 218 813 217 818 z m 190 888 b 207 892 196 896 201 897 b 206 882 208 889 208 883 b 192 878 201 881 196 879 b 190 888 189 878 188 885 z m 172 371 b 175 381 168 374 171 382 b 207 374 186 381 197 383 b 204 363 211 371 210 364 b 172 371 192 361 181 361 z m 213 263 b 199 272 207 264 203 268 b 204 285 194 276 199 286 b 217 275 208 282 213 279 b 213 263 222 271 218 261 z m 222 453 b 219 451 221 453 221 453 b 213 453 218 450 214 451 b 217 471 204 460 207 468 b 222 453 225 474 229 458 z m 239 575 b 179 568 219 569 199 571 b 178 576 175 568 174 575 b 238 582 197 586 218 585 b 239 575 242 582 242 576 z m 239 708 b 236 706 239 707 238 706 l 201 706 b 199 708 200 706 199 707 b 200 714 199 711 199 713 b 233 728 211 719 222 726 b 239 708 243 729 242 718 z m 256 653 b 257 663 254 653 254 661 b 274 658 263 671 269 668 b 256 653 268 650 263 646 z m 285 349 b 265 346 278 347 272 346 b 260 354 261 344 257 350 b 286 360 268 364 276 364 b 285 349 292 357 290 350 z m 333 374 b 303 392 324 378 314 385 b 303 404 299 394 299 401 b 331 399 314 413 324 415 b 339 386 332 393 335 389 b 333 374 343 382 339 372 z m 346 442 b 342 439 346 439 344 438 b 311 446 332 442 322 446 b 285 440 303 446 294 443 b 281 449 281 439 278 446 b 311 472 290 461 301 467 b 344 449 326 478 333 456 b 346 442 346 447 347 444 z m 417 431 b 410 435 415 431 411 433 b 415 446 408 440 410 444 b 421 446 417 446 418 446 b 424 440 422 444 424 442 b 417 431 425 435 422 431 z m 594 425 b 593 438 586 424 585 436 b 594 425 599 439 600 426 z m 600 624 b 590 593 599 613 594 601 b 574 567 586 583 579 574 b 551 543 567 558 560 549 b 521 532 542 538 531 535 b 490 525 511 528 501 526 b 458 519 479 524 469 519 b 418 521 438 519 438 521 b 376 519 397 522 397 519 b 344 535 364 519 353 526 b 335 567 336 542 335 554 b 329 603 335 585 329 585 b 333 639 329 621 333 621 b 331 674 333 656 331 656 b 332 710 331 692 332 692 b 332 746 332 728 332 728 b 343 779 332 758 336 771 b 376 792 351 788 364 792 b 418 788 397 792 397 788 b 458 793 438 788 438 793 b 490 788 469 793 479 789 b 521 781 501 785 511 783 b 549 765 532 776 540 771 b 572 744 557 758 565 753 b 589 718 579 736 585 728 b 599 688 593 708 596 699 b 603 656 600 678 603 667 b 600 624 603 644 601 633 z m 719 661 b 717 657 719 658 718 657 b 692 653 708 656 700 654 b 689 656 690 653 689 654 b 689 657 689 656 689 657 b 692 661 689 660 690 661 b 717 664 700 663 708 663 b 719 661 718 664 719 663 z m 686 736 b 689 746 682 740 685 747 b 697 739 692 744 694 742 b 694 729 701 736 699 728 b 686 736 692 731 689 733 z m 679 836 b 701 831 686 835 694 838 b 700 822 703 828 703 822 b 678 828 690 821 683 819 b 679 836 675 831 676 836 z m 658 481 b 643 478 653 479 649 478 b 643 490 638 479 638 489 b 657 493 647 492 653 493 b 658 481 663 492 664 483 z m 678 690 b 657 704 671 694 664 700 b 657 715 654 707 654 713 b 675 710 664 721 671 722 b 681 700 676 706 679 703 b 678 690 683 697 681 689 z m 721 568 b 686 574 710 568 696 571 b 688 586 682 575 682 585 b 722 581 700 589 714 585 b 721 568 728 578 726 568 z "},"Q":{"ha":1206,"x_min":0,"x_max":0,"o":"m 1149 543 b 1147 576 1149 554 1149 565 b 1139 610 1146 588 1142 599 b 1136 643 1138 621 1139 632 b 1126 676 1132 654 1131 665 b 1111 706 1124 686 1115 696 b 1101 739 1107 717 1107 729 b 1086 768 1097 749 1092 758 b 1063 794 1081 778 1069 785 b 1047 825 1057 803 1054 815 b 1026 850 1040 833 1033 842 b 1003 875 1018 858 1010 867 b 975 894 994 882 983 886 b 951 919 965 901 961 913 b 922 936 943 926 932 931 b 896 957 913 943 906 951 b 864 969 886 963 874 964 b 835 988 854 975 846 983 b 804 1000 825 992 814 997 b 769 1007 793 1004 781 1003 b 738 1015 760 1010 749 1013 b 706 1025 726 1017 717 1022 b 671 1025 694 1026 682 1024 b 638 1028 660 1026 649 1028 b 604 1032 626 1029 615 1032 b 571 1029 593 1032 582 1029 b 538 1028 560 1028 549 1029 b 503 1024 526 1026 514 1026 b 471 1015 492 1022 482 1017 b 438 1007 460 1013 449 1010 b 407 994 428 1004 417 999 b 375 983 396 992 386 988 b 343 972 365 979 353 978 b 313 957 333 967 322 963 b 285 938 303 951 294 944 b 260 915 276 932 268 922 b 233 894 250 908 243 901 b 208 872 225 886 217 879 b 182 850 201 864 190 858 b 160 825 175 842 167 835 b 143 796 153 817 149 806 b 124 768 136 786 131 778 b 110 738 118 758 114 747 b 93 708 104 728 97 718 b 83 675 89 697 88 686 b 72 643 81 664 75 654 b 68 610 69 632 71 621 b 57 578 67 599 58 589 b 56 543 56 567 57 554 b 58 510 56 532 58 521 b 58 476 58 499 58 488 b 58 442 60 464 57 453 b 65 408 60 431 63 419 b 72 375 67 397 69 386 b 81 342 75 364 78 353 b 92 310 85 332 88 319 b 107 279 96 299 103 289 b 126 251 113 269 121 261 b 146 224 132 242 139 232 b 163 193 151 214 156 203 b 183 167 169 185 176 175 b 208 143 192 158 200 151 b 233 121 217 136 225 128 b 258 99 242 113 250 106 b 289 82 268 92 279 88 b 318 64 299 75 308 71 b 344 43 328 58 335 49 b 376 31 354 38 367 35 b 410 21 388 26 399 25 b 440 7 419 17 429 11 b 474 3 451 4 464 6 b 492 -22 485 0 492 -11 b 490 -58 492 -40 490 -40 b 490 -93 490 -75 490 -75 b 490 -128 490 -111 490 -111 b 494 -164 490 -146 494 -146 b 515 -189 494 -176 501 -189 b 550 -189 533 -189 533 -189 b 586 -186 568 -189 568 -186 b 622 -186 604 -186 604 -186 b 658 -187 640 -186 640 -187 b 693 -185 675 -187 675 -185 b 718 -164 707 -185 718 -176 b 717 -128 718 -146 717 -146 b 718 -93 717 -111 718 -111 b 721 -58 718 -75 721 -75 b 718 -22 721 -40 718 -40 b 735 3 718 -11 724 0 b 767 10 746 6 757 7 b 799 21 778 13 789 18 b 831 33 810 25 821 29 b 864 43 842 38 853 38 b 890 64 874 49 881 58 b 922 78 900 71 913 72 b 947 101 932 85 939 94 b 975 121 957 108 967 114 b 1000 144 983 128 992 136 b 1021 169 1008 151 1014 161 b 1043 196 1029 179 1036 186 b 1068 219 1050 204 1061 211 b 1081 251 1074 229 1075 242 b 1100 279 1086 263 1096 269 b 1114 311 1106 289 1110 300 b 1128 342 1118 321 1124 332 b 1136 375 1131 353 1133 364 b 1143 408 1139 386 1140 397 b 1147 442 1144 419 1146 431 b 1149 476 1149 453 1147 464 b 1150 510 1149 488 1150 499 b 1149 543 1150 521 1150 532 z m 181 592 b 185 596 182 593 183 594 b 188 596 186 597 188 597 b 193 586 190 592 193 589 b 188 575 192 582 190 579 b 185 575 186 574 185 574 b 179 586 182 579 181 582 b 181 592 178 588 179 590 z m 185 403 b 171 397 179 397 175 394 b 169 410 167 400 167 407 b 182 417 172 415 176 417 b 185 403 186 415 188 407 z m 199 463 b 196 458 199 460 197 458 b 186 461 193 460 190 460 b 185 464 186 461 185 463 b 188 468 185 467 186 468 b 197 467 190 467 193 467 b 199 463 197 467 199 465 z m 251 675 b 271 679 257 676 264 678 b 274 668 275 681 278 671 b 251 663 267 661 258 663 b 247 668 250 663 249 665 b 251 675 247 672 249 675 z m 232 406 b 229 407 231 407 231 407 b 231 419 225 410 226 421 b 233 418 232 419 233 418 b 232 406 239 415 236 404 z m 247 546 b 253 536 251 549 256 540 b 247 546 246 524 236 536 z m 274 321 b 251 314 267 318 258 317 b 249 326 247 314 246 322 b 274 332 257 333 264 338 b 274 321 278 331 278 322 z m 322 231 b 319 229 321 229 321 229 b 318 233 319 229 318 231 b 319 242 315 236 317 240 b 322 242 321 243 322 243 b 324 240 324 240 324 240 b 322 231 325 238 325 232 z m 454 157 b 432 143 440 132 439 131 b 433 153 431 146 431 151 b 451 167 439 158 446 163 b 453 168 451 168 451 168 b 454 157 454 168 456 161 z m 494 208 b 493 210 494 210 493 210 b 496 228 489 215 490 228 b 497 228 496 229 496 229 b 500 224 499 228 499 226 b 497 211 501 219 500 213 b 494 208 496 210 494 208 z m 508 104 b 497 108 504 104 500 104 b 504 126 492 115 501 125 b 563 147 524 136 543 135 b 583 164 569 153 576 158 b 604 172 590 168 597 171 b 625 171 611 172 618 168 b 638 179 629 174 633 176 b 658 183 644 183 651 186 b 661 181 660 183 660 182 b 661 169 663 178 661 174 b 668 150 661 161 664 154 b 679 136 672 144 675 142 b 681 128 681 135 681 132 b 643 136 668 126 654 126 b 626 150 638 142 632 149 b 604 147 619 150 611 147 b 558 132 589 144 572 140 b 508 104 542 122 525 107 z m 525 189 b 525 192 525 190 525 192 b 538 200 529 196 533 196 b 546 211 540 203 543 207 b 563 221 550 218 556 219 b 581 222 568 222 575 221 b 614 229 592 224 603 229 b 624 222 618 229 622 226 b 621 214 624 218 622 215 b 588 192 613 199 600 190 b 567 196 581 192 574 194 b 546 192 560 196 553 193 b 539 188 543 190 542 189 b 526 186 535 186 529 182 b 525 189 525 186 525 188 z m 656 228 b 657 221 657 226 657 224 b 656 213 657 218 657 215 b 649 208 654 208 651 207 b 646 217 647 210 646 213 b 646 219 646 218 646 218 b 656 228 647 224 653 231 z m 656 279 b 667 282 660 285 663 286 b 665 272 668 279 668 272 b 658 269 663 271 661 271 b 656 279 656 269 654 275 z m 556 -39 b 551 -43 554 -40 553 -42 b 550 -43 551 -44 550 -43 b 554 -35 549 -36 551 -31 b 556 -35 556 -35 556 -35 b 556 -39 556 -36 556 -37 z m 581 68 b 553 64 571 65 563 61 b 558 69 553 68 556 69 b 582 81 567 72 575 75 b 594 93 586 83 590 88 b 601 106 597 97 599 103 b 614 113 606 111 610 113 l 613 113 b 624 101 617 111 622 108 b 628 89 625 97 626 93 b 638 83 629 83 635 83 b 646 82 640 83 643 83 b 653 81 649 82 651 82 b 654 69 654 78 656 72 b 650 67 653 67 651 67 b 581 68 626 67 603 74 z m 617 4 b 613 8 615 3 614 4 b 611 17 613 11 611 14 b 613 25 610 19 611 25 b 664 33 629 36 646 32 b 664 19 668 33 669 19 b 657 19 661 19 660 19 b 636 15 650 19 643 18 b 617 4 629 14 624 8 z m 647 -104 b 629 -107 642 -110 636 -118 b 631 -97 628 -104 629 -99 b 647 -94 636 -90 642 -90 b 647 -104 650 -96 650 -103 z m 679 -12 b 653 -11 669 -15 661 -19 b 654 -6 651 -10 651 -6 b 681 -6 663 -6 671 1 b 679 -12 682 -7 681 -12 z m 871 476 b 867 444 871 465 868 456 b 864 411 865 433 867 422 b 854 379 861 400 858 390 b 836 351 851 369 840 361 b 821 322 831 342 828 332 b 803 296 815 314 811 303 b 778 274 796 288 786 282 b 753 251 769 267 763 257 b 717 274 738 242 717 256 b 718 304 717 289 718 289 b 718 335 718 319 718 319 b 718 365 718 350 718 350 b 714 394 718 379 714 379 b 693 421 714 408 707 421 b 658 421 675 421 675 421 b 622 417 640 421 640 417 b 586 418 604 417 604 418 b 550 419 568 418 568 419 b 515 417 533 419 533 417 b 490 394 501 417 490 408 b 494 365 490 379 494 379 b 494 335 494 350 494 350 b 492 304 494 319 492 319 b 493 274 492 289 493 289 b 456 254 493 256 472 244 b 431 274 447 260 439 267 b 404 294 422 281 413 286 b 385 321 397 303 392 313 b 367 349 379 331 372 339 b 354 379 363 358 358 369 b 349 413 351 390 351 401 b 343 444 346 422 344 433 b 338 476 342 456 338 465 b 333 510 336 488 333 499 b 333 544 333 521 333 533 b 339 578 335 556 336 567 b 351 610 342 589 349 599 b 364 640 354 621 360 631 b 376 672 368 651 371 663 b 396 700 382 682 389 692 b 418 726 403 708 410 718 b 446 746 426 733 436 739 b 472 765 454 751 463 760 b 504 778 482 771 493 774 b 536 790 515 781 525 788 b 571 790 547 793 560 789 b 604 793 582 790 593 793 b 639 794 615 793 628 796 b 672 789 650 794 661 792 b 704 776 683 786 693 781 b 735 764 714 772 725 769 b 764 746 744 758 754 753 b 789 724 772 740 781 732 b 810 699 797 715 803 707 b 831 671 817 689 825 681 b 849 642 836 661 843 653 b 861 611 853 632 858 622 b 865 576 864 600 864 588 b 869 543 868 565 868 554 b 872 510 871 532 872 521 b 871 476 872 499 872 488 z m 886 810 b 865 807 879 810 872 808 b 863 811 864 807 863 808 b 865 815 863 813 864 815 b 885 819 872 817 878 818 b 888 817 886 819 888 818 b 888 814 888 815 888 815 b 886 810 888 813 888 810 z m 963 483 b 965 479 964 483 965 482 b 964 474 965 476 965 474 b 936 467 954 471 944 468 b 932 471 935 465 933 468 l 932 472 b 935 478 932 475 933 478 b 963 483 944 479 953 481 z m 929 740 b 940 742 933 740 938 740 b 943 739 942 742 943 740 b 942 735 943 738 943 735 b 933 732 939 733 936 732 b 928 733 932 732 931 732 b 929 740 926 735 926 739 z m 907 639 b 901 636 906 635 903 633 b 900 644 900 638 899 642 b 901 650 900 647 901 649 b 904 649 903 650 904 650 b 907 639 907 647 908 643 z m 950 276 b 911 285 925 269 917 269 b 915 297 908 290 911 299 b 954 290 928 296 943 315 b 950 276 956 285 954 278 z m 1000 385 b 982 383 994 385 989 383 b 963 399 968 382 954 399 b 1001 393 975 400 988 397 b 1000 385 1003 392 1003 386 z m 1018 540 b 1008 542 1015 540 1011 540 b 1007 549 1006 542 1006 547 b 1019 549 1011 553 1015 553 b 1018 540 1022 546 1021 540 z "},"R":{"ha":944,"x_min":0,"x_max":0,"o":"m 888 25 b 871 53 879 39 879 39 b 851 79 863 67 860 65 b 836 108 843 93 844 94 b 821 136 828 122 828 122 b 801 164 813 150 810 150 b 789 193 793 178 797 179 b 772 222 781 207 781 208 b 753 247 764 236 761 233 b 739 278 744 261 747 264 b 721 304 731 292 729 290 b 704 332 713 318 713 318 b 715 376 694 347 700 368 b 744 394 725 382 735 388 b 772 414 754 401 764 407 b 794 440 781 421 788 432 b 819 464 801 449 813 454 b 835 494 825 474 831 485 b 851 525 840 504 847 514 b 863 557 856 535 860 546 b 865 590 865 568 864 579 b 875 624 868 601 875 613 b 872 658 876 635 872 647 b 874 692 872 669 875 681 b 871 726 872 704 874 715 b 863 760 869 738 865 749 b 854 792 860 771 857 782 b 839 824 850 803 844 813 b 821 851 835 833 826 842 b 801 879 815 861 808 871 b 781 906 794 889 789 897 b 754 928 772 914 764 921 b 728 949 746 935 738 942 b 699 967 719 956 710 961 b 669 982 689 972 679 976 b 638 994 658 986 649 990 b 604 1001 626 997 615 999 b 572 1014 593 1004 583 1011 b 538 1014 561 1015 550 1013 b 504 1017 526 1015 515 1015 b 471 1022 493 1017 482 1022 b 436 1017 453 1022 453 1017 b 401 1018 418 1017 418 1018 b 367 1021 383 1018 383 1021 b 332 1022 349 1021 349 1022 b 297 1017 314 1022 314 1017 b 263 1019 279 1017 279 1019 b 228 1022 244 1019 244 1022 b 193 1022 210 1022 210 1022 b 158 1021 175 1022 175 1021 b 124 1024 140 1021 140 1024 b 89 1018 106 1024 106 1018 b 58 989 72 1018 58 1006 b 56 956 58 972 56 972 b 60 922 56 939 60 939 b 60 890 60 907 60 907 b 56 857 60 874 56 874 b 58 824 56 840 58 840 b 56 790 58 807 56 807 b 60 757 56 774 60 774 b 60 725 60 742 60 742 b 61 692 60 708 61 708 b 58 658 61 675 58 675 b 57 625 58 642 57 642 b 60 592 57 608 60 608 b 56 560 60 576 56 576 b 57 526 56 543 57 543 b 60 493 57 510 60 510 b 60 460 60 476 60 476 b 56 426 60 443 56 443 b 56 394 56 411 56 411 b 57 361 56 378 57 378 b 57 328 57 344 57 344 b 60 294 57 311 60 311 b 60 261 60 278 60 278 b 58 229 60 246 58 246 b 58 196 58 213 58 213 b 56 163 58 179 56 179 b 60 129 56 146 60 146 b 56 96 60 113 56 113 b 60 64 56 81 60 81 b 57 31 60 47 57 47 b 89 -3 57 14 72 -3 b 124 -1 107 -3 107 -1 b 160 0 142 -1 142 0 b 194 -3 176 0 176 -3 b 229 -3 213 -3 213 -3 b 265 3 247 -3 247 3 b 300 1 282 3 282 1 b 329 31 317 1 329 14 b 333 63 329 46 333 46 b 332 94 333 79 332 79 b 329 126 332 111 329 111 b 329 160 329 143 329 143 b 332 192 329 175 332 175 b 332 224 332 207 332 207 b 332 256 332 240 332 240 b 333 288 332 272 333 272 b 363 317 333 306 344 317 b 406 318 383 317 383 318 b 433 304 417 318 428 314 b 451 275 442 289 443 290 b 464 246 458 261 457 260 b 481 217 472 231 472 231 b 497 188 489 201 489 203 b 514 160 506 174 506 174 b 529 129 522 144 521 144 b 549 103 538 115 540 117 b 565 74 557 89 557 89 b 576 43 574 60 568 57 b 594 15 585 28 586 29 b 622 0 600 6 611 0 b 658 -1 640 0 640 -1 b 693 1 675 -1 675 1 b 729 -1 711 1 711 -1 b 764 -1 747 -1 747 -1 b 800 -1 782 -1 782 -1 b 836 -1 818 -1 818 -1 b 871 1 854 -1 854 1 b 888 25 883 1 893 14 z m 710 693 b 714 699 710 696 713 699 b 717 696 714 699 715 697 b 715 688 717 693 717 689 b 711 685 714 686 713 685 b 710 693 711 685 710 692 z m 615 296 b 615 292 617 296 617 292 b 579 285 604 285 592 279 b 578 288 578 285 578 286 b 604 297 588 308 588 308 b 615 296 607 296 611 296 z m 583 356 b 582 350 583 354 583 350 b 568 351 576 350 572 349 b 568 358 567 353 567 357 b 583 356 575 364 578 363 z m 576 447 b 589 450 582 449 586 449 b 590 449 590 450 590 449 b 590 446 590 447 590 446 b 590 443 590 444 590 443 b 583 440 588 442 586 440 b 576 444 582 440 581 442 b 576 447 575 444 575 447 z m 300 485 b 322 493 307 489 315 485 b 328 500 324 496 325 499 b 335 503 331 503 333 503 b 346 499 339 501 342 500 b 356 492 349 496 353 493 b 371 493 361 490 367 492 b 386 489 376 493 382 492 b 389 483 388 488 389 486 b 388 481 389 482 388 481 b 374 475 383 476 379 475 b 304 474 351 471 328 479 b 306 474 304 474 306 474 l 303 472 b 304 474 303 472 304 472 b 299 478 303 474 300 475 b 297 479 299 478 297 479 b 300 485 297 482 299 483 z m 251 724 b 263 724 256 724 258 722 b 267 721 264 724 265 725 b 264 714 267 718 265 715 b 253 711 261 711 256 711 b 249 718 250 711 249 714 b 251 724 249 721 250 724 z m 251 560 b 233 554 247 553 240 554 b 229 563 231 554 229 558 l 229 569 b 235 578 229 575 232 579 b 249 575 239 578 244 576 b 251 560 253 575 256 565 z m 219 818 b 240 811 229 822 235 815 b 240 807 243 810 242 808 b 224 806 235 807 229 807 b 222 807 224 806 222 806 b 219 815 221 810 219 813 b 219 818 218 817 219 818 z m 206 485 b 211 489 207 488 210 489 b 232 478 218 489 225 481 b 257 481 240 474 249 478 b 276 475 263 482 275 489 b 276 465 276 471 276 468 b 274 454 276 461 275 457 b 253 449 267 447 260 446 b 235 460 246 450 240 456 b 225 465 232 463 229 465 b 218 467 224 467 221 467 b 211 468 217 468 214 468 b 204 474 208 468 206 469 b 206 485 203 478 203 482 z m 193 669 b 199 667 194 671 197 669 b 201 660 199 664 200 663 b 197 649 203 654 201 649 b 189 650 194 649 192 650 b 186 660 186 650 185 656 b 193 669 188 665 190 667 z m 171 801 b 188 803 175 804 182 804 b 186 790 194 801 194 790 b 171 794 182 790 176 792 b 171 801 168 796 168 800 z m 188 386 b 179 392 185 386 181 388 b 181 406 178 396 178 401 b 182 411 181 408 182 410 b 178 425 182 417 178 419 b 185 438 176 432 181 438 b 196 431 189 438 193 433 b 211 425 201 428 207 425 b 225 425 217 424 221 425 b 238 414 231 424 235 421 b 239 408 239 413 239 410 b 222 401 236 400 226 403 b 217 401 219 401 218 401 b 207 390 213 399 211 393 b 188 386 201 382 194 385 z m 208 315 b 196 326 203 314 197 315 b 201 336 196 332 199 336 b 232 336 213 336 222 335 b 256 343 240 338 247 340 b 261 329 261 346 264 336 b 239 321 254 318 244 324 b 208 315 229 317 218 315 z m 268 206 b 253 201 263 200 258 197 b 267 214 254 219 260 218 b 268 206 269 213 269 207 z m 304 271 b 283 267 297 269 290 268 b 281 269 282 267 281 268 b 276 289 279 276 278 283 b 278 294 276 292 276 293 b 306 279 290 304 297 288 b 304 271 307 276 307 271 z m 344 354 b 332 350 342 349 336 349 b 329 364 328 350 326 360 b 343 368 333 368 338 369 b 344 354 347 367 349 358 z m 386 425 b 379 424 383 424 382 424 b 356 422 372 422 364 424 b 353 421 354 422 354 421 b 336 413 347 419 342 414 b 285 390 318 407 297 425 b 279 376 282 386 281 381 b 271 371 278 372 274 369 b 271 403 263 375 267 392 b 282 429 274 413 276 424 b 288 432 283 431 286 432 b 335 442 304 438 319 439 b 389 435 339 443 390 450 b 386 425 389 431 388 426 z m 442 400 b 429 399 438 396 433 394 b 429 397 429 399 429 397 l 428 399 b 429 399 428 399 428 399 b 442 411 429 415 433 414 b 442 400 444 410 444 403 z m 478 458 l 458 458 b 458 463 457 458 457 461 b 478 463 464 467 471 469 b 478 458 479 461 479 458 z m 457 526 b 425 525 442 526 442 524 b 393 526 410 525 410 526 b 363 529 378 526 378 529 b 329 558 344 529 329 542 b 333 592 329 575 333 575 b 332 625 333 608 332 608 b 329 658 332 642 329 642 b 329 692 329 675 329 675 b 333 725 329 708 333 708 b 333 758 333 742 333 742 b 363 788 333 775 344 788 b 393 789 378 788 378 789 b 425 790 410 789 410 790 b 457 792 442 790 442 792 b 489 788 468 792 479 789 b 519 781 500 786 510 785 b 546 765 531 778 538 769 b 572 747 556 758 565 756 b 586 719 579 739 582 729 b 600 690 590 710 597 701 b 599 658 601 681 599 669 b 594 628 599 647 596 638 b 588 597 593 617 592 606 b 572 569 583 588 579 578 b 546 551 565 561 556 557 b 518 538 538 546 529 542 b 489 526 510 535 500 528 b 457 526 479 525 468 526 z m 507 353 l 508 357 b 507 356 507 356 507 356 b 508 357 507 356 508 356 b 517 357 510 358 514 358 b 519 347 519 354 519 350 b 518 346 519 346 518 346 b 517 344 518 344 517 344 b 507 356 511 346 507 350 b 507 353 507 354 507 354 z m 511 426 b 525 421 515 426 519 425 b 519 406 532 417 528 406 b 511 426 494 406 490 426 z m 539 285 b 507 285 529 289 518 293 b 489 294 504 282 497 288 b 490 300 488 296 488 300 b 540 290 510 307 526 307 b 539 285 543 289 542 283 z m 606 222 b 547 203 586 217 568 210 b 546 207 546 203 544 206 b 606 226 558 231 582 238 b 606 222 607 226 607 222 z m 650 176 l 631 176 l 617 176 b 615 182 615 176 614 181 b 650 182 628 192 636 192 b 650 176 651 181 651 176 z m 671 549 b 668 546 669 547 668 547 b 661 549 665 544 663 544 b 658 554 660 551 658 554 b 664 563 660 558 663 560 b 672 560 667 565 671 564 b 671 549 674 556 672 551 z m 685 629 b 661 631 676 621 669 626 b 661 642 660 632 660 639 b 685 640 668 650 676 644 b 685 629 686 639 686 632 z "},"S":{"ha":906,"x_min":0,"x_max":0,"o":"m 849 343 b 849 378 849 354 850 367 b 836 410 846 389 839 399 b 826 443 832 421 831 433 b 804 471 821 453 811 461 b 786 499 799 479 793 490 b 763 525 778 507 771 517 b 733 544 754 532 743 538 b 704 563 725 550 714 556 b 675 581 694 568 686 575 b 644 594 665 586 654 590 b 610 603 633 600 621 599 b 578 617 600 607 589 613 b 544 628 561 622 561 622 b 511 640 528 633 528 635 b 478 651 494 646 494 646 b 444 665 461 658 461 660 b 407 675 431 669 417 669 b 382 703 394 682 389 693 b 374 738 376 713 374 724 b 378 772 374 750 372 763 b 404 793 383 781 394 788 b 438 804 414 799 425 801 b 471 807 447 806 458 807 b 504 810 482 807 494 810 b 538 800 517 808 528 803 b 571 792 549 797 561 796 b 600 774 582 788 590 781 b 629 756 610 768 621 764 b 665 758 642 746 656 746 b 692 781 678 769 681 768 b 713 806 703 792 701 794 b 736 831 725 818 725 818 b 763 851 749 843 751 840 b 786 876 775 864 775 864 b 782 918 797 888 793 906 b 760 942 774 925 768 935 b 733 961 751 949 743 954 b 704 975 725 967 714 969 b 676 989 696 981 686 985 b 647 1006 667 993 658 1001 b 615 1011 638 1010 626 1008 b 583 1019 606 1014 594 1017 b 553 1029 574 1021 564 1028 b 521 1033 543 1031 532 1032 b 488 1036 510 1033 499 1035 b 456 1036 478 1036 467 1036 b 424 1033 444 1036 433 1033 b 392 1028 413 1032 401 1029 b 360 1021 381 1026 369 1024 b 326 1017 349 1018 338 1019 b 296 1006 317 1014 306 1010 b 268 990 286 1003 278 994 b 239 975 258 985 249 981 b 213 956 231 969 221 963 b 186 936 204 949 194 943 b 167 910 179 928 174 919 b 150 883 160 901 156 892 b 133 854 144 874 139 864 b 122 825 129 844 125 835 b 113 793 118 814 114 804 b 108 761 110 783 110 772 b 106 729 107 750 106 740 b 111 696 106 717 110 707 b 115 663 113 685 114 674 b 121 631 118 651 118 640 b 132 599 125 619 128 610 b 150 571 138 589 144 581 b 165 542 156 563 160 550 b 192 519 172 533 183 528 b 214 496 199 513 206 503 b 242 479 222 489 233 485 b 268 458 251 472 258 463 b 300 447 278 453 290 451 b 329 429 310 443 318 433 b 361 421 339 426 350 424 b 390 408 376 415 375 414 b 421 401 406 404 407 407 b 450 389 436 396 435 393 b 482 382 465 383 467 388 b 515 369 494 378 506 374 b 546 351 528 364 538 357 b 571 326 558 344 565 336 b 582 293 576 317 582 307 b 575 260 582 281 579 269 b 551 235 569 250 561 242 b 521 222 543 229 532 225 b 486 217 510 219 499 218 b 453 213 476 215 465 213 b 421 215 442 213 431 214 b 389 218 410 217 399 217 b 358 228 379 221 368 224 b 331 242 349 232 339 236 b 304 261 321 247 313 254 b 281 282 296 267 288 274 b 258 304 272 289 265 296 b 217 307 249 315 229 317 b 192 289 204 297 204 299 b 167 268 179 279 179 278 b 140 253 154 260 153 263 b 117 231 128 243 129 240 b 93 210 104 221 106 219 b 67 193 81 201 79 203 b 64 151 53 182 53 165 b 86 125 71 143 78 133 b 110 100 93 118 100 107 b 138 79 118 93 128 86 b 167 61 146 72 157 67 b 196 43 176 56 186 47 b 229 32 206 38 218 38 b 261 18 240 28 250 22 b 293 6 272 15 282 8 b 328 1 304 3 317 4 b 361 -4 339 0 350 -3 b 396 -12 372 -6 383 -11 b 431 -12 407 -14 418 -12 b 464 -17 442 -14 453 -17 b 499 -11 476 -17 488 -11 b 532 -10 510 -11 521 -10 b 565 -4 543 -8 554 -6 b 599 0 576 -3 588 -3 b 632 7 610 3 621 3 b 663 21 643 10 651 17 b 694 31 672 25 685 25 b 724 49 706 35 714 42 b 749 69 733 54 740 63 b 774 93 758 76 765 85 b 799 117 781 101 792 107 b 817 144 804 125 811 135 b 829 176 821 154 825 165 b 839 208 833 186 836 197 b 844 242 843 219 843 231 b 847 275 846 253 847 264 b 850 308 849 286 850 297 b 849 343 850 321 850 332 z m 174 714 b 167 714 172 713 168 713 b 165 717 165 715 165 715 b 174 714 163 731 176 718 z m 253 782 b 240 783 249 781 244 782 b 242 794 236 786 238 793 b 254 793 246 794 250 794 b 253 782 260 790 258 782 z m 472 136 b 464 138 469 135 467 136 b 465 144 461 139 463 143 b 474 143 468 144 471 144 b 472 136 478 142 476 136 z m 531 557 b 533 561 531 558 532 560 b 536 561 535 563 536 563 b 536 554 538 558 538 556 b 533 551 536 553 535 553 b 531 557 533 551 531 556 z m 518 532 b 532 522 522 529 528 526 b 549 513 538 518 544 514 b 549 507 551 513 551 508 b 543 506 547 507 544 507 b 532 507 539 506 535 506 b 524 507 529 507 525 506 b 492 532 517 518 501 526 b 492 539 489 533 490 539 b 503 539 496 540 500 540 b 518 532 507 536 513 533 z m 471 569 b 471 572 471 569 469 571 b 504 576 482 578 493 583 b 504 574 506 576 506 574 b 471 569 493 572 482 571 z m 418 603 b 439 604 425 604 432 603 b 464 610 447 607 456 608 b 471 613 467 611 469 611 b 483 618 475 614 479 617 b 501 622 489 621 496 622 b 508 615 504 622 507 621 b 503 608 508 613 506 610 b 465 604 492 601 478 608 b 454 599 461 601 458 599 b 435 594 447 597 440 600 b 418 578 429 588 425 578 b 418 603 408 578 408 600 z m 357 658 b 389 665 367 660 376 663 b 392 657 392 665 393 661 b 386 649 389 651 388 649 b 356 649 376 651 365 643 b 357 658 353 650 354 657 z m 294 731 b 296 733 296 732 296 733 b 310 733 301 735 306 733 b 314 729 313 733 314 732 b 310 725 314 728 313 726 b 299 725 307 725 303 725 b 294 731 296 725 293 728 z m 278 639 b 319 639 288 647 304 647 b 319 631 322 638 321 632 b 278 632 307 626 290 626 b 278 639 275 632 275 638 z m 394 525 b 376 528 389 525 382 525 b 371 535 375 529 372 532 b 367 549 369 539 368 544 b 358 558 365 554 363 557 b 329 560 349 564 339 563 b 297 563 318 557 307 558 b 294 565 296 563 294 564 b 296 568 294 567 296 567 b 315 572 303 572 310 569 b 322 579 318 575 319 576 b 342 582 329 583 335 582 b 364 586 350 583 357 586 b 374 576 368 586 372 582 b 376 556 376 569 372 561 b 382 553 378 554 379 553 b 413 547 392 549 401 544 b 435 551 419 549 426 550 b 460 551 442 554 451 551 b 465 550 461 551 464 551 b 468 547 467 550 467 549 b 469 542 469 547 471 543 b 467 540 469 540 468 540 b 444 538 460 540 453 539 b 435 535 442 538 438 536 b 422 532 431 535 426 535 b 414 528 419 531 417 529 b 394 525 407 525 401 525 z m 424 483 b 415 485 421 482 418 483 b 415 490 414 486 414 489 b 478 501 438 501 457 508 b 478 500 478 501 478 500 b 478 496 479 499 479 497 b 451 483 471 482 461 482 b 424 483 442 486 432 488 z m 485 449 b 460 446 476 449 468 446 b 456 447 458 446 457 446 b 456 454 453 447 453 453 b 503 476 472 463 488 469 b 514 475 507 478 510 475 b 540 478 522 476 532 475 b 571 476 551 482 561 482 b 571 461 575 474 575 463 b 554 454 565 458 558 456 b 485 449 531 453 508 446 z m 596 414 b 593 411 596 413 594 413 b 561 406 582 407 571 413 b 553 399 558 403 556 401 b 539 392 549 394 544 393 b 525 390 535 390 529 389 b 522 393 524 392 522 392 b 522 399 522 396 522 397 b 526 411 524 403 525 407 b 540 417 531 418 535 415 b 558 419 546 417 553 418 b 576 425 564 421 571 424 b 593 424 582 426 588 426 b 597 419 596 424 597 422 b 596 414 599 418 597 415 z m 615 190 b 610 190 614 188 611 188 b 610 192 610 190 610 190 b 615 190 607 207 617 194 z m 639 461 b 628 456 636 454 633 449 b 628 463 626 458 626 461 b 636 467 632 464 633 465 b 639 464 638 467 639 465 b 639 461 639 463 640 461 z m 667 261 b 660 263 664 260 663 261 b 660 274 656 265 657 274 b 668 272 664 275 665 274 b 667 261 672 269 671 261 z m 706 201 b 697 201 703 201 700 201 b 694 207 696 201 694 204 b 696 210 696 208 696 210 b 706 210 699 211 703 211 b 708 206 707 210 708 208 b 706 201 708 204 707 201 z "},"T":{"ha":931,"x_min":0,"x_max":0,"o":"m 872 925 b 871 960 872 943 871 943 b 872 993 871 976 872 976 b 843 1019 872 1010 860 1019 b 810 1019 826 1019 826 1019 b 778 1021 793 1019 793 1021 b 744 1021 761 1021 761 1021 b 711 1021 728 1021 728 1021 b 679 1026 696 1021 696 1026 b 646 1022 663 1026 663 1022 b 613 1022 629 1022 629 1022 b 581 1026 597 1022 597 1026 b 547 1021 564 1026 564 1021 b 515 1025 531 1021 531 1025 b 482 1025 499 1025 499 1025 b 449 1025 465 1025 465 1025 b 417 1024 433 1025 433 1024 b 383 1022 400 1024 400 1022 b 351 1026 367 1022 367 1026 b 318 1025 335 1026 335 1025 b 285 1021 301 1025 301 1021 b 253 1022 269 1021 269 1022 b 219 1026 236 1022 236 1026 b 188 1022 203 1026 203 1022 b 154 1021 171 1022 171 1021 b 121 1024 138 1021 138 1024 b 89 1025 106 1024 106 1025 b 57 993 72 1025 57 1010 b 61 960 57 976 61 976 b 61 925 61 942 61 942 b 61 892 61 908 61 908 b 56 857 61 874 56 874 b 61 824 56 840 61 840 b 89 796 61 807 72 796 b 124 796 107 796 107 796 b 158 793 142 796 142 793 b 194 792 176 793 176 792 b 229 792 211 792 211 792 b 264 793 247 792 247 793 b 300 794 282 793 282 794 b 331 764 315 794 331 781 b 326 731 331 747 326 747 b 331 697 326 714 331 714 b 326 664 331 681 326 681 b 329 631 326 647 329 647 b 326 597 329 614 326 614 b 331 564 326 581 331 581 b 326 531 331 547 326 547 b 331 497 326 514 331 514 b 331 464 331 481 331 481 b 329 432 331 447 329 447 b 326 399 329 415 326 415 b 329 365 326 382 329 382 b 329 332 329 349 329 349 b 328 299 329 315 328 315 b 328 265 328 282 328 282 b 326 232 328 249 326 249 b 329 199 326 215 329 215 b 328 165 329 182 328 182 b 331 132 328 149 331 149 b 331 99 331 115 331 115 b 329 65 331 82 329 82 b 328 32 329 49 328 49 b 358 1 328 15 343 1 b 394 1 376 1 376 1 b 431 3 413 1 413 3 b 465 1 447 3 447 1 b 501 3 483 1 483 3 b 538 0 519 3 519 0 b 572 3 554 0 554 3 b 600 32 589 3 600 15 b 601 65 600 49 601 49 b 603 99 601 82 603 82 b 600 132 603 115 600 115 b 600 165 600 149 600 149 b 600 199 600 182 600 182 b 604 232 600 215 604 215 b 603 265 604 249 603 249 b 601 299 603 282 601 282 b 606 332 601 315 606 315 b 603 365 606 349 603 349 b 600 399 603 382 600 382 b 600 432 600 415 600 415 b 601 464 600 449 601 449 b 604 497 601 481 604 481 b 603 531 604 514 603 514 b 599 564 603 547 599 547 b 603 597 599 581 603 581 b 603 631 603 614 603 614 b 604 664 603 647 604 647 b 601 697 604 681 601 681 b 600 731 601 714 600 714 b 600 764 600 747 600 747 b 632 794 600 781 615 794 b 667 794 650 794 650 794 b 703 792 685 794 685 792 b 738 793 719 792 719 793 b 772 793 756 793 756 793 b 807 796 790 793 790 796 b 843 792 825 796 825 792 b 872 824 860 792 872 807 b 874 857 872 840 874 840 b 875 892 874 874 875 874 b 872 925 875 908 872 908 z m 324 874 b 315 875 321 869 317 871 b 313 886 314 879 313 882 b 319 894 313 889 318 896 b 324 874 324 893 329 882 z m 490 753 b 493 757 490 756 492 757 b 500 744 497 756 501 753 b 494 736 500 742 496 736 b 490 753 489 739 489 746 z m 424 822 b 436 831 426 835 432 833 b 457 836 443 828 450 831 b 483 838 465 840 475 838 b 485 832 485 836 485 835 b 483 826 485 829 485 826 b 425 814 464 817 444 815 b 424 822 424 814 422 819 z m 397 918 b 394 915 397 918 396 917 b 389 918 392 915 390 915 b 388 924 389 919 388 922 b 393 928 388 925 392 929 b 399 925 394 928 397 926 b 397 918 400 924 400 919 z m 421 768 b 400 767 415 754 408 760 b 400 771 399 768 399 771 b 418 775 400 771 413 774 b 421 768 421 775 422 771 z m 458 274 b 443 276 451 264 447 268 b 443 281 442 278 442 282 b 458 279 449 281 453 279 b 458 274 460 278 460 275 z m 460 443 l 440 443 b 439 453 438 443 436 450 b 457 458 444 458 450 460 b 461 451 458 457 460 456 b 460 443 464 449 463 443 z m 489 357 b 486 354 488 356 488 354 b 482 356 485 354 483 356 b 482 360 481 357 481 358 b 483 363 482 361 482 361 b 486 363 483 363 485 364 b 488 361 486 363 488 363 b 489 357 489 361 490 358 z m 494 567 b 425 560 471 543 447 560 b 422 565 424 560 422 563 b 425 571 421 568 422 571 b 433 572 428 572 431 572 b 449 571 439 572 446 567 b 494 578 463 592 478 582 b 494 567 497 576 497 569 z m 507 682 b 450 671 474 664 461 661 b 450 682 447 674 447 681 b 468 685 456 686 463 683 b 489 693 475 685 482 682 b 508 692 493 701 501 704 b 507 682 510 688 510 683 z m 553 864 b 553 863 553 864 553 863 b 550 860 553 861 551 860 b 536 863 546 861 540 861 b 533 865 535 863 533 864 b 536 868 533 868 535 868 l 551 868 b 553 864 553 867 554 865 z m 603 919 b 600 911 601 914 601 911 b 593 911 599 910 596 911 b 592 914 592 911 592 914 b 600 921 594 917 597 918 b 603 919 601 922 604 921 z "},"U":{"ha":1001,"x_min":0,"x_max":0,"o":"m 943 658 b 944 690 943 674 944 674 b 942 724 944 707 942 707 b 946 757 942 740 946 740 b 942 790 946 774 942 774 b 946 824 942 807 946 807 b 942 857 946 840 942 840 b 944 889 942 874 944 874 b 944 922 944 906 944 906 b 944 956 944 939 944 939 b 946 989 944 972 946 972 b 914 1015 946 1006 931 1015 b 879 1021 896 1015 896 1021 b 843 1018 861 1021 861 1018 b 807 1021 825 1018 825 1021 b 772 1018 789 1021 789 1018 b 736 1021 754 1018 754 1021 b 700 1017 718 1021 718 1017 b 672 989 685 1017 672 1006 b 671 956 672 972 671 972 b 669 924 671 939 669 939 b 669 890 669 907 669 907 b 672 857 669 874 672 874 b 674 824 672 840 674 840 b 674 792 674 807 674 807 b 668 758 674 775 668 775 b 668 725 668 742 668 742 b 668 692 668 708 668 708 b 668 660 668 676 668 676 b 669 626 668 643 669 643 b 671 593 669 610 671 610 b 668 561 671 576 668 576 b 671 528 668 544 671 544 b 671 494 671 511 671 511 b 668 461 671 478 668 478 b 669 429 668 446 669 446 b 671 396 669 413 671 413 b 671 364 671 385 671 374 b 667 332 669 353 669 342 b 654 303 665 322 658 313 b 639 276 650 293 644 285 b 621 249 632 268 629 256 b 593 233 614 243 603 239 b 563 224 583 229 574 228 b 533 215 554 221 544 217 b 501 213 522 214 513 213 b 469 214 490 213 479 213 b 439 222 458 215 449 219 b 408 232 428 225 417 226 b 385 253 399 236 393 246 b 364 276 376 260 371 268 b 346 301 358 285 350 292 b 340 333 342 311 342 322 b 336 364 338 343 336 354 b 331 396 335 375 331 385 b 333 429 331 413 333 413 b 333 461 333 446 333 446 b 331 494 333 478 331 478 b 333 528 331 511 333 511 b 329 561 333 544 329 544 b 332 593 329 576 332 576 b 335 626 332 610 335 610 b 329 660 335 643 329 643 b 331 692 329 676 331 676 b 329 725 331 708 329 708 b 333 758 329 742 333 742 b 331 792 333 775 331 775 b 333 824 331 808 333 808 b 335 857 333 840 335 840 b 332 890 335 874 332 874 b 333 924 332 907 333 907 b 329 956 333 939 329 939 b 333 989 329 972 333 972 b 301 1021 333 1006 318 1021 b 267 1017 285 1021 285 1017 b 231 1017 249 1017 249 1017 b 194 1018 213 1017 213 1018 b 160 1017 178 1018 178 1017 b 124 1022 142 1017 142 1022 b 89 1015 106 1022 106 1015 b 57 989 72 1015 57 1006 b 57 956 57 972 57 972 b 61 922 57 939 61 939 b 58 889 61 906 58 906 b 57 857 58 874 57 874 b 58 824 57 840 58 840 b 57 790 58 807 57 807 b 61 757 57 774 61 774 b 60 724 61 740 60 740 b 60 690 60 707 60 707 b 61 658 60 674 61 674 b 56 625 61 642 56 642 b 57 592 56 608 57 608 b 58 558 57 575 58 575 b 57 525 58 542 57 542 b 58 492 57 508 58 508 b 61 458 58 475 61 475 b 57 426 61 443 57 443 b 58 393 57 410 58 410 b 58 360 58 382 57 371 b 61 328 58 349 61 339 b 67 296 63 317 64 306 b 76 264 68 285 74 275 b 82 232 79 254 78 242 b 96 203 86 222 92 213 b 110 174 100 193 104 182 b 126 146 115 164 121 154 b 149 121 133 136 142 129 b 172 99 156 113 165 106 b 196 76 181 92 188 83 b 224 60 204 69 214 65 b 251 43 232 53 242 47 b 281 28 261 38 269 32 b 310 17 290 24 300 19 b 340 6 321 13 331 8 b 371 -7 351 3 361 -4 b 404 -10 382 -10 393 -8 b 436 -12 414 -11 425 -11 b 468 -19 447 -14 457 -18 b 501 -14 479 -19 490 -14 b 533 -18 513 -14 524 -18 b 567 -15 544 -18 556 -17 b 599 -11 578 -14 588 -14 b 631 -4 610 -10 619 -7 b 661 6 642 -1 651 3 b 694 11 672 8 683 7 b 724 24 704 14 714 19 b 751 42 735 28 742 36 b 781 57 761 47 771 51 b 808 74 789 63 800 67 b 831 97 817 81 824 90 b 851 122 839 106 844 114 b 875 146 858 131 868 138 b 893 172 881 154 888 163 b 908 201 899 182 903 192 b 917 233 913 211 913 224 b 926 264 921 243 924 254 b 933 296 929 275 931 285 b 943 328 935 307 942 317 b 942 360 944 338 940 349 b 942 393 942 371 942 382 b 942 426 942 410 942 410 b 944 458 942 443 944 443 b 946 492 944 475 946 475 b 946 525 946 508 946 508 b 944 558 946 542 944 542 b 943 592 944 575 943 575 b 946 625 943 608 946 608 b 943 658 946 642 943 642 z m 232 917 b 232 906 240 922 240 899 b 232 917 228 907 228 915 z m 226 775 b 232 782 229 779 231 782 b 231 764 240 782 242 764 b 226 775 226 764 224 771 z m 218 621 b 254 628 228 628 238 631 b 256 619 257 626 257 622 b 251 617 253 618 253 617 b 219 613 240 615 231 614 b 218 621 215 613 215 618 z m 163 896 b 165 900 164 899 164 900 b 178 901 169 901 174 901 b 182 894 181 901 182 899 b 178 889 182 892 181 889 b 167 888 175 889 171 889 b 163 896 164 888 161 893 z m 174 524 b 153 515 167 519 157 515 b 122 521 142 517 132 518 b 119 528 121 521 119 524 b 124 538 118 533 121 538 b 167 531 139 535 153 533 b 174 531 169 531 171 531 b 174 524 175 531 176 525 z m 192 699 b 179 696 188 697 183 697 b 176 706 175 693 174 703 b 211 714 188 713 200 713 b 215 710 214 714 215 711 b 215 708 215 710 215 710 b 213 703 215 706 214 703 b 192 699 206 701 199 700 z m 263 350 b 207 360 246 349 222 356 b 207 368 204 361 204 367 b 247 376 221 372 233 376 b 265 364 253 376 258 371 b 263 350 269 360 267 350 z m 556 74 b 554 69 556 71 556 68 b 539 72 550 71 544 72 b 528 72 535 72 532 72 b 526 79 525 71 525 78 b 554 81 536 90 546 85 b 556 76 556 81 556 79 b 556 74 556 75 556 74 z m 618 128 b 610 128 615 126 613 126 b 610 138 608 128 607 136 b 618 138 613 139 615 139 b 618 128 619 138 621 129 z m 690 156 b 689 153 690 154 689 153 b 669 150 682 151 676 150 b 668 160 667 149 665 157 b 690 165 674 167 681 168 b 690 156 692 165 693 158 z m 772 781 b 785 781 776 782 781 782 b 785 772 788 781 788 774 b 772 771 781 771 776 771 b 772 781 769 772 768 779 z m 800 365 b 797 361 800 363 799 361 b 775 364 789 363 782 364 b 757 364 768 364 763 364 b 756 371 754 364 753 369 b 797 372 769 381 783 376 b 800 368 799 371 800 369 b 800 365 800 367 800 365 z m 861 585 b 858 582 860 583 858 582 b 829 579 849 581 839 579 b 826 588 825 578 824 586 b 860 593 836 594 846 596 b 861 585 863 593 864 588 z "}}}
